<svg width="18" height="18" viewBox="0 0 18 18" fill="none" xmlns="http://www.w3.org/2000/svg">
<path d="M3.75 4H6.75V2H3.75V4ZM6.5 3.75V6.75H8.5V3.75H6.5ZM6.75 6.5H3.75V8.5H6.75V6.5ZM4 6.75V3.75H2V6.75H4ZM3.75 6.5C3.88807 6.5 4 6.61193 4 6.75H2C2 7.7165 2.7835 8.5 3.75 8.5V6.5ZM6.5 6.75C6.5 6.61193 6.61193 6.5 6.75 6.5V8.5C7.7165 8.5 8.5 7.7165 8.5 6.75H6.5ZM6.75 4C6.61193 4 6.5 3.88807 6.5 3.75H8.5C8.5 2.7835 7.7165 2 6.75 2V4ZM3.75 2C2.7835 2 2 2.7835 2 3.75H4C4 3.88807 3.88807 4 3.75 4V2ZM3.75 11.5H6.75V9.5H3.75V11.5ZM6.5 11.25V14.25H8.5V11.25H6.5ZM6.75 14H3.75V16H6.75V14ZM4 14.25V11.25H2V14.25H4ZM3.75 14C3.88807 14 4 14.1119 4 14.25H2C2 15.2165 2.7835 16 3.75 16V14ZM6.5 14.25C6.5 14.1119 6.61193 14 6.75 14V16C7.7165 16 8.5 15.2165 8.5 14.25H6.5ZM6.75 11.5C6.61193 11.5 6.5 11.3881 6.5 11.25H8.5C8.5 10.2835 7.7165 9.5 6.75 9.5V11.5ZM3.75 9.5C2.7835 9.5 2 10.2835 2 11.25H4C4 11.3881 3.88807 11.5 3.75 11.5V9.5ZM11.25 4H14.25V2H11.25V4ZM14 3.75V6.75H16V3.75H14ZM14.25 6.5H11.25V8.5H14.25V6.5ZM11.5 6.75V3.75H9.5V6.75H11.5ZM11.25 6.5C11.3881 6.5 11.5 6.61193 11.5 6.75H9.5C9.5 7.7165 10.2835 8.5 11.25 8.5V6.5ZM14 6.75C14 6.61193 14.1119 6.5 14.25 6.5V8.5C15.2165 8.5 16 7.7165 16 6.75H14ZM14.25 4C14.1119 4 14 3.88807 14 3.75H16C16 2.7835 15.2165 2 14.25 2V4ZM11.25 2C10.2835 2 9.5 2.7835 9.5 3.75H11.5C11.5 3.88807 11.3881 4 11.25 4V2ZM11.25 11.5H14.25V9.5H11.25V11.5ZM14 11.25V14.25H16V11.25H14ZM14.25 14H11.25V16H14.25V14ZM11.5 14.25V11.25H9.5V14.25H11.5ZM11.25 14C11.3881 14 11.5 14.1119 11.5 14.25H9.5C9.5 15.2165 10.2835 16 11.25 16V14ZM14 14.25C14 14.1119 14.1119 14 14.25 14V16C15.2165 16 16 15.2165 16 14.25H14ZM14.25 11.5C14.1119 11.5 14 11.3881 14 11.25H16C16 10.2835 15.2165 9.5 14.25 9.5V11.5ZM11.25 9.5C10.2835 9.5 9.5 10.2835 9.5 11.25H11.5C11.5 11.3881 11.3881 11.5 11.25 11.5V9.5Z" fill="#393E46"/>
</svg>
