<svg width="18" height="18" viewBox="0 0 18 18" fill="none" xmlns="http://www.w3.org/2000/svg">
<path d="M3 11.25L15 11.25" stroke="#393E46" stroke-width="1.5" stroke-linecap="round" stroke-linejoin="round"/>
<path d="M3 6.75L15 6.75" stroke="#393E46" stroke-width="1.5" stroke-linecap="round" stroke-linejoin="round"/>
<circle cx="9" cy="9" r="6.75" stroke="#393E46" stroke-width="1.5" stroke-linecap="round" stroke-linejoin="round"/>
<path d="M8.99981 15.6136L8.46413 16.1386C8.60519 16.2825 8.79826 16.3636 8.99981 16.3636C9.20136 16.3636 9.39442 16.2825 9.53549 16.1386L8.99981 15.6136ZM8.99981 2.38638L9.53549 1.86145C9.39442 1.7175 9.20135 1.63638 8.99981 1.63638C8.79826 1.63638 8.60519 1.7175 8.46412 1.86145L8.99981 2.38638ZM10.9498 9C10.9498 11.3708 10.0025 13.5188 8.46413 15.0887L9.53549 16.1386C11.3375 14.2996 12.4498 11.779 12.4498 9H10.9498ZM8.46412 2.9113C10.0025 4.48122 10.9498 6.62924 10.9498 9H12.4498C12.4498 6.22104 11.3375 3.70038 9.53549 1.86145L8.46412 2.9113ZM7.0498 9C7.0498 6.62924 7.99709 4.48122 9.53549 2.9113L8.46412 1.86145C6.66212 3.70038 5.5498 6.22104 5.5498 9H7.0498ZM9.53549 15.0887C7.99709 13.5188 7.0498 11.3708 7.0498 9H5.5498C5.5498 11.779 6.66212 14.2996 8.46413 16.1386L9.53549 15.0887Z" fill="#393E46"/>
</svg>
