<svg width="17" height="16" viewBox="0 0 17 16" fill="none" xmlns="http://www.w3.org/2000/svg">
<path d="M1 2.06716V6.5116M1 6.5116H5.50032M1 6.5116L4.48025 3.28197C5.516 2.2608 6.85975 1.59973 8.30903 1.39836C9.7583 1.19698 11.2346 1.46622 12.5154 2.1655C13.7963 2.86478 14.8123 3.95623 15.4105 5.27538C16.0086 6.59453 16.1565 8.06993 15.8317 9.47927C15.507 10.8886 14.7272 12.1556 13.61 13.0892C12.4927 14.0228 11.0985 14.5726 9.6374 14.6556C8.17627 14.7387 6.72739 14.3505 5.50906 13.5496C4.29073 12.7488 3.36896 11.5785 2.88263 10.2153" stroke="#393E46" stroke-width="1.66667" stroke-linecap="round" stroke-linejoin="round"/>
</svg>
