<svg width="18" height="18" viewBox="0 0 18 18" fill="none" xmlns="http://www.w3.org/2000/svg">
<path d="M9 3.75H5.75C4.64543 3.75 3.75 4.64543 3.75 5.75V12H14.25V9.375" stroke="#393E46" stroke-width="2" stroke-linecap="round" stroke-linejoin="round"/>
<path d="M2.25 12H15.75V12.25C15.75 13.3546 14.8546 14.25 13.75 14.25H4.25C3.14543 14.25 2.25 13.3546 2.25 12.25V12Z" stroke="#393E46" stroke-width="2" stroke-linecap="round" stroke-linejoin="round"/>
<path d="M11.636 3.38602C11.1213 3.90074 11.1213 4.73526 11.636 5.24998L13.5 7.11401L15.364 5.25005C15.8787 4.73533 15.8787 3.90081 15.364 3.38609C14.8493 2.87138 14.0148 2.87137 13.5 3.38606C12.9853 2.87134 12.1508 2.8713 11.636 3.38602Z" stroke="#393E46" stroke-linecap="round" stroke-linejoin="round"/>
</svg>
