<svg width="18" height="18" viewBox="0 0 18 18" fill="none" xmlns="http://www.w3.org/2000/svg">
<path d="M15.9076 11.9175C15.4304 13.0459 14.6841 14.0402 13.734 14.8135C12.7838 15.5868 11.6586 16.1156 10.4569 16.3536C9.25514 16.5916 8.01338 16.5316 6.84017 16.1788C5.66696 15.8261 4.59803 15.1913 3.72682 14.33C2.85562 13.4687 2.20867 12.4071 1.84253 11.238C1.4764 10.0689 1.40223 8.82786 1.62651 7.62347C1.85078 6.41908 2.36668 5.28797 3.12909 4.32902C3.89151 3.37007 4.87722 2.61249 6.00006 2.1225" stroke="#393E46" stroke-width="2" stroke-linecap="round" stroke-linejoin="round"/>
<path d="M16.5 9C16.5 8.01509 16.306 7.03982 15.9291 6.12987C15.5522 5.21993 14.9997 4.39314 14.3033 3.6967C13.6069 3.00026 12.7801 2.44781 11.8701 2.0709C10.9602 1.69399 9.98491 1.5 9 1.5V9H16.5Z" stroke="#393E46" stroke-width="2" stroke-linecap="round" stroke-linejoin="round"/>
</svg>
