<svg width="18" height="18" viewBox="0 0 18 18" fill="none" xmlns="http://www.w3.org/2000/svg">
<path d="M11.8578 6.43913C12.3518 6.19215 12.552 5.59147 12.305 5.09749C12.058 4.60352 11.4573 4.40329 10.9634 4.65028L11.8578 6.43913ZM10.9634 13.3497C11.4573 13.5967 12.058 13.3965 12.305 12.9025C12.552 12.4085 12.3518 11.8079 11.8578 11.5609L10.9634 13.3497ZM4.5 10.25C3.80964 10.25 3.25 9.69036 3.25 9H1.25C1.25 10.7949 2.70507 12.25 4.5 12.25V10.25ZM3.25 9C3.25 8.30964 3.80964 7.75 4.5 7.75V5.75C2.70507 5.75 1.25 7.20507 1.25 9H3.25ZM6.96011 8.88798L11.8578 6.43913L10.9634 4.65028L6.06569 7.09912L6.96011 8.88798ZM4.5 7.75C4.98791 7.75 5.41238 8.02937 5.61882 8.44146L7.40698 7.54564C6.87462 6.483 5.77382 5.75 4.5 5.75V7.75ZM5.61882 8.44146C5.70246 8.60841 5.75 8.79721 5.75 9H7.75C7.75 8.47923 7.62677 7.98437 7.40698 7.54564L5.61882 8.44146ZM6.06569 10.9009L10.9634 13.3497L11.8578 11.5609L6.96011 9.11202L6.06569 10.9009ZM5.75 9C5.75 9.20279 5.70246 9.39159 5.61882 9.55854L7.40698 10.4544C7.62677 10.0156 7.75 9.52077 7.75 9H5.75ZM5.61882 9.55854C5.41238 9.97063 4.98791 10.25 4.5 10.25V12.25C5.77382 12.25 6.87462 11.517 7.40698 10.4544L5.61882 9.55854ZM14.75 4.5C14.75 5.19036 14.1904 5.75 13.5 5.75V7.75C15.2949 7.75 16.75 6.29493 16.75 4.5H14.75ZM13.5 5.75C12.8096 5.75 12.25 5.19036 12.25 4.5H10.25C10.25 6.29493 11.7051 7.75 13.5 7.75V5.75ZM12.25 4.5C12.25 3.80964 12.8096 3.25 13.5 3.25V1.25C11.7051 1.25 10.25 2.70507 10.25 4.5H12.25ZM13.5 3.25C14.1904 3.25 14.75 3.80964 14.75 4.5H16.75C16.75 2.70507 15.2949 1.25 13.5 1.25V3.25ZM14.75 13.5C14.75 14.1904 14.1904 14.75 13.5 14.75V16.75C15.2949 16.75 16.75 15.2949 16.75 13.5H14.75ZM13.5 14.75C12.8096 14.75 12.25 14.1904 12.25 13.5H10.25C10.25 15.2949 11.7051 16.75 13.5 16.75V14.75ZM12.25 13.5C12.25 12.8096 12.8096 12.25 13.5 12.25V10.25C11.7051 10.25 10.25 11.7051 10.25 13.5H12.25ZM13.5 12.25C14.1904 12.25 14.75 12.8096 14.75 13.5H16.75C16.75 11.7051 15.2949 10.25 13.5 10.25V12.25Z" fill="#393E46"/>
</svg>
