<svg width="18" height="18" viewBox="0 0 18 18" fill="none" xmlns="http://www.w3.org/2000/svg">
<path d="M6 10.125L8.08626 8.03874M7.50001 12.375L9.96127 9.91374M8.08626 8.03874L12.9357 3.91112C13.0611 3.80442 13.2029 3.71882 13.3558 3.65768V3.65768C13.9753 3.40987 14.5901 4.02467 14.3423 4.6442V4.6442C14.2812 4.79705 14.1956 4.93893 14.0889 5.0643L9.96127 9.91374M8.08626 8.03874C8.71126 8.09332 9.96127 8.54473 9.96127 9.91374" stroke="#393E46" stroke-width="2" stroke-linecap="round" stroke-linejoin="round"/>
<path d="M3.36397 12.9661C3.12596 11.6837 4.1102 10.5 5.41448 10.5V10.5C6.56628 10.5 7.5 11.4337 7.5 12.5855V12.75C7.5 13.9926 6.49264 15 5.25 15H2.9447C2.72468 15 2.63253 14.719 2.80985 14.5887L3.41881 14.1413C3.50667 14.0767 3.54986 13.9676 3.52996 13.8604L3.36397 12.9661Z" stroke="#393E46" stroke-width="2" stroke-linecap="round" stroke-linejoin="round"/>
</svg>
