<svg width="15" height="16" viewBox="0 0 15 16" fill="none" xmlns="http://www.w3.org/2000/svg">
<mask id="mask0_66_3819" style="mask-type:alpha" maskUnits="userSpaceOnUse" x="0" y="0" width="15" height="16">
<circle cx="7.5" cy="8" r="7.5" fill="#C4C4C4"/>
</mask>
<g mask="url(#mask0_66_3819)">
<path d="M-7.45032 0.549561H22.351V15.4502H-7.45032V0.549561Z" fill="#0098C3"/>
<path d="M-7.45032 5.51645H22.351V10.4833H-7.45032V5.51645Z" fill="#FD5C63"/>
<path d="M-7.45032 10.4833H22.351V15.4502H-7.45032V10.4833Z" fill="#00AE65"/>
<path d="M6.97849 10.235C8.2129 10.235 9.21359 9.2343 9.21359 7.99989C9.21359 6.76548 8.2129 5.76479 6.97849 5.76479C5.74408 5.76479 4.74339 6.76548 4.74339 7.99989C4.74339 9.2343 5.74408 10.235 6.97849 10.235Z" fill="white"/>
<path d="M7.45034 9.86247C8.47902 9.86247 9.31293 9.02857 9.31293 7.99989C9.31293 6.97122 8.47902 6.13731 7.45034 6.13731C6.42167 6.13731 5.58776 6.97122 5.58776 7.99989C5.58776 9.02857 6.42167 9.86247 7.45034 9.86247Z" fill="#FD5C63"/>
<path d="M10.3406 8.87734L9.69995 8.57337L9.46283 9.24161L9.22482 8.57367L8.58458 8.87853L8.88856 8.2379L8.22031 8.00079L8.88826 7.76277L8.58339 7.12254L9.22402 7.42651L9.46114 6.75817L9.69915 7.42612L10.3394 7.12125L10.0354 7.76188L10.7038 7.999L10.0358 8.23701L10.3406 8.87734Z" fill="white"/>
</g>
</svg>
