<svg width="32" height="32" viewBox="0 0 32 32" fill="none" xmlns="http://www.w3.org/2000/svg">
<rect width="32" height="32" rx="4" fill="#5C45D1"/>
<g clip-path="url(#clip0_1306_3724)">
<path d="M15.5188 10.5937C15.8182 9.67243 17.1216 9.67243 17.4209 10.5937L18.3034 13.3097C18.4373 13.7217 18.8212 14.0007 19.2545 14.0007H22.1102C23.0789 14.0007 23.4817 15.2403 22.698 15.8097L20.3877 17.4883C20.0372 17.7429 19.8905 18.1943 20.0244 18.6063L20.9069 21.3223C21.2062 22.2436 20.1517 23.0097 19.368 22.4403L17.0577 20.7618C16.7072 20.5071 16.2326 20.5071 15.8821 20.7618L13.5718 22.4403C12.788 23.0097 11.7336 22.2436 12.0329 21.3223L12.9154 18.6063C13.0493 18.1943 12.9026 17.7429 12.5521 17.4883L10.2418 15.8097C9.45806 15.2403 9.86083 14.0007 10.8296 14.0007H13.6853C14.1185 14.0007 14.5025 13.7217 14.6364 13.3097L15.5188 10.5937Z" stroke="#FAFAFA" stroke-width="2" stroke-linecap="round" stroke-linejoin="round"/>
</g>
<defs>
<clipPath id="clip0_1306_3724">
<rect width="20" height="20" fill="white" transform="translate(6.46973 6)"/>
</clipPath>
</defs>
</svg>
