<svg width="20" height="14" viewBox="0 0 20 14" fill="none" xmlns="http://www.w3.org/2000/svg">
<path d="M19.1 10.1001H19H18.5H18.4H18.3H11.9857C12.1119 10.6071 12.3738 11.0752 12.7494 11.4508C13.2918 11.9932 14.027 12.2985 14.794 12.3001C14.796 12.3001 14.798 12.3001 14.8 12.3001H14.8001C14.8021 12.3001 14.804 12.3001 14.806 12.3001C15.2631 12.2997 15.7136 12.191 16.1207 11.9829C16.5295 11.774 16.8827 11.4708 17.1513 11.0985L17.2099 11.0172L17.291 11.0759L18.263 11.7791L18.3439 11.8377L18.2855 11.9187C17.8872 12.4705 17.3635 12.9198 16.7574 13.2296C16.1812 13.5241 15.5462 13.6844 14.9 13.699V13.7001H14.8054L19.1 10.1001ZM19.1 10.1001V10.0001V9.50015V9.40015V9.30015H19.0988M19.1 10.1001L19.0988 9.30015M19.0988 9.30015C19.0732 8.19594 18.6234 7.14239 17.8406 6.35959C17.0578 5.57678 16.0042 5.12697 14.9 5.10131V5.10015H14.8H14.7V5.10131C13.5958 5.12697 12.5422 5.57678 11.7594 6.35959C10.9766 7.14239 10.5268 8.19594 10.5012 9.30015H10.5V9.40015V9.50015H10.5012C10.5268 10.6043 10.9766 11.6579 11.7594 12.4407C12.5422 13.2235 13.5958 13.6733 14.7 13.699V13.7001L14.7945 13.7001C14.7963 13.7001 14.7981 13.7001 14.7999 13.7001L19.0988 9.30015ZM17.6143 8.70015H11.9857C12.1119 8.19316 12.3738 7.72514 12.7494 7.34954C13.2932 6.80568 14.0309 6.50015 14.8 6.50015C15.5691 6.50015 16.3068 6.80568 16.8506 7.34954C17.2262 7.72514 17.4881 8.19316 17.6143 8.70015ZM1 0.300146H0.9V0.400146V0.900146V1.00015V1.10015V6.90015V7.00015V7.10015V12.9001V13.0001V13.1001V13.6001V13.7001H1H1.5H1.6H1.7H5.7H5.8H5.9V13.6988C6.84505 13.6733 7.74602 13.2867 8.4163 12.6164C9.08657 11.9462 9.47313 11.0452 9.49865 10.1001H9.5V10.0001V9.90015H9.49865C9.47313 8.9551 9.08657 8.05413 8.4163 7.38385C8.07574 7.0433 7.67564 6.77599 7.24046 6.59205C7.89586 5.92439 8.27343 5.03378 8.29865 4.10015H8.3V4.00015V3.90015H8.29865C8.27313 2.9551 7.88657 2.05413 7.2163 1.38385C6.54602 0.713572 5.64505 0.327021 4.7 0.301496V0.300146H4.6H4.5H1.7H1.6H1.5H1ZM5.8 12.3001H5.7H2.3V7.70015H4.5H4.6H4.7H5.7H5.8C6.41 7.70015 6.99501 7.94247 7.42635 8.3738C7.85768 8.80513 8.1 9.39015 8.1 10.0001C8.1 10.6101 7.85768 11.1952 7.42635 11.6265C6.99501 12.0578 6.41 12.3001 5.8 12.3001ZM6.9 4.00015C6.9 4.61014 6.65768 5.19516 6.22635 5.62649C5.79501 6.05783 5.21 6.30015 4.6 6.30015H4.5H2.3V1.70015H4.5H4.6C5.21 1.70015 5.79501 1.94247 6.22635 2.3738C6.65768 2.80513 6.9 3.39015 6.9 4.00015ZM11.7 2.80015V2.90015H11.8H17.8H17.9V2.80015V1.60015V1.50015H17.8H11.8H11.7V1.60015V2.80015Z" fill="white" stroke="white" stroke-width="0.2"/>
</svg>
