<svg width="18" height="14" viewBox="0 0 18 14" fill="none" xmlns="http://www.w3.org/2000/svg">
<path d="M3.60957 1.33925C5.91957 1.22425 7.71582 1.16675 8.99916 1.16675C10.2825 1.16675 12.0796 1.22425 14.3904 1.33966C14.9951 1.36984 15.5683 1.61844 16.0036 2.0393C16.4388 2.46015 16.7066 3.02466 16.7571 3.628C16.8629 4.89216 16.9154 6.0055 16.9154 6.96842C16.9154 7.943 16.8612 9.07175 16.7533 10.3551C16.703 10.9515 16.4404 11.5101 16.0132 11.9293C15.5861 12.3485 15.0227 12.6006 14.4254 12.6397C12.4496 12.7688 10.6408 12.8334 8.99916 12.8334C7.35749 12.8334 5.54916 12.7688 3.57499 12.6397C2.97793 12.6006 2.41468 12.3487 1.98753 11.9298C1.56038 11.5108 1.29765 10.9525 1.24707 10.3563C1.13707 9.06342 1.08249 7.93383 1.08249 6.96842C1.08249 6.01425 1.13582 4.9005 1.24291 3.62675C1.29361 3.02356 1.56143 2.45925 1.99667 2.03857C2.43192 1.61789 3.00501 1.3694 3.60957 1.33925V1.33925Z" stroke="white" stroke-width="1.5" stroke-linejoin="round"/>
<path d="M7.75 5.17085V8.83585C7.74997 8.90039 7.76744 8.96374 7.80055 9.01914C7.83365 9.07455 7.88115 9.11995 7.938 9.15051C7.99485 9.18107 8.05892 9.19565 8.1234 9.19271C8.18787 9.18976 8.25034 9.16939 8.30417 9.13377L11.0529 7.3171C11.102 7.28471 11.1424 7.24068 11.1704 7.18893C11.1984 7.13718 11.2132 7.07932 11.2134 7.02048C11.2137 6.96163 11.1994 6.90364 11.1718 6.85166C11.1443 6.79968 11.1043 6.75531 11.0554 6.72251L8.30625 4.87418C8.25252 4.83808 8.18999 4.81725 8.12534 4.81394C8.06069 4.81063 7.99636 4.82496 7.93923 4.85539C7.88209 4.88582 7.8343 4.93121 7.80097 4.9867C7.76764 5.04219 7.75002 5.1057 7.75 5.17043V5.17085Z" stroke="white" stroke-width="1.5" stroke-linejoin="round"/>
</svg>
