<svg width="128" height="30" viewBox="0 0 128 30" fill="none" xmlns="http://www.w3.org/2000/svg">
<g clip-path="url(#clip0_1086_4144)">
<path fill-rule="evenodd" clip-rule="evenodd" d="M21.1206 7.10538C19.3335 7.11353 17.8081 5.45049 17.8081 3.51842C17.8081 1.58636 19.3153 -0.0310323 21.1372 -0.0603801C23.012 -0.0913584 24.6401 1.63364 24.5838 3.6081C24.5341 5.46027 22.916 7.09723 21.1206 7.10538Z" fill="white"/>
<path fill-rule="evenodd" clip-rule="evenodd" d="M14.4558 9.19733L12.4384 15.8365L8.69366 28.6109V6.92613H2.11172C1.48387 6.58193 0.962555 6.0766 0.603245 5.46392C0.243935 4.85125 0.0600705 4.15415 0.0712181 3.44678C0.107656 1.23917 2.03388 0.135365 2.11172 0.0946045L17.1521 0.125583C16.2544 3.15276 15.3556 6.17667 14.4558 9.19733Z" fill="white"/>
<path fill-rule="evenodd" clip-rule="evenodd" d="M16.1766 18.6358C16.1766 15.8532 16.9451 13.7581 18.4821 12.3505C20.0191 10.9429 22.0381 10.2413 24.539 10.2456H24.7758V14.7032H24.5788C23.458 14.7032 22.6249 15.0195 22.0795 15.6521C21.534 16.2848 21.258 17.2793 21.2513 18.6358V27.8804H16.1766V18.6358Z" fill="white"/>
<path fill-rule="evenodd" clip-rule="evenodd" d="M43.8394 10.3158V19.5538C43.8394 22.4093 43.0582 24.556 41.4958 25.9941C39.9334 27.4321 37.8493 28.1544 35.2435 28.1609C32.6376 28.1609 30.5541 27.4403 28.9928 25.999C27.4315 24.5577 26.6503 22.4098 26.6492 19.5555V10.3158H31.7289V19.5538C31.7289 20.9788 32.0088 22.0256 32.5686 22.6941C33.1284 23.3625 34.02 23.6962 35.2435 23.6952C36.4707 23.6952 37.3601 23.3691 37.9216 22.6941C38.4831 22.0191 38.7564 20.9788 38.7564 19.5538V10.3158H43.8394Z" fill="white"/>
<path fill-rule="evenodd" clip-rule="evenodd" d="M49.5433 27.4695C48.3563 27.0698 47.298 26.3677 46.4759 25.4348C45.7035 24.5268 45.2942 23.3725 45.3248 22.1886H50.1694C50.1694 22.7494 50.5155 23.206 51.2029 23.5581C51.8902 23.9103 52.7713 24.0848 53.8396 24.0848C54.8566 24.0848 55.6449 23.9266 56.2047 23.6103C56.7646 23.2924 57.0445 22.8897 57.0461 22.3956C57.0478 21.9016 56.7331 21.5201 56.1087 21.3098C55.4843 21.0994 54.4806 20.8891 53.0993 20.6772C51.8075 20.4948 50.529 20.2306 49.2717 19.8864C48.2785 19.6084 47.3715 19.0906 46.6333 18.3799C45.8896 17.6625 45.5219 16.6516 45.5219 15.3424C45.5209 14.3348 45.9032 13.3634 46.5935 12.6195C47.3101 11.813 48.2807 11.182 49.5052 10.7266C50.8183 10.2512 52.2088 10.0169 53.6077 10.0353C55.9497 10.0353 57.8654 10.544 59.3549 11.5614C60.8444 12.5788 61.5876 13.9891 61.5842 15.7924H56.7364C56.7364 15.3032 56.4173 14.894 55.7791 14.5647C55.0828 14.2255 54.3132 14.0576 53.5365 14.0755C52.8113 14.0518 52.0918 14.2088 51.4447 14.532C50.8849 14.8386 50.6066 15.2234 50.6066 15.6929C50.6066 16.1136 50.9047 16.4282 51.5026 16.6402C52.1006 16.8522 53.0512 17.0494 54.3514 17.2418C55.6567 17.427 56.9494 17.6905 58.2221 18.031C59.2418 18.3135 60.1786 18.8311 60.9549 19.5407C61.7366 20.2549 62.1269 21.244 62.1258 22.5081C62.1523 24.382 61.391 25.7951 59.8419 26.7473C58.2927 27.6994 56.2539 28.175 53.7253 28.1739C52.3003 28.181 50.8849 27.9426 49.5433 27.4695Z" fill="white"/>
<path fill-rule="evenodd" clip-rule="evenodd" d="M70.2497 5.35107C68.6829 6.8576 67.0267 8.26629 65.1717 9.42716V10.3109H62.2749V14.7701H65.1684V19.5799C65.1684 22.4136 65.9413 24.5206 67.4871 25.9011C69.0329 27.2815 71.1226 27.9712 73.756 27.9701V23.5206C72.5072 23.5206 71.6095 23.2158 71.063 22.606C70.5164 21.9962 70.2404 20.9902 70.2348 19.588V14.775H73.7494V10.3157H70.2497V5.35107Z" fill="white"/>
<path fill-rule="evenodd" clip-rule="evenodd" d="M102.909 12.2136C104.528 13.6636 105.338 15.8054 105.338 18.6391V27.8804H100.254V18.6358C100.254 17.2315 99.9547 16.1902 99.3551 15.5119C98.7556 14.8337 97.817 14.4956 96.5395 14.4978C95.2896 14.4978 94.3593 14.8375 93.7487 15.5168C93.1381 16.1962 92.8295 17.2358 92.8229 18.6358V27.8804H87.7531V18.6358C87.7531 17.2315 87.4533 16.1902 86.8538 15.5119C86.2542 14.832 85.3134 14.4945 84.0381 14.4978C82.7628 14.5011 81.8585 14.8369 81.2457 15.5168C80.6329 16.1967 80.3281 17.2337 80.3281 18.6358V27.8804H75.2501V18.6358C75.2501 15.8098 76.0578 13.6679 77.6732 12.2103C79.2885 10.7527 81.4113 10.0266 84.0414 10.032C85.2612 10.0179 86.473 10.2263 87.6156 10.6467C88.6462 11.0235 89.5662 11.6452 90.2938 12.4565C91.0211 11.6457 91.9405 11.024 92.9703 10.6467C94.113 10.2267 95.3248 10.0183 96.5445 10.032C99.1735 10.0353 101.295 10.7625 102.909 12.2136Z" fill="white"/>
<path fill-rule="evenodd" clip-rule="evenodd" d="M112.481 17.2353C112.877 16.414 113.501 15.7198 114.281 15.2332C115.065 14.744 116 14.4962 117.097 14.4962C118.068 14.4913 119.022 14.752 119.851 15.2495C120.657 15.7142 121.303 16.4058 121.706 17.2353H112.481ZM127.134 18.7027C127.081 16.9256 126.553 15.3804 125.552 14.0674C124.56 12.7659 123.25 11.7331 121.743 11.0658C120.237 10.3817 118.598 10.0284 116.939 10.0304C115.185 10.0106 113.454 10.4386 111.918 11.2728C110.441 12.0586 109.2 13.2123 108.319 14.6185C107.457 15.9704 107.003 17.5355 107.01 19.1315C106.999 20.7387 107.468 22.3137 108.358 23.6609C109.262 25.0513 110.522 26.1832 112.01 26.9429C113.353 27.6467 114.836 28.0529 116.355 28.1332C116.386 28.0554 116.427 27.9815 116.476 27.9131C117.597 26.3478 118.803 24.8152 119.646 23.0837C119.409 23.2105 119.162 23.3195 118.909 23.4098C118.273 23.6146 117.605 23.7084 116.936 23.687C115.79 23.687 114.819 23.4348 114.024 22.9305C113.262 22.4665 112.711 21.7305 112.486 20.8761H126.981C127.11 20.1606 127.161 19.4337 127.134 18.7076V18.7027Z" fill="white"/>
</g>
<defs>
<clipPath id="clip0_1086_4144">
<rect width="127.2" height="30" fill="white"/>
</clipPath>
</defs>
</svg>
