<svg width="50" height="50" viewBox="0 0 50 50" fill="none" xmlns="http://www.w3.org/2000/svg">
<rect width="50" height="50" rx="4" fill="#F2F2F2"/>
<path d="M20 26.875L23.4771 23.3979M22.5 30.625L26.6021 26.5229M23.4771 23.3979L31.6256 16.4623C31.7908 16.3217 31.9777 16.2089 32.1791 16.1284L32.8335 15.8666C33.6499 15.5401 34.4599 16.3501 34.1334 17.1664L33.8716 17.8209C33.7911 18.0223 33.6783 18.2092 33.5377 18.3744L26.6021 26.5229M23.4771 23.3979C24.5188 23.4889 26.6021 24.2412 26.6021 26.5229" stroke="#393E46" stroke-width="2" stroke-linecap="round" stroke-linejoin="round"/>
<path d="M15.6066 31.6102C15.2099 29.4729 16.8503 27.5 19.0241 27.5V27.5C20.9438 27.5 22.5 29.0562 22.5 30.9759V31.25C22.5 33.3211 20.8211 35 18.75 35H14.9078C14.5411 35 14.3876 34.5316 14.6831 34.3145L15.698 33.5688C15.8445 33.4612 15.9164 33.2793 15.8833 33.1007L15.6066 31.6102Z" stroke="#393E46" stroke-width="2" stroke-linecap="round" stroke-linejoin="round"/>
</svg>
