<svg width="40" height="41" viewBox="0 0 40 41" fill="none" xmlns="http://www.w3.org/2000/svg">
<rect y="0.5" width="40" height="40" rx="4" fill="#E9204F"/>
<path d="M10 27.5C10 28.0523 10.4477 28.5 11 28.5C11.5523 28.5 12 28.0523 12 27.5H10ZM22 27.5C22 28.0523 22.4477 28.5 23 28.5C23.5523 28.5 24 28.0523 24 27.5H22ZM23 18.5C22.4477 18.5 22 18.9477 22 19.5C22 20.0523 22.4477 20.5 23 20.5V18.5ZM23 12.5C22.4477 12.5 22 12.9477 22 13.5C22 14.0523 22.4477 14.5 23 14.5V12.5ZM28 27.5C28 28.0523 28.4477 28.5 29 28.5C29.5523 28.5 30 28.0523 30 27.5H28ZM24.5 21.5C23.9477 21.5 23.5 21.9477 23.5 22.5C23.5 23.0523 23.9477 23.5 24.5 23.5V21.5ZM12 27.5V26.5H10V27.5H12ZM15 23.5H19V21.5H15V23.5ZM22 26.5V27.5H24V26.5H22ZM19 16.5C19 17.6046 18.1046 18.5 17 18.5V20.5C19.2091 20.5 21 18.7091 21 16.5H19ZM17 18.5C15.8954 18.5 15 17.6046 15 16.5H13C13 18.7091 14.7909 20.5 17 20.5V18.5ZM15 16.5C15 15.3954 15.8954 14.5 17 14.5V12.5C14.7909 12.5 13 14.2909 13 16.5H15ZM17 14.5C18.1046 14.5 19 15.3954 19 16.5H21C21 14.2909 19.2091 12.5 17 12.5V14.5ZM25 16.5C25 17.6046 24.1046 18.5 23 18.5V20.5C25.2091 20.5 27 18.7091 27 16.5H25ZM23 14.5C24.1046 14.5 25 15.3954 25 16.5H27C27 14.2909 25.2091 12.5 23 12.5V14.5ZM28 26.5V27.5H30V26.5H28ZM24.5 23.5H25V21.5H24.5V23.5ZM30 26.5C30 23.7386 27.7614 21.5 25 21.5V23.5C26.6569 23.5 28 24.8432 28 26.5H30ZM19 23.5C20.6569 23.5 22 24.8432 22 26.5H24C24 23.7386 21.7614 21.5 19 21.5V23.5ZM12 26.5C12 24.8432 13.3432 23.5 15 23.5V21.5C12.2386 21.5 10 23.7386 10 26.5H12Z" fill="white"/>
</svg>
