<svg width="40" height="40" viewBox="0 0 40 40" fill="none" xmlns="http://www.w3.org/2000/svg">
<rect width="40" height="40" rx="4" fill="#2E1A73"/>
<path d="M9 12V18H15" stroke="#FAFAFA" stroke-width="2" stroke-linecap="round" stroke-linejoin="round"/>
<path d="M11.51 23C12.1584 24.8404 13.3873 26.4202 15.0117 27.5014C16.636 28.5826 18.5677 29.1066 20.5157 28.9945C22.4637 28.8824 24.3226 28.1402 25.8121 26.8798C27.3017 25.6193 28.3413 23.909 28.7742 22.0064C29.2072 20.1038 29.0101 18.112 28.2126 16.3311C27.4152 14.5502 26.0605 13.0768 24.3528 12.1328C22.6451 11.1887 20.6769 10.8253 18.7447 11.0971C16.8125 11.369 15.0209 12.2614 13.64 13.64L9 18" stroke="#FAFAFA" stroke-width="2" stroke-linecap="round" stroke-linejoin="round"/>
</svg>
