<svg width="50" height="50" viewBox="0 0 50 50" fill="none" xmlns="http://www.w3.org/2000/svg">
<rect width="50" height="50" rx="4" fill="#F2F2F2"/>
<path d="M15 28.75L35 28.75" stroke="#393E46" stroke-width="2" stroke-linecap="round" stroke-linejoin="round"/>
<path d="M15 21.25L35 21.25" stroke="#393E46" stroke-width="2" stroke-linecap="round" stroke-linejoin="round"/>
<circle cx="25" cy="25" r="11.25" stroke="#393E46" stroke-width="2" stroke-linecap="round" stroke-linejoin="round"/>
<path d="M25 36.0227L24.2858 36.7226C24.4738 36.9146 24.7313 37.0227 25 37.0227C25.2687 37.0227 25.5262 36.9146 25.7142 36.7226L25 36.0227ZM25 13.9773L25.7142 13.2774C25.5262 13.0855 25.2687 12.9773 25 12.9773C24.7313 12.9773 24.4738 13.0855 24.2858 13.2774L25 13.9773ZM28.5 25C28.5 29.0193 26.8937 32.6615 24.2858 35.3228L25.7142 36.7226C28.6737 33.7026 30.5 29.5636 30.5 25H28.5ZM24.2858 14.6772C26.8937 17.3386 28.5 20.9807 28.5 25H30.5C30.5 20.4364 28.6737 16.2974 25.7142 13.2774L24.2858 14.6772ZM21.5 25C21.5 20.9807 23.1063 17.3386 25.7142 14.6772L24.2858 13.2774C21.3264 16.2974 19.5 20.4364 19.5 25H21.5ZM25.7142 35.3228C23.1063 32.6615 21.5 29.0193 21.5 25H19.5C19.5 29.5636 21.3264 33.7026 24.2858 36.7226L25.7142 35.3228Z" fill="#393E46"/>
</svg>
