<svg width="40" height="40" viewBox="0 0 40 40" fill="none" xmlns="http://www.w3.org/2000/svg">
<rect width="40" height="40" rx="4" fill="#5C45D1"/>
<path d="M19.0489 12.9271C19.3483 12.0057 20.6517 12.0057 20.9511 12.9271L22.2451 16.9098C22.379 17.3219 22.763 17.6008 23.1962 17.6008H27.3839C28.3527 17.6008 28.7554 18.8404 27.9717 19.4098L24.5838 21.8713C24.2333 22.126 24.0866 22.5773 24.2205 22.9894L25.5146 26.9721C25.8139 27.8935 24.7595 28.6596 23.9757 28.0902L20.5878 25.6287C20.2373 25.374 19.7627 25.374 19.4122 25.6287L16.0243 28.0902C15.2405 28.6596 14.1861 27.8935 14.4854 26.9721L15.7795 22.9894C15.9134 22.5773 15.7667 22.126 15.4162 21.8713L12.0283 19.4098C11.2446 18.8404 11.6473 17.6008 12.6161 17.6008H16.8038C17.237 17.6008 17.621 17.3219 17.7549 16.9098L19.0489 12.9271Z" stroke="white" stroke-width="2" stroke-linecap="round" stroke-linejoin="round"/>
</svg>
