<svg width="50" height="50" viewBox="0 0 50 50" fill="none" xmlns="http://www.w3.org/2000/svg">
<rect width="50" height="50" rx="4" fill="#F2F2F2"/>
<path d="M11.25 15V22.5H18.75" stroke="#393E46" stroke-width="2" stroke-linecap="round" stroke-linejoin="round"/>
<path d="M14.3875 28.75C15.198 31.0505 16.7342 33.0252 18.7646 34.3767C20.795 35.7282 23.2096 36.3832 25.6446 36.2431C28.0797 36.1029 30.4032 35.1752 32.2652 33.5997C34.1271 32.0242 35.4266 29.8862 35.9678 27.508C36.509 25.1297 36.2626 22.6399 35.2658 20.4139C34.2689 18.1878 32.5757 16.346 30.441 15.166C28.3064 13.9859 25.8461 13.5316 23.4308 13.8714C21.0156 14.2112 18.7761 15.3268 17.05 17.05L11.25 22.5" stroke="#393E46" stroke-width="2" stroke-linecap="round" stroke-linejoin="round"/>
</svg>
