<svg width="15" height="15" viewBox="0 0 15 15" fill="none" xmlns="http://www.w3.org/2000/svg">
<path d="M8.02697 11.348C9.00033 11.8379 10.1307 12.2035 11.4391 12.3908C12.0109 12.4726 12.5 12.011 12.5 11.4334V10.7808C12.5 10.3219 12.1877 9.92193 11.7425 9.81063L10.5493 9.51232C10.2085 9.42713 9.84802 9.52698 9.59964 9.77536L8.02697 11.348ZM8.02697 11.348C6.07968 10.368 4.76066 8.89062 3.90073 7.34927M3.90073 7.34927C3.16601 6.03236 2.76643 4.66873 2.59647 3.52864C2.51312 2.96948 2.96855 2.5 3.53389 2.5H4.1802C4.65688 2.5 5.06729 2.83646 5.16078 3.30388L5.52004 5.10021C5.58561 5.42807 5.48299 5.76701 5.24657 6.00343L3.90073 7.34927Z" stroke="white"/>
</svg>
