<svg width="50" height="50" viewBox="0 0 50 50" fill="none" xmlns="http://www.w3.org/2000/svg">
<rect width="50" height="50" rx="4" fill="#F2F2F2"/>
<path d="M29.4649 20.1356C29.9588 19.8886 30.1591 19.2879 29.9121 18.794C29.6651 18.3 29.0644 18.0998 28.5704 18.3468L29.4649 20.1356ZM28.5704 31.6532C29.0644 31.9002 29.6651 31.7 29.9121 31.206C30.1591 30.7121 29.9588 30.1114 29.4649 29.8644L28.5704 31.6532ZM17.5 27.75C15.9812 27.75 14.75 26.5188 14.75 25H12.75C12.75 27.6234 14.8766 29.75 17.5 29.75V27.75ZM14.75 25C14.75 23.4812 15.9812 22.25 17.5 22.25V20.25C14.8766 20.25 12.75 22.3766 12.75 25H14.75ZM21.302 24.217L29.4649 20.1356L28.5704 18.3468L20.4076 22.4282L21.302 24.217ZM17.5 22.25C18.5752 22.25 19.508 22.8668 19.9608 23.7705L21.7489 22.8747C20.9703 21.3205 19.3611 20.25 17.5 20.25V22.25ZM19.9608 23.7705C20.1455 24.1393 20.25 24.556 20.25 25H22.25C22.25 24.238 22.0698 23.5153 21.7489 22.8747L19.9608 23.7705ZM20.4076 27.5718L28.5704 31.6532L29.4649 29.8644L21.302 25.783L20.4076 27.5718ZM20.25 25C20.25 25.444 20.1455 25.8607 19.9608 26.2295L21.7489 27.1253C22.0698 26.4847 22.25 25.762 22.25 25H20.25ZM19.9608 26.2295C19.508 27.1332 18.5752 27.75 17.5 27.75V29.75C19.3611 29.75 20.9703 28.6795 21.7489 27.1253L19.9608 26.2295ZM35.25 17.5C35.25 19.0188 34.0188 20.25 32.5 20.25V22.25C35.1234 22.25 37.25 20.1234 37.25 17.5H35.25ZM32.5 20.25C30.9812 20.25 29.75 19.0188 29.75 17.5H27.75C27.75 20.1234 29.8766 22.25 32.5 22.25V20.25ZM29.75 17.5C29.75 15.9812 30.9812 14.75 32.5 14.75V12.75C29.8766 12.75 27.75 14.8766 27.75 17.5H29.75ZM32.5 14.75C34.0188 14.75 35.25 15.9812 35.25 17.5H37.25C37.25 14.8766 35.1234 12.75 32.5 12.75V14.75ZM35.25 32.5C35.25 34.0188 34.0188 35.25 32.5 35.25V37.25C35.1234 37.25 37.25 35.1234 37.25 32.5H35.25ZM32.5 35.25C30.9812 35.25 29.75 34.0188 29.75 32.5H27.75C27.75 35.1234 29.8766 37.25 32.5 37.25V35.25ZM29.75 32.5C29.75 30.9812 30.9812 29.75 32.5 29.75V27.75C29.8766 27.75 27.75 29.8766 27.75 32.5H29.75ZM32.5 29.75C34.0188 29.75 35.25 30.9812 35.25 32.5H37.25C37.25 29.8766 35.1234 27.75 32.5 27.75V29.75Z" fill="#393E46"/>
</svg>
