<svg width="50" height="50" viewBox="0 0 50 50" fill="none" xmlns="http://www.w3.org/2000/svg">
<rect width="50" height="50" rx="4" fill="#F2F2F2"/>
<path d="M36.5125 29.8625C35.7173 31.7431 34.4735 33.4002 32.8899 34.6891C31.3062 35.978 29.431 36.8593 27.4281 37.2559C25.4251 37.6526 23.3555 37.5527 21.4002 36.9647C19.4448 36.3768 17.6633 35.3188 16.2113 33.8833C14.7593 32.4478 13.681 30.6784 13.0708 28.7299C12.4606 26.7814 12.337 24.7131 12.7108 22.7058C13.0846 20.6985 13.9444 18.8133 15.2151 17.215C16.4858 15.6168 18.1286 14.3541 20 13.5375" stroke="#393E46" stroke-width="2" stroke-linecap="round" stroke-linejoin="round"/>
<path d="M37.5 25C37.5 23.3585 37.1767 21.733 36.5485 20.2165C35.9203 18.6999 34.9996 17.3219 33.8388 16.1612C32.6781 15.0004 31.3001 14.0797 29.7836 13.4515C28.267 12.8233 26.6415 12.5 25 12.5V25H37.5Z" stroke="#393E46" stroke-width="2" stroke-linecap="round" stroke-linejoin="round"/>
</svg>
