<svg width="18" height="19" viewBox="0 0 18 19" fill="none" xmlns="http://www.w3.org/2000/svg">
<path fill-rule="evenodd" clip-rule="evenodd" d="M5.28955 0.0888123C6.24927 0.0445124 6.55527 0.034668 9 0.034668C11.4447 0.034668 11.7507 0.0453328 12.7096 0.0888123C13.6685 0.132292 14.3231 0.285701 14.8958 0.508021C15.4955 0.735264 16.0396 1.09048 16.4896 1.54989C16.9478 2.00027 17.3013 2.545 17.5271 3.14715C17.7496 3.72141 17.9018 4.3777 17.946 5.33754C17.9902 6.30147 18 6.60829 18 9.05873C18 11.51 17.9894 11.8168 17.946 12.7791C17.9026 13.7389 17.7496 14.3952 17.5271 14.9695C17.3013 15.5717 16.9472 16.1174 16.4896 16.5684C16.0396 17.0278 15.4955 17.3822 14.8958 17.6086C14.3231 17.8318 13.6685 17.9844 12.7113 18.0287C11.7507 18.073 11.4447 18.0828 9 18.0828C6.55527 18.0828 6.24927 18.0721 5.28955 18.0287C4.33227 17.9852 3.67773 17.8318 3.105 17.6086C2.50439 17.3822 1.96022 17.0272 1.51036 16.5684C1.05249 16.1177 0.698167 15.5724 0.472091 14.9703C0.250364 14.3961 0.0981818 13.7398 0.054 12.7799C0.00981817 11.816 0 11.5092 0 9.05873C0 6.60747 0.0106364 6.30065 0.054 5.33918C0.0973636 4.3777 0.250364 3.72141 0.472091 3.14715C0.6985 2.54507 1.0531 1.99971 1.51118 1.54907C1.9604 1.09007 2.50402 0.734807 3.10418 0.508021C3.67691 0.285701 4.33145 0.133112 5.28873 0.0888123H5.28955ZM12.6368 1.71314C11.6877 1.66966 11.403 1.66064 9 1.66064C6.597 1.66064 6.31227 1.66966 5.36318 1.71314C4.48527 1.75334 4.00909 1.90019 3.69164 2.02406C3.27191 2.18814 2.97164 2.38257 2.65664 2.69841C2.35804 2.98968 2.12824 3.34427 1.98409 3.73618C1.86055 4.05448 1.71409 4.53193 1.674 5.41219C1.63064 6.36382 1.62164 6.64931 1.62164 9.05873C1.62164 11.4682 1.63064 11.7536 1.674 12.7053C1.71409 13.5855 1.86055 14.063 1.98409 14.3813C2.12809 14.7726 2.358 15.1278 2.65664 15.4191C2.94709 15.7185 3.30136 15.949 3.69164 16.0934C4.00909 16.2173 4.48527 16.3641 5.36318 16.4043C6.31227 16.4478 6.59618 16.4568 9 16.4568C11.4038 16.4568 11.6877 16.4478 12.6368 16.4043C13.5147 16.3641 13.9909 16.2173 14.3084 16.0934C14.7281 15.9293 15.0284 15.7349 15.3434 15.4191C15.642 15.1278 15.8719 14.7726 16.0159 14.3813C16.1395 14.063 16.2859 13.5855 16.326 12.7053C16.3694 11.7536 16.3784 11.4682 16.3784 9.05873C16.3784 6.64931 16.3694 6.36382 16.326 5.41219C16.2859 4.53193 16.1395 4.05448 16.0159 3.73618C15.8523 3.31533 15.6584 3.01425 15.3434 2.69841C15.0528 2.39903 14.6992 2.16862 14.3084 2.02406C13.9909 1.90019 13.5147 1.75334 12.6368 1.71314ZM7.85045 11.8406C8.49245 12.1086 9.20731 12.1447 9.87294 11.9429C10.5386 11.7411 11.1137 11.3139 11.5 10.7341C11.8864 10.1544 12.06 9.45815 11.9913 8.76431C11.9226 8.07047 11.6157 7.42207 11.1232 6.92987C10.8092 6.61524 10.4295 6.37433 10.0115 6.22448C9.59355 6.07462 9.14762 6.01956 8.70586 6.06325C8.2641 6.10694 7.83749 6.24829 7.45675 6.47714C7.07601 6.70598 6.75061 7.01662 6.50397 7.3867C6.25734 7.75677 6.09561 8.17707 6.03042 8.61734C5.96524 9.05761 5.99821 9.50689 6.12699 9.93285C6.25576 10.3588 6.47712 10.7508 6.77514 11.0807C7.07315 11.4106 7.4404 11.6701 7.85045 11.8406ZM5.72891 5.77889C6.15847 5.34818 6.66844 5.00652 7.2297 4.77342C7.79095 4.54032 8.3925 4.42034 9 4.42034C9.6075 4.42034 10.209 4.54032 10.7703 4.77342C11.3316 5.00652 11.8415 5.34818 12.2711 5.77889C12.7007 6.20961 13.0414 6.72094 13.2739 7.2837C13.5064 7.84645 13.626 8.44961 13.626 9.05873C13.626 9.66785 13.5064 10.271 13.2739 10.8338C13.0414 11.3965 12.7007 11.9079 12.2711 12.3386C11.4035 13.2084 10.2269 13.6971 9 13.6971C7.7731 13.6971 6.59646 13.2084 5.72891 12.3386C4.86136 11.4687 4.37398 10.2889 4.37398 9.05873C4.37398 7.82855 4.86136 6.64876 5.72891 5.77889ZM14.652 5.11111C14.7584 5.01043 14.8437 4.88935 14.9026 4.75505C14.9616 4.62075 14.993 4.47596 14.9952 4.32924C14.9973 4.18253 14.97 4.03688 14.915 3.90091C14.86 3.76495 14.7784 3.64143 14.6749 3.53768C14.5714 3.43392 14.4482 3.35204 14.3126 3.29688C14.177 3.24172 14.0317 3.2144 13.8854 3.21654C13.7391 3.21868 13.5947 3.25023 13.4607 3.30933C13.3268 3.36844 13.2061 3.45388 13.1056 3.56062C12.9103 3.76819 12.8034 4.04391 12.8076 4.32924C12.8117 4.61458 12.9266 4.88705 13.1279 5.08884C13.3291 5.29062 13.6008 5.40581 13.8854 5.40997C14.17 5.41413 14.445 5.30693 14.652 5.11111Z" fill="white"/>
</svg>
