<svg width="1440" height="206" viewBox="0 0 1440 206" fill="none" xmlns="http://www.w3.org/2000/svg">
<path d="M1440 27L1438.4 29.4047L1441.28 29.5855L1440 27ZM-0.21448 1.12845C0.622672 2.52633 1.47357 3.91952 2.33804 5.30778L2.76248 5.04348C1.89953 3.65767 1.05014 2.26695 0.21448 0.871554L-0.21448 1.12845ZM7.68228 13.5704C9.49981 16.2781 11.3692 18.9647 13.2893 21.6287L13.6949 21.3363C11.7781 18.6769 9.91183 15.9947 8.09742 13.2917L7.68228 13.5704ZM19.1629 29.5027C21.1596 32.0904 23.2045 34.6542 25.2964 37.1924L25.6822 36.8744C23.5937 34.3403 21.5522 31.7807 19.5588 29.1973L19.1629 29.5027ZM31.6629 44.6734C33.8176 47.126 36.0167 49.5521 38.2591 51.95L38.6243 51.6085C36.3854 49.2143 34.1898 46.7921 32.0385 44.3434L31.6629 44.6734ZM45.0854 59.0284C47.3891 61.3449 49.734 63.6324 52.1189 65.8892L52.4626 65.526C50.0813 63.2727 47.74 60.9887 45.44 58.6758L45.0854 59.0284ZM59.3535 72.5311C61.7954 74.7063 64.2756 76.8498 66.7928 78.9602L67.1141 78.577C64.6006 76.4699 62.1243 74.3296 59.6861 72.1578L59.3535 72.5311ZM74.4155 85.1596C76.9809 87.1833 79.5817 89.173 82.2166 91.1273L82.5145 90.7257C79.8835 88.7744 77.2867 86.7877 74.7251 84.767L74.4155 85.1596ZM90.1999 96.8664C92.8822 98.7349 95.597 100.567 98.3434 102.361L98.6169 101.943C95.8747 100.151 93.1639 98.3218 90.4857 96.4562L90.1999 96.8664ZM106.646 107.611C109.438 109.318 112.259 110.987 115.11 112.615L115.358 112.181C112.512 110.555 109.694 108.889 106.907 107.184L106.646 107.611ZM123.711 117.359C126.597 118.895 129.512 120.39 132.452 121.843L132.674 121.394C129.738 119.944 126.828 118.451 123.945 116.917L123.711 117.359ZM141.334 126.063C144.307 127.421 147.305 128.735 150.327 130.005L150.521 129.544C147.504 128.276 144.51 126.964 141.542 125.608L141.334 126.063ZM159.444 133.672C162.499 134.846 165.576 135.975 168.675 137.057L168.84 136.585C165.746 135.504 162.673 134.378 159.624 133.205L159.444 133.672ZM177.995 140.147C181.116 141.128 184.257 142.061 187.418 142.945L187.552 142.464C184.397 141.581 181.261 140.649 178.145 139.67L177.995 140.147ZM196.923 145.443C200.096 146.222 203.287 146.953 206.496 147.632L206.6 147.143C203.396 146.465 200.21 145.735 197.042 144.957L196.923 145.443ZM216.149 149.515C219.364 150.088 222.596 150.61 225.843 151.079L225.915 150.585C222.673 150.116 219.447 149.594 216.236 149.022L216.149 149.515ZM235.588 152.326C238.839 152.688 242.104 152.997 245.383 153.253L245.422 152.754C242.149 152.499 238.889 152.191 235.643 151.83L235.588 152.326ZM255.176 153.852C258.441 153.998 261.717 154.09 265.005 154.127L265.011 153.627C261.728 153.59 258.457 153.498 255.198 153.353L255.176 153.852ZM274.83 154.073C278.09 154.001 281.361 153.874 284.641 153.691L284.613 153.192C281.339 153.374 278.074 153.501 274.819 153.573L274.83 154.073ZM294.465 152.98C297.706 152.691 300.954 152.346 304.21 151.946L304.149 151.45C300.899 151.849 297.656 152.193 294.42 152.482L294.465 152.98ZM313.952 150.585C317.172 150.08 320.397 149.52 323.628 148.904L323.534 148.413C320.309 149.028 317.089 149.587 313.875 150.091L313.952 150.585ZM333.242 146.908C336.428 146.192 339.618 145.42 342.813 144.592L342.687 144.108C339.498 144.935 336.313 145.705 333.132 146.42L333.242 146.908ZM352.256 141.983C355.393 141.062 358.534 140.086 361.676 139.054L361.52 138.579C358.383 139.609 355.248 140.584 352.115 141.503L352.256 141.983ZM370.923 135.857C373.991 134.743 377.059 133.575 380.129 132.352L379.944 131.887C376.879 133.108 373.815 134.275 370.752 135.387L370.923 135.857ZM389.179 128.587C392.168 127.291 395.156 125.943 398.145 124.54L397.932 124.088C394.948 125.488 391.964 126.835 388.98 128.129L389.179 128.587ZM406.969 120.242C409.873 118.776 412.775 117.258 415.676 115.688L415.438 115.248C412.541 116.816 409.643 118.331 406.744 119.796L406.969 120.242ZM424.251 110.893C427.065 109.268 429.878 107.593 432.688 105.868L432.427 105.442C429.62 107.165 426.812 108.837 424.001 110.46L424.251 110.893ZM440.993 100.617C442.376 99.7167 443.758 98.8044 445.139 97.8797L444.861 97.4642C443.481 98.3877 442.101 99.2988 440.72 100.197L440.993 100.617ZM445.139 97.8797C446.52 96.9553 447.904 96.0414 449.292 95.138L449.019 94.7189C447.63 95.6236 446.243 96.5386 444.861 97.4642L445.139 97.8797ZM457.662 89.842C460.482 88.108 463.315 86.4157 466.162 84.7647L465.911 84.3322C463.061 85.9854 460.223 87.6798 457.4 89.4161L457.662 89.842ZM474.793 79.9059C477.698 78.3195 480.615 76.7747 483.544 75.271L483.315 74.8262C480.383 76.3318 477.462 77.8786 474.553 79.4671L474.793 79.9059ZM492.411 70.8606C495.392 69.4247 498.385 68.0303 501.388 66.6768L501.182 66.221C498.176 67.5762 495.179 68.9724 492.194 70.4101L492.411 70.8606ZM510.466 62.7222C513.516 61.4389 516.575 60.1968 519.644 58.9953L519.462 58.5297C516.389 59.7327 513.326 60.9764 510.272 62.2613L510.466 62.7222ZM528.907 55.5006C532.017 54.371 535.135 53.2821 538.261 52.2333L538.102 51.7593C534.972 52.8093 531.85 53.8996 528.736 55.0306L528.907 55.5006ZM547.683 49.1996C550.845 48.2238 554.013 47.2882 557.187 46.3922L557.052 45.911C553.874 46.8081 550.701 47.7448 547.535 48.7218L547.683 49.1996ZM566.743 43.8181C569.949 42.9954 573.159 42.2124 576.373 41.4683L576.261 40.9812C573.042 41.7261 569.828 42.5101 566.619 43.3337L566.743 43.8181ZM586.038 39.3502C589.279 38.6795 592.524 38.0476 595.77 37.4541L595.681 36.9622C592.43 37.5565 589.182 38.1891 585.937 38.8606L586.038 39.3502ZM605.522 35.7867C608.791 35.2662 612.062 34.7838 615.332 34.339L615.265 33.8435C611.99 34.2889 608.716 34.7718 605.443 35.2929L605.522 35.7867ZM625.153 33.1157C628.441 32.7434 631.729 32.4085 635.015 32.1104L634.97 31.6125C631.68 31.9109 628.389 32.2462 625.097 32.6188L625.153 33.1157ZM644.884 31.3246C648.185 31.0983 651.483 30.9085 654.777 30.7546L654.754 30.2551C651.456 30.4092 648.154 30.5992 644.85 30.8258L644.884 31.3246ZM664.675 30.3996C667.981 30.3166 671.283 30.2695 674.579 30.2574L674.577 29.7574C671.277 29.7695 667.972 29.8167 664.662 29.8997L664.675 30.3996ZM684.487 30.3265C687.793 30.3847 691.091 30.4777 694.383 30.6051L694.402 30.1054C691.107 29.978 687.805 29.8848 684.496 29.8266L684.487 30.3265ZM704.285 31.0923C707.583 31.2893 710.873 31.5204 714.153 31.7849L714.193 31.2865C710.909 31.0217 707.616 30.7904 704.315 30.5932L704.285 31.0923ZM724.033 32.6853C727.321 33.0194 730.598 33.3869 733.864 33.7871L733.924 33.2908C730.656 32.8902 727.375 32.5223 724.083 32.1878L724.033 32.6853ZM743.696 35.0955C746.971 35.5659 750.233 36.0689 753.48 36.604L753.562 36.1107C750.311 35.575 747.045 35.0715 743.767 34.6006L743.696 35.0955ZM763.24 38.3158C766.497 38.9219 769.738 39.5601 772.963 40.2297L773.065 39.7401C769.837 39.0699 766.592 38.431 763.331 37.8243L763.24 38.3158ZM782.629 42.3418C785.864 43.0839 789.08 43.8575 792.276 44.6618L792.398 44.1769C789.198 43.3717 785.979 42.5973 782.741 41.8544L782.629 42.3418ZM801.835 47.1746C805.038 48.053 808.221 48.9624 811.38 49.9019L811.523 49.4227C808.36 48.4821 805.174 47.5718 801.967 46.6924L801.835 47.1746ZM820.838 52.8251C823.995 53.8387 827.128 54.8823 830.234 55.9554L830.398 55.4828C827.287 54.4085 824.151 53.3637 820.99 52.3491L820.838 52.8251ZM839.572 59.297C842.673 60.4462 845.746 61.6249 848.79 62.8321L848.974 62.3673C845.927 61.1587 842.85 59.9787 839.745 58.8281L839.572 59.297ZM857.986 66.6034C861.04 67.8982 864.062 69.222 867.051 70.5739L867.257 70.1183C864.265 68.7648 861.239 67.4394 858.181 66.143L857.986 66.6034ZM876.019 74.7626C879.018 76.2088 881.98 77.6838 884.903 79.1863L885.132 78.7416C882.204 77.2371 879.239 75.7603 876.236 74.3122L876.019 74.7626ZM893.633 83.8174C896.553 85.4163 899.431 87.0432 902.265 88.6972L902.517 88.2654C899.679 86.6091 896.797 84.9799 893.873 83.3788L893.633 83.8174ZM910.758 93.8166C913.575 95.5704 916.345 97.3516 919.064 99.1589L919.341 98.7425C916.617 96.9324 913.844 95.1486 911.022 93.3921L910.758 93.8166ZM927.238 104.777C929.957 106.71 932.62 108.671 935.226 110.656L935.529 110.259C932.919 108.269 930.251 106.306 927.528 104.37L927.238 104.777ZM942.98 116.783C945.556 118.894 948.068 121.031 950.513 123.193L950.845 122.819C948.395 120.652 945.878 118.511 943.297 116.396L942.98 116.783ZM957.819 129.916C959.005 131.054 960.174 132.197 961.323 133.347L961.677 132.994C960.525 131.841 959.354 130.695 958.165 129.555L957.819 129.916ZM961.323 133.347C962.542 134.566 963.765 135.767 964.991 136.951L965.339 136.592C964.114 135.41 962.894 134.21 961.677 132.994L961.323 133.347ZM972.395 143.848C974.883 146.084 977.386 148.25 979.901 150.35L980.222 149.966C977.711 147.87 975.213 145.708 972.729 143.476L972.395 143.848ZM987.855 156.73C990.521 158.784 993.2 160.766 995.893 162.677L996.182 162.269C993.495 160.362 990.82 158.384 988.16 156.334L987.855 156.73ZM1004.26 168.359C1007.09 170.201 1009.94 171.968 1012.8 173.661L1013.06 173.231C1010.2 171.542 1007.36 169.778 1004.53 167.94L1004.26 168.359ZM1021.56 178.597C1024.55 180.197 1027.55 181.719 1030.56 183.166L1030.77 182.715C1027.77 181.272 1024.78 179.752 1021.8 178.156L1021.56 178.597ZM1039.69 187.314C1042.81 188.647 1045.93 189.902 1049.07 191.082L1049.24 190.614C1046.12 189.437 1043 188.184 1039.89 186.855L1039.69 187.314ZM1058.53 194.407C1061.75 195.457 1064.97 196.431 1068.2 197.331L1068.33 196.849C1065.11 195.952 1061.89 194.98 1058.69 193.931L1058.53 194.407ZM1077.93 199.811C1081.22 200.574 1084.51 201.262 1087.81 201.878L1087.9 201.386C1084.61 200.772 1081.32 200.085 1078.04 199.324L1077.93 199.811ZM1097.72 203.512C1101.06 203.989 1104.4 204.395 1107.74 204.733L1107.79 204.235C1104.45 203.899 1101.12 203.493 1097.79 203.017L1097.72 203.512ZM1117.76 205.539C1121.12 205.742 1124.48 205.876 1127.83 205.946L1127.84 205.446C1124.49 205.377 1121.14 205.242 1117.79 205.04L1117.76 205.539ZM1137.9 205.962C1141.26 205.903 1144.61 205.782 1147.97 205.6L1147.94 205.1C1144.59 205.282 1141.24 205.404 1137.89 205.462L1137.9 205.962ZM1158.01 204.873C1161.35 204.571 1164.69 204.211 1168.02 203.795L1167.96 203.299C1164.63 203.714 1161.3 204.074 1157.96 204.375L1158.01 204.873ZM1177.99 202.38C1181.31 201.854 1184.61 201.274 1187.91 200.642L1187.82 200.151C1184.52 200.782 1181.22 201.361 1177.91 201.887L1177.99 202.38ZM1197.77 198.596C1201.05 197.863 1204.31 197.081 1207.57 196.252L1207.44 195.768C1204.19 196.595 1200.93 197.376 1197.66 198.108L1197.77 198.596ZM1217.28 193.628C1220.52 192.706 1223.73 191.739 1226.93 190.73L1226.78 190.253C1223.59 191.261 1220.37 192.226 1217.15 193.147L1217.28 193.628ZM1236.49 187.578C1239.67 186.482 1242.83 185.346 1245.98 184.172L1245.8 183.704C1242.66 184.876 1239.5 186.011 1236.33 187.105L1236.49 187.578ZM1255.35 180.537C1258.48 179.281 1261.58 177.989 1264.67 176.663L1264.47 176.204C1261.39 177.528 1258.29 178.818 1255.17 180.073L1255.35 180.537ZM1273.85 172.584C1276.92 171.179 1279.96 169.743 1282.98 168.277L1282.76 167.827C1279.75 169.291 1276.71 170.726 1273.64 172.129L1273.85 172.584ZM1291.97 163.785C1294.97 162.241 1297.95 160.67 1300.89 159.075L1300.66 158.636C1297.71 160.229 1294.74 161.798 1291.74 163.34L1291.97 163.785ZM1309.68 154.194C1312.62 152.52 1315.52 150.824 1318.39 149.107L1318.14 148.678C1315.27 150.393 1312.37 152.087 1309.43 153.759L1309.68 154.194ZM1326.97 143.852C1329.84 142.056 1332.67 140.241 1335.45 138.412L1335.18 137.994C1332.39 139.821 1329.57 141.634 1326.71 143.429L1326.97 143.852ZM1343.82 132.79C1346.6 130.876 1349.34 128.951 1352.03 127.016L1351.74 126.61C1349.05 128.543 1346.32 130.466 1343.54 132.377L1343.82 132.79ZM1360.18 121.022C1362.88 118.996 1365.52 116.963 1368.1 114.928L1367.79 114.535C1365.21 116.568 1362.57 118.598 1359.88 120.623L1360.18 121.022ZM1376 108.557C1378.63 106.388 1381.19 104.221 1383.68 102.059L1383.35 101.682C1380.86 103.84 1378.31 106.005 1375.68 108.171L1376 108.557ZM1391.17 95.3953C1393.72 93.0647 1396.19 90.7469 1398.57 88.4478L1398.22 88.0882C1395.84 90.384 1393.38 92.6986 1390.83 95.0261L1391.17 95.3953ZM1405.69 81.3506C1408.08 78.8975 1410.35 76.4736 1412.51 74.0864L1412.14 73.7507C1409.98 76.1334 1407.71 78.553 1405.33 81.0021L1405.69 81.3506ZM1419.18 66.4172C1421.43 63.7005 1423.53 61.0463 1425.44 58.467L1425.04 58.1687C1423.13 60.7402 1421.04 63.3873 1418.79 66.0977L1419.18 66.4172ZM1431.18 50.163C1433.14 47.0892 1434.79 44.1599 1436.13 41.4013L1435.68 41.183C1434.35 43.9216 1432.71 46.8342 1430.76 49.8949L1431.18 50.163ZM1439.63 31.9749C1439.84 31.0418 1440 30.1413 1440.11 29.2753L1439.61 29.2155C1439.51 30.0619 1439.35 30.9446 1439.14 31.862L1439.63 31.9749Z" fill="#E9204F"/>
</svg>
