<svg width="9" height="9" viewBox="0 0 9 9" fill="none" xmlns="http://www.w3.org/2000/svg">
<path d="M8.5 4C8.36739 4 8.24021 4.05268 8.14645 4.14645C8.05268 4.24021 8 4.36739 8 4.5V7.5C8 7.63261 7.94732 7.75979 7.85355 7.85355C7.75979 7.94732 7.63261 8 7.5 8H1.5C1.36739 8 1.24021 7.94732 1.14645 7.85355C1.05268 7.75979 1 7.63261 1 7.5V1.5C1 1.36739 1.05268 1.24021 1.14645 1.14645C1.24021 1.05268 1.36739 1 1.5 1H4.5C4.63261 1 4.75979 0.947321 4.85355 0.853553C4.94732 0.759785 5 0.632608 5 0.5C5 0.367392 4.94732 0.240215 4.85355 0.146447C4.75979 0.0526784 4.63261 0 4.5 0H1.5C1.10218 0 0.720644 0.158035 0.43934 0.43934C0.158035 0.720644 0 1.10218 0 1.5V7.5C0 7.89782 0.158035 8.27936 0.43934 8.56066C0.720644 8.84196 1.10218 9 1.5 9H7.5C7.89782 9 8.27936 8.84196 8.56066 8.56066C8.84196 8.27936 9 7.89782 9 7.5V4.5C9 4.36739 8.94732 4.24021 8.85355 4.14645C8.75979 4.05268 8.63261 4 8.5 4Z" fill="#367BF5"/>
<path d="M6.49997 1H7.28997L4.14497 4.14C4.09811 4.18648 4.06091 4.24178 4.03552 4.30271C4.01014 4.36364 3.99707 4.42899 3.99707 4.495C3.99707 4.56101 4.01014 4.62636 4.03552 4.68729C4.06091 4.74822 4.09811 4.80352 4.14497 4.85C4.19145 4.89686 4.24675 4.93406 4.30768 4.95945C4.36861 4.98483 4.43396 4.9979 4.49997 4.9979C4.56598 4.9979 4.63133 4.98483 4.69226 4.95945C4.75319 4.93406 4.80849 4.89686 4.85497 4.85L7.99997 1.71V2.5C7.99997 2.63261 8.05265 2.75979 8.14642 2.85355C8.24018 2.94732 8.36736 3 8.49997 3C8.63258 3 8.75976 2.94732 8.85352 2.85355C8.94729 2.75979 8.99997 2.63261 8.99997 2.5V0.5C8.99997 0.367392 8.94729 0.240215 8.85352 0.146447C8.75976 0.0526784 8.63258 0 8.49997 0H6.49997C6.36736 0 6.24018 0.0526784 6.14642 0.146447C6.05265 0.240215 5.99997 0.367392 5.99997 0.5C5.99997 0.632608 6.05265 0.759785 6.14642 0.853553C6.24018 0.947321 6.36736 1 6.49997 1Z" fill="#367BF5"/>
</svg>
