<svg width="272" height="84" viewBox="0 0 272 84" fill="none" xmlns="http://www.w3.org/2000/svg">
<path fill-rule="evenodd" clip-rule="evenodd" d="M4.98644 1.58759C4.98644 1.6502 4.91572 1.70124 4.82868 1.70124C4.74164 1.70124 4.64168 1.77746 4.60564 1.87137C4.5696 1.96459 4.46216 2.04149 4.36696 2.04149C4.27176 2.04149 4.19356 2.09253 4.19356 2.15514C4.19356 2.21706 4.13848 2.2681 4.07184 2.2681C3.91476 2.2681 3.62644 2.55663 3.62644 2.71383C3.62644 2.78052 3.56252 2.83564 3.48364 2.83564C3.40476 2.83564 3.23884 2.9731 3.11508 3.14119C2.99132 3.30927 2.80092 3.52431 2.69144 3.61959C2.58264 3.71486 2.49356 3.85844 2.49356 3.93806C2.49356 4.01768 2.44256 4.08301 2.38 4.08301C2.31744 4.08301 2.26644 4.15923 2.26644 4.25314C2.26644 4.34705 2.21544 4.42326 2.15356 4.42326C2.091 4.42326 2.04 4.4777 2.04 4.54439C2.04 4.61108 1.91284 4.83225 1.75644 5.03708C1.60072 5.24123 1.47356 5.51548 1.47356 5.64681C1.47356 5.77747 1.42256 5.91561 1.36 5.9544C1.29744 5.99319 1.24644 6.16944 1.24644 6.34569C1.24644 6.52671 1.17232 6.69615 1.07644 6.7329C0.964917 6.77577 0.906437 6.95271 0.906437 7.24873C0.906437 7.49643 0.855437 7.73052 0.793557 7.76931C0.643277 7.86186 0.643277 10.5118 0.793557 10.6043C0.855437 10.6431 0.906437 10.8697 0.906437 11.1079C0.906437 11.3542 0.979877 11.6019 1.07644 11.6822C1.17028 11.7598 1.24644 11.9449 1.24644 12.0946C1.24644 12.2436 1.292 12.4539 1.34776 12.5628C1.40284 12.671 1.54224 12.9507 1.65648 13.1848C1.7714 13.4189 1.904 13.6101 1.95228 13.6101C2.00056 13.6101 2.04 13.6863 2.04 13.7802C2.04 13.8735 2.091 13.9503 2.15356 13.9503C2.21544 13.9503 2.26644 14.0307 2.26644 14.1293C2.26644 14.2273 2.4072 14.4492 2.57856 14.6213C2.74992 14.7935 2.99132 15.0705 3.11508 15.2365C3.23884 15.4025 3.3762 15.538 3.4204 15.538C3.46392 15.538 3.73252 15.768 4.01744 16.0484C4.30168 16.3294 4.61244 16.5587 4.70764 16.5587C4.80284 16.5587 4.9096 16.6356 4.94564 16.7289C5.00276 16.8779 5.89492 16.899 12.0251 16.899H19.04V40.0968C19.04 60.0451 19.0624 63.3027 19.2012 63.3558C19.4412 63.4483 19.8336 63.1965 19.8336 62.9495C19.8336 62.8304 19.8846 62.7018 19.9464 62.663C20.009 62.6249 20.06 62.3922 20.06 62.1458C20.06 61.9002 20.111 61.6994 20.1736 61.6994C20.2354 61.6994 20.2864 61.5422 20.2864 61.351C20.2864 61.1591 20.3633 60.9257 20.4564 60.8325C20.5503 60.7386 20.6264 60.516 20.6264 60.3371C20.6264 60.1581 20.6774 59.9798 20.74 59.941C20.8026 59.9029 20.8536 59.6987 20.8536 59.4878C20.8536 59.2768 20.9046 59.0727 20.9664 59.0339C21.029 58.9951 21.0814 58.8012 21.0834 58.6018C21.0854 58.4031 21.1623 58.1411 21.2534 58.0199C21.3452 57.8988 21.42 57.6565 21.42 57.481C21.42 57.3061 21.471 57.1625 21.5336 57.1625C21.5954 57.1625 21.6464 56.9835 21.6464 56.7658C21.6464 56.5473 21.6974 56.3683 21.76 56.3683C21.8226 56.3683 21.8736 56.1608 21.8736 55.907C21.8736 55.6477 21.9477 55.3707 22.0436 55.2748C22.1367 55.1815 22.2136 54.9298 22.2136 54.7161C22.2136 54.5017 22.2646 54.3268 22.3264 54.3268C22.389 54.3268 22.44 54.1513 22.44 53.9369C22.44 53.7219 22.491 53.515 22.5536 53.4762C22.6154 53.4381 22.6685 53.2693 22.6705 53.1012C22.6726 52.9331 22.7487 52.697 22.8405 52.5759C22.9316 52.4548 23.0064 52.1866 23.0064 51.9804C23.0064 51.7736 23.0574 51.6048 23.12 51.6048C23.1826 51.6048 23.2336 51.4041 23.2336 51.1584C23.2336 50.912 23.2846 50.6793 23.3464 50.6412C23.409 50.6024 23.46 50.4527 23.46 50.3078C23.46 50.1635 23.5362 49.9811 23.63 49.9035C23.7238 49.826 23.8 49.5932 23.8 49.3864C23.8 49.1795 23.851 48.9781 23.9136 48.9399C23.9754 48.9011 24.0264 48.6718 24.0264 48.4296C24.0264 48.1873 24.0774 47.9573 24.14 47.9192C24.2026 47.8804 24.2536 47.6776 24.2536 47.468C24.2536 47.2584 24.3073 47.0692 24.3726 47.0475C24.5011 47.0046 24.6949 46.3642 24.7867 45.679C24.818 45.4449 24.8894 45.2536 24.9451 45.2536C25.0009 45.2536 25.0464 45.0556 25.0464 44.814C25.0464 44.5616 25.1192 44.3139 25.2164 44.2329C25.3103 44.1553 25.3864 43.9192 25.3864 43.7089C25.3864 43.4979 25.4374 43.3258 25.5 43.3258C25.5626 43.3258 25.6136 43.1468 25.6136 42.9283C25.6136 42.7099 25.6612 42.5316 25.7196 42.5316C25.7781 42.5316 25.8604 42.3016 25.9026 42.0199C25.9447 41.7381 26.0243 41.4802 26.08 41.4462C26.1351 41.4122 26.18 41.2114 26.18 41.0005C26.18 40.7895 26.231 40.5854 26.2936 40.5466C26.3554 40.5085 26.4064 40.3009 26.4064 40.0866C26.4064 39.8715 26.4568 39.6959 26.5186 39.6959C26.5805 39.6959 26.6635 39.4911 26.7036 39.24C26.7437 38.9889 26.8206 38.7562 26.875 38.7228C26.9294 38.6895 26.9736 38.4894 26.9736 38.2785C26.9736 38.0675 27.0246 37.8633 27.0864 37.8246C27.149 37.7864 27.2 37.5789 27.2 37.3645C27.2 37.1495 27.2408 36.9739 27.2898 36.9739C27.4047 36.9739 27.7664 35.8075 27.7664 35.4387C27.7664 35.2849 27.8174 35.1597 27.88 35.1597C27.9426 35.1597 27.9949 34.9678 27.997 34.7344C27.999 34.5003 28.0752 34.2097 28.167 34.0886C28.2588 33.9674 28.3336 33.7538 28.3336 33.6136C28.3336 33.4727 28.3846 33.3264 28.4464 33.2883C28.509 33.2495 28.56 33.0712 28.56 32.8909C28.56 32.7112 28.611 32.5329 28.6736 32.4941C28.7354 32.4554 28.7864 32.2526 28.7864 32.043C28.7864 31.8341 28.8408 31.6442 28.9075 31.6224C28.9734 31.6 29.0571 31.3659 29.0924 31.1025C29.1278 30.8385 29.2006 30.6228 29.255 30.6228C29.3094 30.6228 29.3536 30.4472 29.3536 30.2328C29.3536 30.0178 29.4046 29.8109 29.4664 29.7721C29.529 29.7333 29.5814 29.5646 29.5834 29.3965C29.5854 29.2291 29.6623 28.9923 29.7534 28.8711C29.8452 28.7507 29.92 28.5111 29.92 28.3397C29.92 28.1682 29.971 27.996 30.0336 27.9572C30.0954 27.9191 30.1464 27.7401 30.1464 27.5605C30.1464 27.3808 30.1974 27.2018 30.26 27.1637C30.3226 27.125 30.3749 26.9562 30.377 26.7881C30.379 26.62 30.4552 26.3839 30.547 26.2627C30.6388 26.1416 30.7136 25.8735 30.7136 25.6673C30.7136 25.4611 30.7646 25.2923 30.8264 25.2923C30.889 25.2923 30.94 25.1168 30.94 24.9017C30.94 24.6874 30.991 24.4798 31.0536 24.4417C31.1154 24.4029 31.1664 24.194 31.1664 23.9776C31.1664 23.7319 31.231 23.5591 31.3364 23.5183C31.4323 23.4815 31.5064 23.3128 31.5064 23.1317C31.5064 22.9548 31.5574 22.7786 31.62 22.7404C31.6826 22.7017 31.7336 22.4975 31.7336 22.2866C31.7336 22.0756 31.7846 21.8714 31.8464 21.8327C31.909 21.7945 31.96 21.5673 31.96 21.3277C31.96 21.046 32.0198 20.8704 32.13 20.8275C32.2368 20.7867 32.3 20.6132 32.3 20.3621C32.3 20.1416 32.351 19.9613 32.4136 19.9613C32.4754 19.9613 32.5264 19.783 32.5264 19.5645C32.5264 19.3461 32.5774 19.1678 32.64 19.1678C32.7026 19.1678 32.7536 18.9432 32.7536 18.669C32.7536 18.3308 32.8079 18.1504 32.9235 18.1055C33.0215 18.0681 33.0936 17.8986 33.0936 17.7033C33.0936 17.5182 33.1446 17.3345 33.2064 17.2964C33.269 17.2576 33.32 17.0793 33.32 16.899C33.32 16.7193 33.371 16.541 33.4336 16.5022C33.4954 16.4635 33.5464 16.2532 33.5464 16.0341C33.5464 15.8149 33.6233 15.5591 33.7164 15.4652C33.8103 15.3719 33.8864 15.1229 33.8864 14.9133C33.8864 14.703 33.9374 14.4995 34 14.4607C34.0625 14.4219 34.1136 14.2368 34.1136 14.049C34.1136 13.8612 34.1897 13.6305 34.2836 13.5373C34.3767 13.4434 34.4536 13.246 34.4536 13.0984C34.4536 12.9507 34.5046 12.7983 34.5664 12.7595C34.629 12.7207 34.68 12.5165 34.68 12.3056C34.68 12.0946 34.731 11.8905 34.7936 11.8524C34.8554 11.8136 34.9064 11.638 34.9064 11.4617C34.9064 11.2848 34.9826 10.9949 35.0758 10.8159C35.1689 10.637 35.2458 10.3791 35.2458 10.243C35.2464 10.1062 35.2974 9.96258 35.36 9.9238C35.4226 9.88569 35.4735 9.70671 35.4735 9.52706C35.4735 9.34741 35.5246 9.16843 35.5864 9.13032C35.649 9.09154 35.7014 8.87173 35.7034 8.64104C35.7054 8.41103 35.7823 8.12386 35.8734 8.00273C35.9652 7.8816 36.04 7.66451 36.04 7.52025C36.04 7.37666 36.091 7.25893 36.1535 7.25893C36.2154 7.25893 36.2664 7.07996 36.2664 6.86152C36.2664 6.64307 36.3174 6.46478 36.38 6.46478C36.4426 6.46478 36.4949 6.27356 36.497 6.03947C36.499 5.80537 36.5751 5.5148 36.667 5.39367C36.7588 5.27322 36.8335 5.03368 36.8335 4.86219C36.8335 4.6907 36.8846 4.51853 36.9464 4.47975C37.009 4.44164 37.06 4.23408 37.06 4.01972C37.06 3.80468 37.111 3.62911 37.1735 3.62911C37.2354 3.62911 37.2885 3.48893 37.2905 3.31744C37.2925 3.14595 37.3687 2.90641 37.4605 2.78528C37.6305 2.56004 37.6808 1.9748 37.5578 1.6536C37.4748 1.43788 4.98644 1.37187 4.98644 1.58759ZM148.4 13.7598C147.958 14.2076 147.274 14.8547 146.879 15.1977C146.485 15.5407 146.046 15.9367 145.903 16.0769C145.76 16.2171 145.599 16.3321 145.544 16.3321C145.489 16.3321 145.381 16.4512 145.304 16.5962C145.226 16.7418 145 16.9555 144.803 17.0705C144.605 17.1855 144.361 17.3733 144.26 17.4863C144.159 17.5999 144.042 17.6931 144 17.6931C143.957 17.6931 143.8 17.8081 143.65 17.9483C143.251 18.3219 143.044 18.4873 142.975 18.4873C142.941 18.4873 142.724 18.6656 142.493 18.884C142.262 19.1025 142.025 19.2808 141.968 19.2808C141.911 19.2808 141.695 19.4597 141.49 19.6782C141.284 19.8966 141.053 20.0749 140.977 20.0749C140.901 20.0749 140.671 20.2028 140.467 20.3587C140.262 20.5145 140.052 20.6418 139.999 20.6418C139.947 20.6418 139.83 20.7438 139.74 20.8691C139.65 20.9936 139.52 21.0957 139.45 21.0957C138.931 21.0957 138.494 21.802 138.494 22.6411V23.4774H135.55C132.757 23.4774 132.602 23.4883 132.49 23.6966C132.253 24.1403 132.337 33.3904 132.58 33.6109C132.762 33.7749 133.145 33.7987 135.637 33.7987H138.486L138.518 40.0308C138.542 44.8304 138.583 46.2955 138.691 46.4051C138.779 46.4922 138.834 46.8624 138.834 47.368C138.834 47.8198 138.885 48.2206 138.946 48.2594C139.009 48.2975 139.06 48.6038 139.06 48.9399C139.06 49.2754 139.111 49.5817 139.174 49.6204C139.235 49.6586 139.286 49.8879 139.286 50.1295C139.286 50.3704 139.363 50.6446 139.456 50.7385C139.55 50.8317 139.626 51.0652 139.626 51.2564C139.626 51.4483 139.677 51.6048 139.74 51.6048C139.803 51.6048 139.854 51.7157 139.854 51.8505C139.854 52.1492 140.201 52.9658 140.328 52.9658C140.378 52.9658 140.42 53.0577 140.42 53.17C140.42 53.4238 140.674 53.9845 140.789 53.9859C140.835 53.9866 140.874 54.0594 140.874 54.1485C140.874 54.2377 140.937 54.3785 141.015 54.4609C141.093 54.5432 141.233 54.7637 141.326 54.9509C141.42 55.138 141.524 55.3163 141.559 55.3476C141.594 55.3789 141.772 55.6075 141.956 55.8552C142.619 56.7494 144.499 58.5235 144.784 58.5235C144.877 58.5235 144.954 58.5936 144.954 58.68C144.954 58.7658 145.119 58.9046 145.321 58.9876C145.524 59.0706 145.791 59.2326 145.915 59.3469C146.186 59.596 146.743 59.8845 146.954 59.8845C147.038 59.8845 147.106 59.9356 147.106 59.9982C147.106 60.0601 147.208 60.1111 147.334 60.1111C147.458 60.1111 147.56 60.1526 147.56 60.203C147.56 60.3303 148.377 60.6787 148.674 60.6787C148.81 60.6787 148.92 60.7297 148.92 60.7916C148.92 60.8542 149.076 60.9053 149.268 60.9053C149.459 60.9053 149.692 60.9815 149.786 61.0754C149.879 61.1693 150.102 61.2455 150.281 61.2455C150.46 61.2455 150.638 61.2966 150.676 61.3592C150.715 61.4211 150.948 61.4721 151.193 61.4721C151.439 61.4721 151.64 61.5232 151.64 61.5858C151.64 61.6504 151.977 61.6994 152.424 61.6994C152.95 61.6994 153.223 61.7457 153.255 61.841C153.321 62.0404 157.251 62.1132 157.485 61.9192C157.621 61.8063 157.646 61.004 157.646 56.9345V52.0846L157.368 51.9015C157.176 51.7763 156.828 51.7178 156.263 51.7157C155.808 51.7144 155.232 51.6592 154.984 51.5932C154.734 51.5272 154.38 51.4442 154.198 51.4095C153.285 51.236 151.3 49.7654 151.3 49.2625C151.3 49.1747 151.223 49.0733 151.13 49.0373C151.036 49.0019 150.96 48.8528 150.96 48.7072C150.96 48.5616 150.909 48.4112 150.846 48.3724C150.785 48.3343 150.734 48.1778 150.734 48.0253C150.734 47.8736 150.683 47.7491 150.62 47.7491C150.557 47.7491 150.506 47.551 150.506 47.3088C150.506 47.0563 150.434 46.8093 150.336 46.7283C150.19 46.6058 150.166 45.7382 150.166 40.1927V33.7987H153.679C156.838 33.7987 157.214 33.7789 157.419 33.6034C157.697 33.3645 157.784 23.8871 157.51 23.6135C157.41 23.5135 156.422 23.4774 153.77 23.4774H150.166V18.2035V12.9296L149.685 12.9378C149.242 12.9446 149.14 13.0099 148.4 13.7598ZM113.191 22.7581C113.02 22.7874 112.88 22.8595 112.88 22.9181C112.88 22.9773 112.286 23.0235 111.52 23.0235C110.772 23.0235 110.16 23.0705 110.16 23.1277C110.16 23.1848 109.841 23.2576 109.451 23.2896C108.356 23.3801 107.845 23.4917 107.746 23.6619C107.696 23.7476 107.482 23.8177 107.271 23.8177C107.06 23.8177 106.855 23.8687 106.816 23.9313C106.778 23.9933 106.574 24.0443 106.364 24.0443C106.153 24.0443 105.949 24.0953 105.91 24.1579C105.871 24.2206 105.722 24.2716 105.577 24.2716C105.433 24.2716 105.251 24.3478 105.174 24.4417C105.096 24.5349 104.94 24.6118 104.826 24.6118C104.713 24.6118 104.589 24.6629 104.55 24.7248C104.511 24.7874 104.381 24.8385 104.26 24.8385C104.139 24.8385 104.04 24.8895 104.04 24.9521C104.04 25.014 103.937 25.0651 103.809 25.0651C103.683 25.0651 103.55 25.142 103.514 25.2352C103.478 25.3291 103.327 25.4053 103.178 25.4053C103.029 25.4053 102.906 25.4564 102.906 25.519C102.906 25.5816 102.838 25.6326 102.753 25.6326C102.669 25.6326 102.462 25.7599 102.294 25.9157C102.126 26.0722 101.914 26.1995 101.824 26.1995C101.734 26.1995 101.66 26.2505 101.66 26.3131C101.66 26.375 101.606 26.4261 101.538 26.4261C101.382 26.4261 101.094 26.7146 101.094 26.8718C101.094 26.9385 101.009 26.9936 100.907 26.9936C100.804 26.9936 100.546 27.1719 100.334 27.3904C100.123 27.6088 99.9226 27.7871 99.8899 27.7871C99.8022 27.7871 99.5064 28.0988 99.5064 28.1913C99.5064 28.2349 99.4139 28.3539 99.3004 28.4547C99.1868 28.5554 98.9971 28.8038 98.8795 29.0066C98.7611 29.2093 98.6245 29.3754 98.5755 29.3754C98.5259 29.3754 98.3973 29.5795 98.2899 29.8286C98.1818 30.0784 98.0539 30.2825 98.0063 30.2825C97.9587 30.2825 97.92 30.3785 97.92 30.4955C97.92 30.6125 97.8431 30.7718 97.75 30.8494C97.6561 30.9269 97.58 31.0835 97.58 31.1971C97.58 31.3107 97.529 31.4346 97.4664 31.4734C97.4045 31.5122 97.3535 31.7163 97.3535 31.9273C97.3535 32.1382 97.3025 32.3424 97.24 32.3805C97.1699 32.4241 97.1264 33.3625 97.1264 34.8194C97.1264 36.2757 97.1699 37.2148 97.24 37.2577C97.3025 37.2965 97.3535 37.504 97.3535 37.7198C97.3535 38.075 97.4202 38.275 97.7119 38.7888C97.7649 38.8821 97.837 39.0352 97.8731 39.1291C98.0553 39.6075 98.5429 40.4554 98.7292 40.6167C98.8448 40.7174 98.94 40.8344 98.94 40.8766C98.94 40.9188 99.2011 41.1937 99.5207 41.4877C99.8396 41.781 100.235 42.1498 100.399 42.307C100.562 42.4642 100.837 42.6643 101.009 42.7514C101.18 42.8385 101.32 42.9528 101.32 43.0046C101.32 43.0563 101.393 43.0985 101.482 43.0985C101.571 43.0985 101.711 43.1624 101.793 43.2407C101.876 43.3183 102.097 43.4585 102.284 43.5524C102.471 43.6456 102.649 43.7477 102.68 43.779C102.815 43.9137 103.614 44.2329 103.817 44.2329C103.94 44.2329 104.04 44.2839 104.04 44.3465C104.04 44.4084 104.155 44.4615 104.295 44.4636C104.435 44.4656 104.649 44.5418 104.77 44.6337C104.891 44.7249 105.13 44.7997 105.301 44.7997C105.473 44.7997 105.645 44.8508 105.684 44.9134C105.722 44.976 105.98 45.027 106.257 45.027C106.534 45.027 106.76 45.0781 106.76 45.14C106.76 45.2026 106.985 45.2536 107.26 45.2536C107.536 45.2536 107.778 45.304 107.799 45.3652C107.845 45.5007 108.743 45.7116 109.594 45.7858C109.936 45.8157 110.265 45.8872 110.325 45.9444C110.384 46.0008 110.722 46.0478 111.077 46.0478C111.431 46.0478 111.867 46.124 112.046 46.2172C112.224 46.3105 112.66 46.3867 113.015 46.3874C113.37 46.3874 113.691 46.4391 113.73 46.501C113.769 46.5636 114.049 46.6147 114.354 46.6147C114.658 46.6147 114.938 46.6657 114.976 46.7283C115.015 46.7902 115.371 46.8413 115.767 46.8413C116.21 46.8413 116.504 46.8916 116.532 46.9719C116.555 47.0441 116.865 47.1271 117.22 47.1563C117.576 47.1856 117.866 47.2543 117.866 47.3094C117.866 47.3639 118.096 47.4088 118.376 47.4088C118.657 47.4088 118.886 47.4598 118.886 47.5218C118.886 47.5844 119.033 47.6354 119.213 47.6354C119.392 47.6354 119.602 47.7116 119.68 47.8055C119.757 47.8988 119.917 47.9757 120.034 47.9757C120.151 47.9757 120.246 48.0267 120.246 48.0893C120.246 48.1512 120.297 48.2023 120.359 48.2023C120.535 48.2023 121.04 48.68 121.04 48.8467C121.04 48.9291 121.091 48.9964 121.154 48.9964C121.218 48.9964 121.266 49.3367 121.266 49.7906C121.266 50.2438 121.218 50.584 121.154 50.584C121.091 50.584 121.04 50.6657 121.04 50.7657C121.04 50.9699 120.337 51.7184 120.144 51.7184C120.076 51.7184 120.019 51.7566 120.019 51.8035C120.018 51.9022 119.472 52.1723 119.273 52.1723C119.199 52.1723 119.108 52.2486 119.072 52.3425C119.034 52.4418 118.865 52.5126 118.663 52.5126C118.474 52.5126 118.32 52.5636 118.32 52.6256C118.32 52.6882 118.043 52.7392 117.703 52.7392C117.364 52.7392 117.055 52.7902 117.016 52.8529C116.974 52.9216 116.149 52.9658 114.92 52.9658C113.691 52.9658 112.866 52.9216 112.824 52.8529C112.785 52.7902 112.479 52.7392 112.144 52.7392C111.808 52.7392 111.502 52.6882 111.464 52.6256C111.425 52.5636 111.223 52.5126 111.015 52.5126C110.784 52.5126 110.612 52.4466 110.572 52.3425C110.537 52.2486 110.403 52.1723 110.277 52.1723C110.15 52.1723 110.046 52.1213 110.046 52.0587C110.046 51.9961 109.919 51.9451 109.764 51.9451C109.608 51.9451 109.48 51.894 109.48 51.8321C109.48 51.7695 109.405 51.7184 109.315 51.7184C109.135 51.7184 108.006 50.6582 108.006 50.4895C108.006 50.4323 107.93 50.3214 107.836 50.2438C107.743 50.1662 107.666 49.9845 107.666 49.8396C107.666 49.6953 107.615 49.5456 107.554 49.5068C107.491 49.468 107.44 49.3374 107.44 49.2162C107.44 49.0019 107.309 48.9964 101.993 48.9964H96.5457L96.5953 50.2159C96.6511 51.5973 96.8109 52.5391 96.9986 52.6017C97.0693 52.6256 97.1264 52.8188 97.1264 53.0325C97.1264 53.2455 97.1774 53.4197 97.24 53.4197C97.3025 53.4197 97.3535 53.5442 97.3535 53.6967C97.3535 53.8491 97.4045 54.0049 97.4664 54.0437C97.529 54.0818 97.58 54.2125 97.58 54.3336C97.58 54.4548 97.6561 54.5541 97.75 54.5541C97.8561 54.5541 97.92 54.661 97.92 54.8372C97.92 54.9937 97.971 55.121 98.0335 55.121C98.0954 55.121 98.1464 55.1904 98.1464 55.2748C98.1464 55.3592 98.2743 55.566 98.43 55.7341C98.5857 55.9022 98.7135 56.0812 98.7135 56.1315C98.7135 56.1826 98.9427 56.4704 99.2235 56.7719C99.5037 57.0734 99.7335 57.3612 99.7335 57.4116C99.7335 57.4619 99.7852 57.5028 99.8485 57.5028C99.9117 57.5028 100.18 57.7239 100.443 57.9948C100.707 58.2656 101.013 58.5194 101.121 58.5582C101.231 58.5977 101.32 58.6828 101.32 58.7467C101.32 58.8114 101.396 58.8638 101.49 58.8638C101.583 58.8638 101.66 58.9148 101.66 58.9774C101.66 59.0393 101.736 59.0904 101.83 59.0904C101.923 59.0904 102 59.1414 102 59.204C102 59.2666 102.097 59.3177 102.215 59.3177C102.332 59.3177 102.458 59.3939 102.494 59.4878C102.53 59.581 102.638 59.6579 102.733 59.6579C102.828 59.6579 102.906 59.709 102.906 59.7709C102.906 59.8335 102.975 59.8845 103.059 59.8845C103.254 59.8845 103.902 60.2057 103.988 60.3452C104.024 60.4038 104.152 60.4514 104.273 60.4514C104.394 60.4514 104.494 60.5024 104.494 60.565C104.494 60.6276 104.621 60.6787 104.776 60.6787C104.933 60.6787 105.06 60.7297 105.06 60.7916C105.06 60.8542 105.233 60.9053 105.445 60.9053C105.681 60.9053 105.854 60.9706 105.894 61.0754C105.932 61.1741 106.102 61.2455 106.296 61.2455C106.482 61.2455 106.665 61.2966 106.704 61.3592C106.742 61.4211 106.92 61.4721 107.1 61.4721C107.279 61.4721 107.458 61.5232 107.496 61.5858C107.535 61.6484 107.771 61.6994 108.021 61.6994C108.274 61.6994 108.552 61.775 108.646 61.8696C108.751 61.9737 109.028 62.0397 109.368 62.0397C109.672 62.0397 109.951 62.0907 109.99 62.1526C110.029 62.2153 110.411 62.2663 110.84 62.2663C111.269 62.2663 111.651 62.3173 111.69 62.3799C111.78 62.5262 118.006 62.5344 118.155 62.3881C118.215 62.3303 118.646 62.2554 119.114 62.2214C120.962 62.0853 121.395 62.0186 121.456 61.8587C121.498 61.7491 121.707 61.6994 122.122 61.6994C122.454 61.6994 122.758 61.6484 122.796 61.5858C122.835 61.5232 123.013 61.4721 123.194 61.4721C123.373 61.4721 123.551 61.4211 123.59 61.3592C123.629 61.2966 123.781 61.2455 123.929 61.2455C124.076 61.2455 124.273 61.1693 124.367 61.0754C124.46 60.9822 124.665 60.9053 124.822 60.9053C124.979 60.9053 125.138 60.8542 125.176 60.7916C125.215 60.7297 125.371 60.6787 125.523 60.6787C125.676 60.6787 125.8 60.6276 125.8 60.565C125.8 60.5024 125.896 60.4514 126.013 60.4514C126.13 60.4514 126.289 60.3752 126.366 60.2813C126.444 60.188 126.578 60.1111 126.664 60.1111C126.75 60.1111 126.82 60.0601 126.82 59.9982C126.82 59.9356 126.948 59.8845 127.104 59.8845C127.259 59.8845 127.386 59.8335 127.386 59.7709C127.386 59.709 127.465 59.6579 127.561 59.6579C127.656 59.6579 127.763 59.581 127.799 59.4878C127.835 59.3939 127.961 59.3177 128.079 59.3177C128.197 59.3177 128.294 59.2666 128.294 59.204C128.294 59.1414 128.37 59.0904 128.464 59.0904C128.557 59.0904 128.634 59.0393 128.634 58.9774C128.634 58.9148 128.71 58.8638 128.804 58.8638C128.897 58.8638 128.974 58.8114 128.974 58.7467C128.974 58.6828 129.056 58.5977 129.158 58.5589C129.358 58.482 130.56 57.2986 130.56 57.1782C130.56 57.1387 130.739 56.9053 130.956 56.6596C131.175 56.4146 131.354 56.1465 131.354 56.0642C131.354 55.9825 131.405 55.9151 131.466 55.9151C131.529 55.9151 131.58 55.811 131.58 55.6844C131.58 55.5579 131.656 55.4245 131.75 55.3891C131.843 55.353 131.92 55.2013 131.92 55.0522C131.92 54.9025 131.971 54.7807 132.034 54.7807C132.095 54.7807 132.146 54.6814 132.146 54.5609C132.146 54.4398 132.197 54.3091 132.26 54.2703C132.323 54.2316 132.375 54.0376 132.377 53.8382C132.379 53.6395 132.455 53.3775 132.547 53.2564C132.648 53.1217 132.714 52.7821 132.714 52.384C132.714 52.0254 132.765 51.7001 132.826 51.662C132.892 51.6211 132.94 50.9821 132.94 50.1308C132.94 49.2788 132.892 48.6405 132.826 48.5997C132.765 48.5609 132.714 48.2295 132.714 47.8634C132.714 47.4231 132.656 47.1407 132.544 47.0277C132.45 46.9345 132.374 46.7011 132.374 46.5092C132.374 46.318 132.323 46.1608 132.26 46.1608C132.197 46.1608 132.146 46.0335 132.146 45.8777C132.146 45.7218 132.101 45.5939 132.046 45.5939C131.99 45.5939 131.913 45.4666 131.874 45.3101C131.834 45.1543 131.752 45.027 131.691 45.027C131.63 45.027 131.58 44.925 131.58 44.7997C131.58 44.6752 131.529 44.5731 131.466 44.5731C131.405 44.5731 131.354 44.5187 131.354 44.4513C131.354 44.2948 131.065 44.0063 130.908 44.0063C130.841 44.0063 130.786 43.9552 130.786 43.8933C130.786 43.7177 130.309 43.2121 130.143 43.2121C130.061 43.2121 129.994 43.1577 129.994 43.0903C129.994 42.9603 129.715 42.6453 129.6 42.6453C129.561 42.6453 129.402 42.5173 129.246 42.3615C129.09 42.2057 128.889 42.0777 128.798 42.0777C128.708 42.0777 128.634 42.0362 128.634 41.9858C128.634 41.9348 128.455 41.8232 128.236 41.7375C128.018 41.6517 127.839 41.5279 127.839 41.4612C127.838 41.3196 127.314 41.057 127.033 41.057C126.927 41.057 126.822 41.0188 126.801 40.9719C126.739 40.8331 126.025 40.4901 125.797 40.4901C125.682 40.4901 125.555 40.4391 125.516 40.3764C125.478 40.3145 125.322 40.2635 125.17 40.2635C125.018 40.2635 124.894 40.2152 124.894 40.1566C124.894 40.0981 124.663 40.0158 124.382 39.9736C124.101 39.9314 123.843 39.8518 123.808 39.7967C123.774 39.7415 123.546 39.6959 123.3 39.6959C123.054 39.6959 122.854 39.6449 122.854 39.583C122.854 39.5204 122.66 39.4693 122.422 39.4693C122.186 39.4693 121.938 39.4156 121.872 39.3496C121.806 39.2836 121.463 39.1999 121.109 39.1631C120.756 39.1264 120.44 39.0529 120.407 38.9998C120.374 38.946 120.072 38.9025 119.736 38.9025C119.401 38.9025 119.095 38.8514 119.056 38.7888C119.018 38.7262 118.697 38.6738 118.342 38.6718C117.955 38.6697 117.609 38.6017 117.477 38.5017C117.348 38.4043 117.01 38.3349 116.661 38.3349C116.334 38.3349 116.035 38.2839 115.996 38.222C115.958 38.1594 115.575 38.1083 115.146 38.1083C114.717 38.1083 114.335 38.0573 114.296 37.9947C114.258 37.9328 113.937 37.8797 113.582 37.8776C113.195 37.8756 112.849 37.8075 112.717 37.7075C112.596 37.6163 112.303 37.5415 112.065 37.5415C111.827 37.5415 111.634 37.4904 111.634 37.4278C111.634 37.3652 111.455 37.3142 111.236 37.3142C111.018 37.3142 110.84 37.2631 110.84 37.2012C110.84 37.1386 110.661 37.0876 110.444 37.0876C110.225 37.0876 110.046 37.0433 110.046 36.9896C110.046 36.9358 109.824 36.8065 109.553 36.7031C109.205 36.5704 108.996 36.3968 108.847 36.1206C108.731 35.9035 108.596 35.7266 108.548 35.7266C108.375 35.7266 108.452 34.7017 108.63 34.6337C108.723 34.5976 108.8 34.501 108.8 34.4193C108.8 34.2464 109.662 33.3448 109.827 33.3448C109.888 33.3448 110.14 33.2175 110.386 33.061C110.633 32.9052 110.935 32.7779 111.058 32.7779C111.18 32.7779 111.308 32.7323 111.342 32.6765C111.574 32.3009 117.3 32.3009 117.3 32.6765C117.3 32.7323 117.417 32.7779 117.56 32.7779C117.826 32.7779 119.209 33.4366 119.507 33.7061C119.874 34.0369 120.015 34.1389 120.108 34.1389C120.161 34.1389 120.274 34.3172 120.36 34.5357C120.446 34.7541 120.557 34.9324 120.607 34.9324C120.658 34.9324 120.7 35.0814 120.7 35.2638C120.7 36.0035 120.301 35.9532 126.209 35.9532H131.58V34.3723C131.58 33.4407 131.534 32.7623 131.466 32.7208C131.405 32.6826 131.354 32.5003 131.354 32.3159C131.354 32.1314 131.31 31.8919 131.257 31.7837C131.203 31.6755 131.071 31.3829 130.96 31.1331C130.851 30.8834 130.716 30.5908 130.661 30.4826C130.606 30.3744 130.56 30.2083 130.56 30.1137C130.56 30.0198 130.509 29.9422 130.446 29.9422C130.385 29.9422 130.334 29.8735 130.334 29.7898C130.334 29.7061 130.206 29.489 130.05 29.308C129.894 29.1263 129.767 28.9419 129.767 28.8984C129.766 28.8541 129.639 28.6908 129.484 28.535C129.328 28.3791 129.2 28.224 129.2 28.1906C129.2 28.0954 128.079 26.9936 127.981 26.9936C127.933 26.9936 127.798 26.8657 127.681 26.7098C127.564 26.554 127.412 26.4261 127.342 26.4261C127.274 26.4261 127.038 26.2723 126.82 26.0851C126.602 25.898 126.334 25.7163 126.225 25.6809C126.116 25.6455 126.026 25.5693 126.026 25.5115C126.026 25.4529 125.899 25.4053 125.744 25.4053C125.588 25.4053 125.46 25.3584 125.46 25.3005C125.46 25.1794 124.82 24.8385 124.592 24.8385C124.509 24.8385 124.44 24.7874 124.44 24.7248C124.44 24.6629 124.335 24.6118 124.205 24.6118C124.076 24.6118 123.894 24.5349 123.801 24.4417C123.707 24.3478 123.535 24.2716 123.419 24.2716C123.302 24.2716 123.175 24.2206 123.136 24.1579C123.098 24.0953 122.891 24.0443 122.677 24.0443C122.462 24.0443 122.286 23.9933 122.286 23.9313C122.286 23.8687 122.13 23.8177 121.938 23.8177C121.747 23.8177 121.514 23.7408 121.421 23.6476C121.327 23.5537 121.079 23.4774 120.869 23.4774C120.659 23.4774 120.455 23.4264 120.416 23.3638C120.378 23.3019 120.046 23.2508 119.68 23.2508C119.313 23.2508 118.982 23.1998 118.944 23.1372C118.902 23.0705 118.247 23.0235 117.359 23.0235C116.325 23.0235 115.832 22.9827 115.803 22.8942C115.757 22.7588 113.78 22.6554 113.191 22.7581ZM178.16 22.7595C177.942 22.7888 177.715 22.8602 177.655 22.9187C177.596 22.9766 176.924 23.0235 176.161 23.0235C175.358 23.0235 174.744 23.0719 174.704 23.1372C174.665 23.1998 174.359 23.2508 174.024 23.2508C173.688 23.2508 173.382 23.3019 173.344 23.3638C173.305 23.4264 173.071 23.4774 172.823 23.4774C172.528 23.4774 172.351 23.536 172.308 23.6476C172.267 23.7524 172.095 23.8177 171.858 23.8177C171.646 23.8177 171.474 23.8687 171.474 23.9313C171.474 23.9933 171.295 24.0443 171.076 24.0443C170.858 24.0443 170.68 24.0953 170.68 24.1579C170.68 24.2206 170.556 24.2716 170.405 24.2716C170.254 24.2716 170.053 24.3478 169.959 24.4417C169.866 24.5349 169.712 24.6118 169.618 24.6118C169.524 24.6118 169.415 24.6629 169.376 24.7248C169.338 24.7874 169.208 24.8385 169.087 24.8385C168.966 24.8385 168.866 24.884 168.866 24.9398C168.866 24.995 168.739 25.0725 168.584 25.112C168.428 25.1508 168.3 25.2331 168.3 25.2944C168.3 25.3556 168.207 25.4053 168.095 25.4053C167.982 25.4053 167.791 25.4972 167.67 25.6095C167.549 25.7217 167.284 25.9116 167.081 26.0314C166.879 26.1505 166.714 26.2886 166.714 26.3376C166.714 26.3866 166.65 26.4274 166.571 26.4281C166.494 26.4288 166.272 26.5697 166.078 26.7398C165.885 26.9106 165.592 27.1515 165.427 27.2753C165.262 27.3992 165.126 27.5652 165.126 27.6442C165.126 27.7231 165.075 27.7871 165.011 27.7871C164.896 27.7871 163.766 28.8732 163.766 28.9848C163.766 29.0181 163.639 29.1726 163.484 29.3284C163.328 29.4849 163.2 29.6632 163.2 29.7252C163.2 29.7878 163.098 29.9477 162.974 30.0818C162.848 30.2158 162.746 30.4179 162.746 30.5309C162.746 30.6439 162.68 30.7364 162.597 30.7364C162.516 30.7364 162.379 30.9147 162.294 31.1331C162.208 31.3516 162.096 31.5299 162.045 31.5299C161.995 31.5299 161.954 31.636 161.954 31.7653C161.954 31.8939 161.877 32.0763 161.784 32.1702C161.69 32.2635 161.614 32.4383 161.614 32.5588C161.614 32.6792 161.563 32.7779 161.5 32.7779C161.437 32.7779 161.386 32.9052 161.386 33.061C161.386 33.2175 161.335 33.3448 161.274 33.3448C161.211 33.3448 161.16 33.4918 161.16 33.6714C161.16 33.8504 161.083 34.0614 160.99 34.1389C160.892 34.2199 160.82 34.4669 160.82 34.7194C160.82 34.9617 160.769 35.1597 160.706 35.1597C160.645 35.1597 160.594 35.4101 160.594 35.717C160.594 36.0239 160.545 36.2921 160.485 36.3125C160.053 36.4642 159.778 61.4334 160.204 61.86C160.473 62.1295 170.838 62.1322 171.221 61.8628L171.474 61.6865V50.6412C171.474 43.3999 171.512 39.5721 171.586 39.5258C171.649 39.4877 171.7 39.1529 171.7 38.782C171.7 38.4118 171.749 38.1083 171.808 38.1083C171.868 38.1083 171.95 37.9293 171.991 37.7116C172.032 37.4931 172.111 37.3142 172.166 37.3142C172.222 37.3142 172.266 37.1869 172.266 37.0311C172.266 36.8752 172.317 36.7473 172.38 36.7473C172.443 36.7473 172.494 36.6418 172.494 36.5125C172.494 36.3832 172.557 36.2104 172.635 36.128C172.713 36.0457 172.876 35.8422 172.996 35.6755C173.358 35.176 173.59 34.9324 173.706 34.9324C173.766 34.9324 173.883 34.8051 173.966 34.6493C174.05 34.4935 174.212 34.3655 174.325 34.3655C174.44 34.3655 174.534 34.3261 174.534 34.2771C174.534 34.2288 174.789 34.0899 175.1 33.9688C175.411 33.8477 175.666 33.7089 175.666 33.6599C175.666 33.6115 175.784 33.5714 175.928 33.5714C176.071 33.5714 176.236 33.5244 176.295 33.4673C176.625 33.1488 181.56 33.1488 181.56 33.4673C181.56 33.5244 181.684 33.5714 181.837 33.5714C181.989 33.5714 182.142 33.619 182.178 33.6762C182.213 33.734 182.395 33.8143 182.581 33.8552C182.768 33.8967 182.92 33.977 182.92 34.0341C182.92 34.092 183.022 34.1389 183.146 34.1389C183.272 34.1389 183.374 34.19 183.374 34.2519C183.374 34.3145 183.45 34.3655 183.544 34.3655C183.637 34.3655 183.714 34.4036 183.714 34.4506C183.714 34.4976 183.893 34.6568 184.111 34.8051C184.328 34.9542 184.506 35.1229 184.506 35.1815C184.506 35.24 184.685 35.4761 184.902 35.7055C185.12 35.9355 185.299 36.2097 185.299 36.3152C185.299 36.4207 185.351 36.5384 185.414 36.5772C185.475 36.616 185.526 36.7208 185.526 36.8113C185.526 36.9018 185.654 37.24 185.81 37.5632C185.966 37.8865 186.094 38.3424 186.094 38.5765C186.094 38.8106 186.145 39.0338 186.206 39.0726C186.281 39.1182 186.32 43.0243 186.32 50.4207C186.32 58.3656 186.356 61.6994 186.442 61.6994C186.508 61.6994 186.64 61.7757 186.733 61.8696C187.008 62.1452 197.195 62.122 197.664 61.8451L197.994 61.6504V50.4023C197.994 40.6459 198.016 39.1121 198.163 38.8303C198.256 38.6514 198.332 38.3397 198.333 38.1369C198.333 37.9341 198.385 37.7681 198.446 37.7681C198.509 37.7681 198.56 37.615 198.56 37.4278C198.56 37.2407 198.611 37.0876 198.674 37.0876C198.735 37.0876 198.786 36.9882 198.786 36.8678C198.786 36.7466 198.836 36.6167 198.897 36.5792C198.958 36.5418 199.091 36.3342 199.193 36.1185C199.296 35.9028 199.424 35.7266 199.479 35.7266C199.535 35.7266 199.58 35.668 199.58 35.5959C199.58 35.4033 200.953 34.1389 201.162 34.1389C201.22 34.1389 201.508 34.011 201.801 33.8552C202.094 33.6993 202.428 33.5714 202.543 33.5714C202.659 33.5714 202.754 33.5244 202.754 33.4673C202.754 33.4094 203.149 33.3325 203.631 33.2958C206.066 33.11 206.298 33.1039 206.416 33.2223C206.483 33.2897 206.885 33.3448 207.31 33.3448C207.747 33.3448 208.08 33.3938 208.08 33.4584C208.08 33.5203 208.204 33.5714 208.357 33.5714C208.509 33.5714 208.662 33.619 208.698 33.6762C208.733 33.734 208.915 33.8143 209.101 33.8552C209.288 33.8967 209.44 33.9647 209.44 34.0069C209.44 34.0491 209.602 34.1553 209.801 34.243C210.218 34.4281 211.594 35.796 211.594 36.026C211.594 36.1104 211.645 36.1804 211.706 36.1804C211.769 36.1804 211.82 36.2757 211.82 36.3934C211.82 36.5105 211.896 36.6697 211.99 36.7473C212.083 36.8249 212.16 36.9814 212.16 37.0951C212.16 37.208 212.206 37.3291 212.261 37.3632C212.37 37.4312 212.463 37.8824 212.592 38.9841C212.637 39.372 212.737 39.7524 212.814 39.8286C212.922 39.9375 212.954 42.3867 212.954 50.8277V61.6865L213.205 61.8628C213.504 62.0723 223.46 62.1329 223.996 61.9288L224.286 61.8185V50.1335C224.286 43.061 224.246 38.4486 224.182 38.4486C224.125 38.4486 224.053 38.0532 224.023 37.5694C223.952 36.403 223.761 35.3434 223.613 35.2937C223.547 35.272 223.494 35.0569 223.494 34.8167C223.494 34.5758 223.443 34.3472 223.38 34.3091C223.317 34.2703 223.266 34.1389 223.266 34.0171C223.266 33.7946 223.24 33.7238 222.889 33.0236C222.785 32.816 222.7 32.5738 222.7 32.4846C222.7 32.3962 222.649 32.324 222.586 32.324C222.525 32.324 222.474 32.226 222.474 32.1063C222.474 31.8606 222.121 31.1917 221.991 31.1903C221.945 31.1903 221.906 31.0875 221.906 30.963C221.906 30.8385 221.855 30.7364 221.794 30.7364C221.731 30.7364 221.68 30.6718 221.68 30.5935C221.68 30.5146 221.553 30.3124 221.396 30.1444C221.241 29.9763 221.114 29.8075 221.114 29.7687C221.114 29.7306 221.05 29.6279 220.971 29.5414C220.674 29.208 220.546 29.0426 220.546 28.9848C220.546 28.9018 218.646 26.9936 218.564 26.9936C218.527 26.9936 218.436 26.9412 218.36 26.8779C217.732 26.3471 217.525 26.1995 217.408 26.1995C217.333 26.1995 217.231 26.1328 217.18 26.0518C217.043 25.8279 216.398 25.4053 216.194 25.4053C216.094 25.4053 216.014 25.3658 216.014 25.3182C216.014 25.2699 215.822 25.1365 215.589 25.0215C215.355 24.9072 215.074 24.7677 214.966 24.7126C214.858 24.6568 214.699 24.6118 214.612 24.6118C214.525 24.6118 214.391 24.5349 214.314 24.4417C214.236 24.3478 214.051 24.2716 213.903 24.2716C213.755 24.2716 213.634 24.2206 213.634 24.1579C213.634 24.0953 213.455 24.0443 213.236 24.0443C213.018 24.0443 212.84 23.9933 212.84 23.9313C212.84 23.8687 212.684 23.8177 212.492 23.8177C212.301 23.8177 212.067 23.7415 211.974 23.6476C211.88 23.5537 211.657 23.4774 211.479 23.4774C211.3 23.4774 211.122 23.4264 211.084 23.3638C211.045 23.3019 210.714 23.2508 210.346 23.2508C209.98 23.2508 209.649 23.1998 209.61 23.1372C209.569 23.0712 208.936 23.0235 208.096 23.0235C207.106 23.0235 206.608 22.98 206.513 22.8847C206.323 22.6942 204.284 22.6942 204.094 22.8847C204.001 22.9773 203.548 23.0235 202.737 23.0235C202.048 23.0235 201.489 23.0732 201.45 23.1372C201.411 23.1998 201.105 23.2508 200.77 23.2508C200.435 23.2508 200.129 23.3019 200.09 23.3638C200.051 23.4264 199.874 23.4774 199.695 23.4774C199.516 23.4774 199.293 23.5537 199.199 23.6476C199.106 23.7408 198.873 23.8177 198.682 23.8177C198.49 23.8177 198.334 23.8687 198.334 23.9313C198.334 23.9933 198.155 24.0443 197.936 24.0443C197.718 24.0443 197.54 24.0953 197.54 24.1579C197.54 24.2206 197.416 24.2716 197.265 24.2716C197.114 24.2716 196.913 24.3478 196.819 24.4417C196.726 24.5349 196.608 24.6112 196.557 24.6112C196.385 24.6105 195.444 25.1202 195.352 25.2638C195.303 25.342 195.163 25.4053 195.041 25.4053C194.919 25.4053 194.82 25.4564 194.82 25.519C194.82 25.5816 194.754 25.6326 194.674 25.6326C194.593 25.6326 194.338 25.8109 194.107 26.0293C193.875 26.2478 193.647 26.4261 193.599 26.4261C193.552 26.4261 193.206 26.7201 192.83 27.0787L192.146 27.7306L191.853 27.4468C191.692 27.291 191.32 26.9596 191.026 26.7098C190.733 26.4601 190.434 26.2022 190.361 26.1362C190.289 26.0708 190.064 25.9191 189.861 25.8C189.659 25.6809 189.494 25.5435 189.494 25.4945C189.494 25.4455 189.389 25.4053 189.263 25.4053C189.137 25.4053 189.003 25.3291 188.968 25.2352C188.932 25.142 188.806 25.0651 188.688 25.0651C188.57 25.0651 188.473 25.027 188.472 24.98C188.471 24.8909 187.933 24.6118 187.763 24.6118C187.709 24.6118 187.587 24.5349 187.494 24.4417C187.4 24.3478 187.2 24.2716 187.048 24.2716C186.897 24.2716 186.774 24.2206 186.774 24.1579C186.774 24.0953 186.595 24.0443 186.376 24.0443C186.158 24.0443 185.98 23.9933 185.98 23.9313C185.98 23.8687 185.824 23.8177 185.632 23.8177C185.441 23.8177 185.207 23.7408 185.114 23.6476C185.02 23.5537 184.797 23.4774 184.619 23.4774C184.44 23.4774 184.262 23.4264 184.224 23.3638C184.185 23.3019 183.85 23.2508 183.48 23.2508C183.106 23.2508 182.806 23.1998 182.806 23.1372C182.806 23.0685 182.304 23.0235 181.526 23.0235C180.806 23.0235 180.195 22.9732 180.13 22.9079C179.997 22.7745 178.747 22.6806 178.16 22.7595ZM247.804 22.7684C247.617 22.7935 247.415 22.8616 247.355 22.9187C247.296 22.9766 246.646 23.0235 245.91 23.0235C245.094 23.0235 244.574 23.0678 244.574 23.1372C244.574 23.1998 244.296 23.2508 243.957 23.2508C243.617 23.2508 243.309 23.3019 243.27 23.3638C243.231 23.4264 243.03 23.4774 242.822 23.4774C242.591 23.4774 242.419 23.5434 242.379 23.6476C242.336 23.7598 242.158 23.8177 241.857 23.8177C241.605 23.8177 241.4 23.8687 241.4 23.9313C241.4 23.9933 241.222 24.0443 241.004 24.0443C240.785 24.0443 240.606 24.0953 240.606 24.1579C240.606 24.2206 240.483 24.2716 240.332 24.2716C240.18 24.2716 239.979 24.3478 239.886 24.4417C239.792 24.5349 239.61 24.6118 239.482 24.6118C239.352 24.6118 239.246 24.6629 239.246 24.7248C239.246 24.7874 239.187 24.8385 239.114 24.8385C238.903 24.8385 238.114 25.2134 238.114 25.3141C238.114 25.3645 238.012 25.4053 237.886 25.4053C237.762 25.4053 237.66 25.4564 237.66 25.519C237.66 25.5816 237.591 25.6326 237.506 25.6326C237.422 25.6326 237.215 25.7599 237.047 25.9157C236.879 26.0722 236.642 26.1995 236.521 26.1995C236.399 26.1995 236.3 26.2396 236.3 26.2886C236.3 26.3376 236.134 26.4751 235.931 26.5942C235.729 26.7132 235.508 26.8643 235.442 26.9303C235.375 26.9963 235.133 27.178 234.904 27.3339C234.675 27.4897 234.488 27.6557 234.487 27.702C234.487 27.749 234.431 27.7871 234.364 27.7871C234.199 27.7871 231.785 30.2376 231.426 30.7684C231.271 30.9991 231.105 31.1889 231.059 31.1889C231.012 31.1896 230.974 31.2434 230.974 31.308C230.974 31.3734 230.846 31.5639 230.69 31.7327C230.534 31.9007 230.406 32.1022 230.406 32.1811C230.406 32.2594 230.365 32.324 230.315 32.324C230.264 32.324 230.152 32.5023 230.066 32.7208C229.981 32.9392 229.844 33.1182 229.762 33.1182C229.68 33.1182 229.614 33.2168 229.614 33.338C229.614 33.4591 229.563 33.5898 229.5 33.6286C229.437 33.6667 229.386 33.7973 229.386 33.9184C229.386 34.0396 229.335 34.1389 229.274 34.1389C229.211 34.1389 229.16 34.2424 229.16 34.3689C229.16 34.4955 229.083 34.6289 228.99 34.665C228.896 34.7003 228.82 34.8017 228.82 34.8895C228.82 34.9773 228.769 35.1508 228.706 35.2747C228.432 35.8211 228.391 35.9239 228.315 36.2676C228.272 36.4676 228.189 36.6602 228.131 36.6963C228.074 36.7317 228.026 36.9079 228.026 37.0876C228.026 37.2672 227.975 37.4462 227.914 37.4843C227.851 37.5231 227.8 37.7517 227.8 37.992C227.8 38.2329 227.74 38.4499 227.667 38.4738C227.593 38.4989 227.512 38.8269 227.483 39.2223C227.455 39.6095 227.388 39.9545 227.333 39.9879C227.204 40.0675 227.202 45.4476 227.331 45.5272C227.384 45.5605 227.457 45.9069 227.492 46.2969C227.527 46.6868 227.611 47.0243 227.678 47.0468C227.745 47.0692 227.8 47.2584 227.8 47.468C227.8 47.6776 227.851 47.8804 227.914 47.9192C227.975 47.9573 228.026 48.1363 228.026 48.3159C228.026 48.4956 228.077 48.6745 228.14 48.7127C228.203 48.7514 228.254 48.8692 228.254 48.9746C228.254 49.0801 228.331 49.3129 228.424 49.4911C228.517 49.6701 228.594 49.9124 228.594 50.0301C228.594 50.1478 228.645 50.2438 228.706 50.2438C228.769 50.2438 228.82 50.3479 228.82 50.4745C228.82 50.6011 228.896 50.7344 228.99 50.7698C229.083 50.8059 229.16 50.9576 229.16 51.1067C229.16 51.2564 229.211 51.3782 229.274 51.3782C229.335 51.3782 229.386 51.4803 229.386 51.6048C229.386 51.73 229.432 51.8321 229.487 51.8321C229.542 51.8321 229.617 51.9212 229.654 52.0301C229.733 52.2683 229.939 52.5888 230.209 52.8964C230.317 53.0203 230.406 53.1822 230.406 53.255C230.406 53.3278 230.534 53.4837 230.69 53.6007C230.846 53.7178 230.974 53.8688 230.974 53.9369C230.974 54.0043 231.127 54.2343 231.315 54.4486C231.503 54.6623 231.847 55.0611 232.08 55.3347C232.72 56.0873 233.619 56.9338 233.779 56.9345C233.856 56.9352 233.92 56.9937 233.92 57.0638C233.92 57.1979 234.144 57.4177 234.662 57.7933C234.828 57.9145 235.032 58.0771 235.115 58.1547C235.196 58.2329 235.319 58.2969 235.385 58.2969C235.452 58.2969 235.506 58.3398 235.506 58.3922C235.506 58.4446 235.685 58.5841 235.904 58.7018C236.122 58.8189 236.3 58.955 236.3 59.0033C236.3 59.0509 236.402 59.0904 236.526 59.0904C236.652 59.0904 236.754 59.1414 236.754 59.204C236.754 59.2666 236.83 59.3177 236.924 59.3177C237.017 59.3177 237.094 59.3673 237.094 59.4286C237.094 59.4898 237.221 59.5722 237.376 59.611C237.533 59.6504 237.66 59.728 237.66 59.7831C237.66 59.8389 237.759 59.8845 237.88 59.8845C238.001 59.8845 238.131 59.9356 238.17 59.9982C238.209 60.0601 238.334 60.1111 238.448 60.1111C238.562 60.1111 238.685 60.188 238.721 60.2813C238.757 60.3752 238.89 60.4514 239.017 60.4514C239.143 60.4514 239.246 60.5024 239.246 60.565C239.246 60.6276 239.397 60.6787 239.58 60.6787C239.763 60.6787 239.945 60.7297 239.984 60.7916C240.022 60.8542 240.156 60.9053 240.281 60.9053C240.407 60.9053 240.586 60.9815 240.679 61.0754C240.773 61.1693 240.974 61.2455 241.125 61.2455C241.276 61.2455 241.4 61.2966 241.4 61.3592C241.4 61.4211 241.578 61.4721 241.796 61.4721C242.015 61.4721 242.194 61.5232 242.194 61.5858C242.194 61.6484 242.401 61.6994 242.655 61.6994C242.914 61.6994 243.19 61.7736 243.286 61.8696C243.391 61.9744 243.669 62.0397 244.015 62.0397C244.322 62.0397 244.574 62.0907 244.574 62.1526C244.574 62.218 244.914 62.2663 245.366 62.2663C245.82 62.2663 246.16 62.3146 246.16 62.3799C246.16 62.8787 247.956 62.3439 247.969 61.841C247.971 61.7627 248.025 61.6994 248.086 61.6994C248.149 61.6994 248.201 61.6355 248.202 61.5572C248.203 61.4796 248.382 61.2122 248.599 60.9631C248.816 60.7141 248.994 60.4208 248.994 60.3112C248.994 60.201 249.048 60.1111 249.115 60.1111C249.272 60.1111 249.56 59.8226 249.56 59.6661C249.56 59.5987 249.611 59.5443 249.674 59.5443C249.735 59.5443 249.786 59.4422 249.786 59.3177C249.786 59.1924 249.827 59.0904 249.877 59.0904C249.988 59.0904 251.146 57.4361 251.146 57.2775C251.146 57.2142 251.197 57.1625 251.26 57.1625C251.323 57.1625 251.374 57.0842 251.374 56.989C251.374 56.893 251.45 56.7855 251.544 56.7501C251.637 56.714 251.714 56.6133 251.714 56.5269C251.714 56.4398 251.765 56.3683 251.826 56.3683C251.889 56.3683 251.94 56.2996 251.94 56.2152C251.94 56.1309 252.062 55.9301 252.21 55.7695C252.359 55.6096 252.549 55.321 252.634 55.1291C252.719 54.9379 252.827 54.7807 252.874 54.7807C252.921 54.7807 252.96 54.6841 252.96 54.5657C252.96 54.448 253.037 54.3221 253.13 54.286C253.223 54.2499 253.301 54.1553 253.303 54.0757C253.304 53.9954 253.405 53.8028 253.526 53.6463C253.649 53.4905 253.749 53.2788 253.751 53.1768C253.752 53.074 253.83 52.9611 253.924 52.925C254.017 52.8889 254.094 52.7562 254.094 52.6296C254.094 52.5024 254.145 52.399 254.206 52.399C254.269 52.399 254.32 52.2969 254.32 52.1723C254.32 52.0471 254.371 51.9451 254.434 51.9451C254.495 51.9451 254.546 51.7157 254.546 51.4347C254.546 50.9434 254.534 50.9243 254.206 50.9243C254.019 50.9243 253.866 50.9753 253.866 51.0379C253.866 51.1005 253.739 51.1516 253.584 51.1516C253.428 51.1516 253.3 51.2026 253.3 51.2645C253.3 51.3272 253.211 51.3796 253.101 51.3816C252.993 51.3836 252.804 51.4605 252.683 51.5517C252.562 51.6436 252.355 51.7184 252.224 51.7184C252.093 51.7184 251.937 51.7654 251.877 51.8226C251.531 52.1587 245.889 52.1587 245.543 51.8226C245.483 51.7654 245.345 51.7184 245.234 51.7184C245.053 51.7184 244.487 51.5075 243.98 51.2509C243.872 51.1965 243.706 51.1516 243.611 51.1516C243.517 51.1516 243.44 51.106 243.44 51.0502C243.44 50.9944 243.313 50.9168 243.156 50.878C243.001 50.8386 242.874 50.7569 242.874 50.6956C242.874 50.6344 242.801 50.584 242.712 50.584C242.623 50.584 242.36 50.4058 242.129 50.1873C241.898 49.9689 241.688 49.7906 241.662 49.7906C241.588 49.7906 241.06 49.2407 241.06 49.1638C241.06 49.0481 240.745 48.7698 240.615 48.7698C240.548 48.7698 240.494 48.6977 240.494 48.6106C240.494 48.5228 240.315 48.1349 240.096 47.7491C239.878 47.3625 239.7 47.0005 239.7 46.944C239.7 46.8834 245.931 46.8413 254.931 46.8413C268.716 46.8413 270.169 46.8242 270.231 46.6623C270.269 46.5636 270.3 46.2928 270.3 46.0607C270.3 45.8293 270.353 45.5864 270.417 45.5218C270.696 45.2434 270.42 38.5758 270.12 38.3268C270.027 38.2499 269.96 37.9872 269.96 37.7041C269.96 37.4346 269.909 37.1828 269.846 37.144C269.785 37.1059 269.734 36.8984 269.734 36.684C269.734 36.469 269.683 36.2934 269.62 36.2934C269.557 36.2934 269.506 36.1389 269.506 35.9498C269.506 35.749 269.436 35.5789 269.336 35.5408C269.243 35.5047 269.166 35.3536 269.166 35.2039C269.166 35.0549 269.115 34.9324 269.053 34.9324C268.991 34.9324 268.94 34.8051 268.94 34.6493C268.94 34.4935 268.889 34.3655 268.826 34.3655C268.765 34.3655 268.714 34.2669 268.714 34.1471C268.714 34.0266 268.649 33.8606 268.571 33.7783C268.493 33.6959 268.306 33.3849 268.156 33.0882C268.006 32.7908 267.815 32.4914 267.732 32.422C267.648 32.3526 267.58 32.2444 267.58 32.1818C267.58 32.1185 267.49 31.9844 267.379 31.8837C267.268 31.783 267.086 31.5564 266.975 31.3815C266.441 30.5411 264.32 28.422 263.099 27.5088C262.852 27.3237 262.633 27.1324 262.612 27.0834C262.591 27.0338 262.528 26.9936 262.47 26.9936C262.414 26.9936 262.119 26.8146 261.815 26.5962C261.512 26.3778 261.202 26.1995 261.127 26.1995C261.052 26.1995 260.919 26.1355 260.832 26.0579C260.457 25.7204 260.329 25.6326 260.216 25.6326C260.108 25.6326 259.905 25.5421 259.42 25.2774C259.327 25.2263 259.072 25.1025 258.854 25.0025C258.635 24.9017 258.368 24.7724 258.26 24.7153C258.152 24.6581 257.967 24.6118 257.848 24.6118C257.731 24.6118 257.571 24.5349 257.493 24.4417C257.416 24.3478 257.234 24.2716 257.09 24.2716C256.945 24.2716 256.795 24.2206 256.756 24.1579C256.718 24.0953 256.511 24.0443 256.297 24.0443C256.082 24.0443 255.906 23.9933 255.906 23.9313C255.906 23.8687 255.734 23.8177 255.524 23.8177C255.313 23.8177 255.077 23.7408 255 23.6476C254.919 23.5496 254.672 23.4774 254.419 23.4774C254.178 23.4774 253.98 23.4264 253.98 23.3638C253.98 23.3012 253.68 23.2508 253.307 23.2508C252.936 23.2508 252.602 23.1998 252.564 23.1372C252.523 23.0719 251.909 23.0235 251.106 23.0235C250.343 23.0235 249.67 22.9793 249.611 22.9249C249.482 22.8071 248.284 22.703 247.804 22.7684ZM50.15 23.3638C50.1112 23.4264 49.7807 23.4774 49.4149 23.4774C48.9743 23.4774 48.6921 23.5353 48.5792 23.6476C48.4738 23.7537 48.195 23.8177 47.8414 23.8177C47.5293 23.8177 47.2416 23.8687 47.2035 23.9313C47.1648 23.9933 46.9608 24.0443 46.75 24.0443C46.5392 24.0443 46.3352 24.0953 46.2964 24.1579C46.2584 24.2206 46.0802 24.2716 45.9013 24.2716C45.7225 24.2716 45.4995 24.3478 45.4063 24.4417C45.3125 24.5349 45.1302 24.6118 45.0017 24.6118C44.8725 24.6118 44.7664 24.6629 44.7664 24.7248C44.7664 24.7874 44.6393 24.8385 44.4835 24.8385C44.3278 24.8385 44.2 24.8895 44.2 24.9521C44.2 25.014 44.1014 25.0651 43.9817 25.0651C43.8614 25.0651 43.6866 25.142 43.5928 25.2352C43.4996 25.3291 43.3677 25.4053 43.2997 25.4053C43.2323 25.4053 43.0651 25.4693 42.9277 25.5475C42.6843 25.6857 42.5687 25.7701 42.2253 26.0579C42.1321 26.1355 41.9777 26.1995 41.8812 26.1995C41.7853 26.1995 41.7064 26.2505 41.7064 26.3131C41.7064 26.375 41.6534 26.4261 41.5874 26.4261C41.5222 26.4261 41.2848 26.605 41.0604 26.8235C40.8354 27.0413 40.5953 27.2202 40.5266 27.2202C40.4573 27.2202 40.2485 27.3978 40.0622 27.6149C39.8759 27.832 39.6596 28.0103 39.5814 28.0117C39.5039 28.013 39.44 28.0552 39.44 28.1049C39.44 28.1546 39.2489 28.4029 39.015 28.6575C38.4689 29.2515 38.08 29.7204 38.08 29.7864C38.08 29.815 37.978 29.9477 37.8535 30.0818C37.7284 30.2158 37.6264 30.4125 37.6264 30.5186C37.6264 30.6248 37.5503 30.7412 37.4564 30.7772C37.3633 30.8133 37.2864 30.9208 37.2864 31.0161C37.2864 31.1114 37.2484 31.1903 37.2014 31.191C37.1001 31.1917 36.8335 31.7408 36.8335 31.9497C36.8335 32.0307 36.7859 32.0974 36.7275 32.0974C36.6697 32.0974 36.5901 32.2117 36.5507 32.3526C36.4738 32.6262 36.3018 33.0535 36.1399 33.3713C36.0849 33.4802 36.04 33.6748 36.04 33.8048C36.04 33.9348 35.9632 34.1178 35.87 34.2117C35.7761 34.305 35.7 34.554 35.7 34.7636C35.7 34.9739 35.649 35.1774 35.5864 35.2162C35.5246 35.255 35.4735 35.5102 35.4735 35.783C35.4735 36.0566 35.4226 36.3118 35.36 36.3506C35.2974 36.3887 35.2464 36.6765 35.2464 36.9889C35.2464 37.3428 35.1825 37.6218 35.0764 37.7272C34.8745 37.93 34.8167 61.4946 35.0173 61.8124C35.1832 62.0751 45.6885 62.1295 46.0849 61.8702L46.3535 61.694V50.7018C46.3535 43.4959 46.3923 39.6857 46.4664 39.6395C46.529 39.6007 46.58 39.2727 46.58 38.9093C46.58 38.4615 46.6344 38.2043 46.75 38.1083C46.8431 38.0307 46.92 37.8205 46.92 37.6408C46.92 37.4612 46.971 37.3142 47.0336 37.3142C47.0954 37.3142 47.1464 37.1869 47.1464 37.0311C47.1464 36.8752 47.1974 36.7473 47.26 36.7473C47.3225 36.7473 47.3736 36.667 47.3736 36.5697C47.3736 36.3955 47.9142 35.5932 48.0814 35.5183C48.1283 35.4979 48.1664 35.4088 48.1664 35.3203C48.1664 35.2318 48.2433 35.1597 48.3364 35.1597C48.4303 35.1597 48.5064 35.1202 48.5064 35.0719C48.5064 35.0236 48.6853 34.8882 48.9035 34.7704C49.1211 34.6527 49.3 34.5139 49.3 34.4608C49.3 34.4084 49.402 34.3655 49.5264 34.3655C49.6516 34.3655 49.7535 34.3206 49.7535 34.2648C49.7535 34.2097 49.8936 34.1369 50.065 34.1029C50.9293 33.9327 51.5297 33.7783 51.7065 33.6803C51.8153 33.6204 52.3069 33.5714 52.7999 33.5714C53.5119 33.5714 53.7098 33.5346 53.7649 33.3924C53.8546 33.1576 53.8546 23.6646 53.7649 23.4298C53.6833 23.2182 50.2785 23.1556 50.15 23.3638ZM57.0833 23.5523C56.9622 23.6734 56.9908 46.0995 57.1125 46.2234C57.171 46.2826 57.241 46.8161 57.2682 47.4088C57.326 48.6412 57.5144 49.7144 57.6844 49.7708C57.7476 49.7919 57.8 50.0349 57.8 50.3105C57.8 50.5854 57.851 50.8113 57.9135 50.8113C57.9754 50.8113 58.0264 50.9869 58.0264 51.2013C58.0264 51.4163 58.074 51.6205 58.1311 51.6565C58.1889 51.6919 58.2692 51.8736 58.31 52.0601C58.3515 52.2465 58.4317 52.399 58.4888 52.399C58.5466 52.399 58.5935 52.5269 58.5935 52.6827C58.5935 52.8386 58.6445 52.9658 58.7064 52.9658C58.769 52.9658 58.82 53.0938 58.82 53.2496C58.82 53.4054 58.8703 53.5334 58.9308 53.5334C58.992 53.5334 59.0763 53.6735 59.1185 53.845C59.1607 54.0165 59.228 54.1826 59.2681 54.2139C59.3089 54.2445 59.4306 54.4616 59.5394 54.6957C59.6482 54.9298 59.7856 55.121 59.8454 55.121C59.9046 55.121 59.9535 55.1727 59.9535 55.236C59.9535 55.4381 60.4581 56.139 60.605 56.1404C60.6832 56.1411 60.7478 56.2057 60.7485 56.2833C60.7491 56.3615 60.979 56.68 61.2585 56.9917C61.5379 57.3034 61.7664 57.5967 61.7664 57.6436C61.7664 57.6912 61.8167 57.7294 61.8779 57.7294C61.9391 57.7294 62.1731 57.9083 62.3975 58.1268C62.6225 58.3445 62.8782 58.5235 62.9666 58.5235C63.0543 58.5235 63.1264 58.5779 63.1264 58.6453C63.1264 58.8229 63.3603 59.0257 63.7785 59.2101C63.9812 59.3 64.1464 59.4068 64.1464 59.449C64.1464 59.5504 65.1562 60.1111 65.3385 60.1111C65.418 60.1111 65.5119 60.188 65.5479 60.2813C65.5833 60.3752 65.7165 60.4514 65.843 60.4514C65.9695 60.4514 66.0735 60.5024 66.0735 60.565C66.0735 60.6276 66.1721 60.6787 66.2932 60.6787C66.4142 60.6787 66.5448 60.7297 66.5835 60.7916C66.6216 60.8542 66.7719 60.9053 66.9161 60.9053C67.0609 60.9053 67.2425 60.9815 67.32 61.0754C67.3975 61.1693 67.5539 61.2455 67.6675 61.2455C67.7803 61.2455 67.9048 61.2966 67.9435 61.3592C67.9816 61.4211 68.1632 61.4721 68.3468 61.4721C68.5297 61.4721 68.68 61.5232 68.68 61.5858C68.68 61.6484 68.903 61.6994 69.1764 61.6994C69.479 61.6994 69.7272 61.7654 69.8135 61.8696C69.9033 61.9778 70.1542 62.0397 70.5071 62.0397C70.8111 62.0397 71.06 62.0907 71.06 62.1526C71.06 62.2173 71.3979 62.2663 71.8467 62.2663C72.2792 62.2663 72.6648 62.3173 72.7035 62.3799C72.7471 62.4507 73.8378 62.4929 75.6003 62.4929C77.4091 62.4929 78.4264 62.4521 78.4264 62.3799C78.4264 62.3153 78.7644 62.2663 79.2132 62.2663C79.6457 62.2663 80.0312 62.2153 80.07 62.1526C80.1087 62.0907 80.3937 62.0397 80.7037 62.0397C81.1002 62.0397 81.2865 61.9893 81.3321 61.8696C81.3763 61.7546 81.5565 61.6994 81.889 61.6994C82.1589 61.6994 82.4112 61.6484 82.45 61.5858C82.4887 61.5232 82.6703 61.4721 82.8532 61.4721C83.0368 61.4721 83.1864 61.4211 83.1864 61.3592C83.1864 61.2966 83.3081 61.2455 83.4564 61.2455C83.6046 61.2455 83.7889 61.1693 83.8664 61.0754C83.9439 60.9815 84.1289 60.9053 84.2771 60.9053C84.4254 60.9053 84.5464 60.8542 84.5464 60.7916C84.5464 60.7297 84.6409 60.6787 84.7559 60.6787C85.0279 60.6787 85.68 60.352 85.68 60.2166C85.68 60.1588 85.782 60.1111 85.9064 60.1111C86.0315 60.1111 86.1335 60.0601 86.1335 59.9982C86.1335 59.9356 86.2158 59.8845 86.3165 59.8845C86.496 59.8845 87.6268 59.1217 87.7009 58.9509C87.722 58.9032 87.8057 58.8638 87.8873 58.8638C87.9689 58.8638 88.0654 58.7875 88.1008 58.6936C88.1368 58.5997 88.2232 58.5235 88.2925 58.5235C88.4469 58.5235 89.9286 57.0448 90.3876 56.431C90.5726 56.1846 90.8378 55.8586 90.9785 55.7055C91.1186 55.5531 91.2335 55.3592 91.2335 55.2748C91.2335 55.1904 91.2845 55.121 91.3464 55.121C91.409 55.121 91.4607 55.0318 91.462 54.9223C91.4627 54.8134 91.5905 54.6038 91.7456 54.4568C91.8999 54.3098 92.0264 54.0934 92.0264 53.975C92.0264 53.8566 92.0774 53.76 92.14 53.76C92.2025 53.76 92.2535 53.6545 92.2535 53.5252C92.2535 53.3959 92.3297 53.2135 92.4235 53.1203C92.5167 53.0264 92.5935 52.8256 92.5935 52.6746C92.5935 52.5228 92.6445 52.399 92.7064 52.399C92.769 52.399 92.82 52.2744 92.82 52.122C92.82 51.9696 92.871 51.8137 92.9335 51.7749C92.9954 51.7368 93.0464 51.5769 93.0464 51.4204C93.0464 51.2632 93.1233 51.0584 93.2164 50.9651C93.3103 50.8712 93.3864 50.6228 93.3864 50.4126C93.3864 50.2023 93.4374 49.9988 93.5 49.9607C93.5625 49.9219 93.6135 49.6232 93.6135 49.2958C93.6135 48.9692 93.6707 48.6439 93.7407 48.5738C94.0358 48.2785 94.0977 45.9899 94.1106 34.9324L94.1235 23.5339L88.4286 23.5047L82.7335 23.4754V34.1308C82.7335 41.1121 82.6941 44.8106 82.62 44.8569C82.5574 44.895 82.5064 45.3789 82.5064 45.9314C82.5064 46.5412 82.4595 46.9515 82.3861 46.976C82.3194 46.9985 82.2365 47.2325 82.2011 47.4959C82.1657 47.7599 82.0923 47.9757 82.0386 47.9757C81.9842 47.9757 81.94 48.1002 81.94 48.2526C81.94 48.4051 81.889 48.5609 81.8264 48.5997C81.7645 48.6378 81.7135 48.7467 81.7135 48.8406C81.7135 48.9345 81.5857 49.1788 81.43 49.3836C81.2743 49.5878 81.1464 49.8137 81.1464 49.8858C81.1464 49.958 81.0954 50.0172 81.0335 50.0172C80.971 50.0172 80.92 50.0934 80.92 50.1873C80.92 50.2805 80.8554 50.3574 80.7772 50.3574C80.6983 50.3574 80.5378 50.4854 80.4209 50.6412C80.3039 50.797 80.1387 50.9243 80.0543 50.9243C79.9693 50.9243 79.9 50.9753 79.9 51.0379C79.9 51.1005 79.8238 51.1516 79.73 51.1516C79.6361 51.1516 79.56 51.2026 79.56 51.2645C79.56 51.3272 79.4641 51.3782 79.3471 51.3782C79.2302 51.3782 79.0711 51.4544 78.9935 51.5483C78.916 51.6415 78.7311 51.7184 78.5828 51.7184C78.4346 51.7184 78.3135 51.7695 78.3135 51.8321C78.3135 51.894 78.0361 51.9451 77.6968 51.9451C77.3575 51.9451 77.0487 51.9961 77.01 52.0587C76.9175 52.2091 74.2696 52.2091 74.1764 52.0587C74.1383 51.9961 73.8289 51.9451 73.4896 51.9451C73.151 51.9451 72.8735 51.894 72.8735 51.8321C72.8735 51.7695 72.7498 51.7184 72.5981 51.7184C72.4465 51.7184 72.2466 51.6422 72.1527 51.5483C72.0596 51.4544 71.9154 51.3782 71.8331 51.3782C71.7033 51.3782 71.5006 51.236 70.8662 50.6997C70.7914 50.6364 70.6894 50.5834 70.6397 50.582C70.5901 50.5806 70.397 50.3506 70.21 50.0716C70.023 49.7926 69.8319 49.564 69.785 49.564C69.7381 49.5633 69.7 49.5 69.6993 49.4217C69.6993 49.3435 69.5715 49.0291 69.4164 48.7222C69.2607 48.4153 69.1335 48.0709 69.1335 47.9566C69.1335 47.8423 69.0825 47.7491 69.02 47.7491C68.9574 47.7491 68.9064 47.5224 68.9064 47.2455C68.9064 46.9678 68.8554 46.7099 68.7935 46.6711C68.731 46.633 68.68 46.2063 68.68 45.7232C68.68 45.2407 68.629 44.7943 68.5671 44.7324C68.4943 44.6596 68.444 40.878 68.4257 34.077L68.3964 23.5339L62.7783 23.5047C59.6883 23.4883 57.1254 23.5101 57.0833 23.5523ZM250.665 33.2944C251.117 33.3325 251.486 33.4101 251.486 33.4673C251.486 33.5244 251.665 33.5714 251.884 33.5714C252.102 33.5714 252.28 33.6204 252.28 33.6796C252.28 33.7395 252.458 33.8218 252.676 33.8626C252.895 33.9035 253.074 33.9824 253.074 34.0382C253.074 34.0933 253.172 34.1389 253.293 34.1389C253.414 34.1389 253.545 34.19 253.584 34.2519C253.622 34.3145 253.748 34.3655 253.864 34.3655C253.98 34.3655 254.091 34.4091 254.112 34.4622C254.171 34.6119 255.088 35.1597 255.281 35.1597C255.376 35.1597 255.454 35.2237 255.454 35.3026C255.454 35.3815 255.589 35.5476 255.755 35.6714C256.181 35.9899 257.04 36.8603 257.04 36.9739C257.04 37.0256 257.079 37.0855 257.127 37.1066C257.175 37.127 257.409 37.4122 257.647 37.7395L258.079 38.3349H248.868H239.658L239.962 38.0171C240.13 37.8422 240.266 37.6463 240.266 37.5823C240.266 37.3387 242.276 35.2706 242.751 35.0263C242.912 34.944 243.17 34.7609 243.326 34.6207C243.481 34.4805 243.698 34.3655 243.807 34.3655C243.917 34.3655 244.006 34.3145 244.006 34.2519C244.006 34.19 244.084 34.1389 244.178 34.1389C244.351 34.1389 244.433 34.1056 245.121 33.7612C245.328 33.6571 245.619 33.5714 245.766 33.5714C245.913 33.5714 246.065 33.5203 246.104 33.4584C246.142 33.3958 246.524 33.3448 246.954 33.3448C247.384 33.3448 247.767 33.2903 247.808 33.2236C247.881 33.1059 248.628 33.1243 250.665 33.2944ZM108.744 67.7103C108.705 67.7729 108.547 67.824 108.393 67.824C108.239 67.824 108.083 67.9002 108.048 67.9941C108.012 68.0873 107.86 68.1642 107.711 68.1642C107.562 68.1642 107.44 68.2153 107.44 68.2772C107.44 68.3398 107.338 68.3908 107.214 68.3908C107.088 68.3908 106.986 68.4419 106.986 68.5045C106.986 68.5664 106.921 68.6175 106.842 68.6175C106.678 68.6175 106.138 69.0162 105.863 69.3388C105.764 69.4545 105.543 69.6933 105.371 69.8689C105.2 70.0445 105.06 70.2684 105.06 70.367C105.06 70.465 105.009 70.546 104.946 70.546C104.885 70.546 104.834 70.6222 104.834 70.7161C104.834 70.8094 104.792 70.8863 104.742 70.8863C104.592 70.8863 104.266 71.7281 104.266 72.1153C104.266 72.3126 104.215 72.4739 104.154 72.4739C104.085 72.4739 104.04 72.9441 104.04 73.658C104.04 74.3249 104.09 74.8727 104.154 74.9121C104.215 74.9509 104.266 75.1551 104.266 75.366C104.266 75.577 104.317 75.7812 104.38 75.8199C104.443 75.858 104.494 75.9887 104.494 76.1098C104.494 76.231 104.57 76.3303 104.664 76.3303C104.769 76.3303 104.834 76.4372 104.834 76.6134C104.834 76.7699 104.873 76.8972 104.922 76.8972C104.971 76.8972 105.098 77.0448 105.205 77.2252C105.465 77.6648 106.151 78.3433 106.425 78.4304C106.547 78.4685 106.646 78.5481 106.646 78.6059C106.646 78.6645 106.736 78.7128 106.845 78.7141C106.954 78.7148 107.163 78.8427 107.31 78.9972C107.457 79.1524 107.67 79.2789 107.785 79.2789C107.9 79.2789 108.025 79.33 108.064 79.3926C108.102 79.4545 108.321 79.5076 108.552 79.5096C108.782 79.5117 109.069 79.5879 109.19 79.6798C109.51 79.9213 112.111 79.9186 112.354 79.6757C112.447 79.5825 112.703 79.5056 112.922 79.5056C113.141 79.5056 113.351 79.4545 113.39 79.3926C113.429 79.33 113.584 79.2789 113.737 79.2789C113.889 79.2789 114.014 79.2279 114.014 79.1653C114.014 79.1034 114.067 79.0523 114.131 79.0523C114.314 79.0523 115.51 78.1486 115.826 77.7709C115.983 77.5852 116.25 77.2892 116.421 77.1122C116.593 76.936 116.734 76.6876 116.734 76.561C116.734 76.4338 116.785 76.3303 116.846 76.3303C116.909 76.3303 116.96 76.2242 116.96 76.0949C116.96 75.9662 117.036 75.7839 117.13 75.69C117.223 75.5967 117.3 75.3477 117.3 75.1381C117.3 74.9278 117.351 74.7243 117.414 74.6855C117.475 74.6467 117.526 74.1847 117.526 73.658C117.526 73.0952 117.48 72.7005 117.414 72.7005C117.351 72.7005 117.3 72.4691 117.3 72.1867C117.3 71.8349 117.246 71.6525 117.13 71.6076C117.036 71.5715 116.96 71.4504 116.96 71.3381C116.96 70.8863 115.546 68.9577 115.215 68.9577C115.141 68.9577 114.992 68.8475 114.641 68.5324C114.554 68.4548 114.406 68.3908 114.311 68.3908C114.217 68.3908 114.109 68.3398 114.07 68.2772C114.031 68.2153 113.923 68.1642 113.829 68.1642C113.734 68.1642 113.58 68.0873 113.487 67.9941C113.393 67.9002 113.196 67.824 113.049 67.824C112.901 67.824 112.749 67.7729 112.71 67.7103C112.668 67.6423 111.88 67.5967 110.726 67.5967C109.573 67.5967 108.786 67.6423 108.744 67.7103ZM191.194 67.7103C191.194 67.7729 191.117 67.824 191.024 67.824C190.93 67.824 190.854 67.888 190.854 67.9669C190.854 68.0458 190.726 68.2057 190.57 68.3228C190.232 68.5773 190.161 69.4967 190.456 69.7927C190.55 69.8859 190.626 69.9914 190.626 70.0261C190.626 70.1826 191.036 70.546 191.212 70.546C191.319 70.546 191.438 70.5971 191.476 70.659C191.515 70.7216 191.799 70.7726 192.107 70.7726C192.415 70.7726 192.666 70.7216 192.666 70.659C192.666 70.5971 192.752 70.546 192.857 70.546C193.308 70.546 193.8 69.7689 193.8 69.0571C193.8 68.578 193.758 68.3908 193.649 68.3908C193.566 68.3908 193.43 68.2636 193.346 68.1071C193.263 67.9512 193.127 67.824 193.044 67.824C192.961 67.824 192.894 67.7729 192.894 67.7103C192.894 67.645 192.534 67.5967 192.044 67.5967C191.552 67.5967 191.194 67.645 191.194 67.7103ZM246.16 67.7103C246.16 67.7729 246.083 67.824 245.99 67.824C245.897 67.824 245.82 67.8621 245.82 67.909C245.82 67.9553 245.687 68.1472 245.526 68.3344C244.753 69.2286 245.654 70.7726 246.949 70.7726C248.318 70.7726 249.325 69.1659 248.484 68.3242C248.328 68.1676 248.2 67.9914 248.2 67.9322C248.2 67.8723 248.123 67.824 248.03 67.824C247.937 67.824 247.86 67.7729 247.86 67.7103C247.86 67.645 247.501 67.5967 247.01 67.5967C246.519 67.5967 246.16 67.645 246.16 67.7103ZM111.746 70.659C111.746 70.7216 111.874 70.7726 112.03 70.7726C112.186 70.7726 112.314 70.8237 112.314 70.8863C112.314 70.9482 112.416 70.9992 112.54 70.9992C112.666 70.9992 112.766 71.0748 112.766 71.1694C112.766 71.2633 112.805 71.3395 112.851 71.3402C112.993 71.3402 113.56 71.8676 113.56 71.9989C113.56 72.0663 113.688 72.3616 113.844 72.6549C114.127 73.1891 114.26 74.5154 114.028 74.5154C113.975 74.5154 113.843 74.7447 113.736 75.0258C113.629 75.3062 113.495 75.5362 113.438 75.5362C113.38 75.5362 113.334 75.6124 113.334 75.7063C113.334 75.8002 113.268 75.8764 113.188 75.8764C113.108 75.8764 112.97 75.9785 112.88 76.103C112.79 76.2282 112.624 76.3303 112.511 76.3303C112.399 76.3303 112.277 76.4065 112.241 76.5004C112.199 76.6114 112.022 76.6706 111.735 76.6706C111.492 76.6706 111.294 76.7216 111.294 76.7835C111.294 76.8461 111.067 76.8972 110.79 76.8972C110.513 76.8972 110.255 76.8461 110.216 76.7835C110.178 76.7216 109.951 76.6706 109.712 76.6706C109.43 76.6706 109.255 76.6107 109.212 76.5004C109.177 76.4065 109.069 76.3303 108.973 76.3303C108.878 76.3303 108.8 76.2793 108.8 76.2167C108.8 76.1541 108.746 76.103 108.678 76.103C108.548 76.103 108.234 75.8247 108.234 75.7097C108.234 75.643 108.116 75.4872 107.809 75.1435C107.73 75.0564 107.666 74.8795 107.666 74.7502C107.666 74.6209 107.615 74.5154 107.554 74.5154C107.489 74.5154 107.44 74.1772 107.44 73.7281C107.44 73.2953 107.491 72.9094 107.554 72.8706C107.615 72.8325 107.666 72.7019 107.666 72.5807C107.666 72.4596 107.714 72.3602 107.772 72.3602C107.83 72.3602 107.913 72.2507 107.955 72.1159C108.055 71.8002 108.775 71.0999 109.203 70.9012C109.386 70.8162 109.613 70.7039 109.706 70.6528C109.954 70.5167 111.746 70.5222 111.746 70.659ZM131.673 71.2292C131.645 71.3163 131.041 71.3531 129.741 71.3456C127.375 71.3327 127.614 70.8713 127.614 75.4627C127.614 79.9942 127.414 79.5056 129.269 79.5056H130.786V77.2613V75.0163L131.175 74.6243C131.84 73.9526 131.895 73.9261 132.521 73.9669L133.11 74.005V72.5875V71.1694L132.413 71.136C131.972 71.1149 131.7 71.1489 131.673 71.2292ZM144.33 71.2265C144.287 71.2952 143.441 71.3395 142.17 71.3395H140.08V75.4225V79.5056H141.666H143.254V77.1238C143.254 75.8138 143.292 74.742 143.339 74.742C143.385 74.742 143.572 74.6148 143.753 74.4582C143.934 74.3024 144.15 74.1752 144.234 74.1752C144.318 74.1752 144.386 74.1241 144.386 74.0615C144.386 73.9996 144.565 73.9485 144.784 73.9485C145.001 73.9485 145.18 73.9867 145.181 74.0336C145.181 74.0799 145.327 74.2017 145.506 74.3031C146.12 74.6529 146.2 75.0054 146.2 77.3681V79.5056H147.674H149.146V76.8216C149.146 74.1547 149.028 73.268 148.672 73.268C148.621 73.268 148.58 73.1911 148.58 73.0979C148.58 73.004 148.529 72.9278 148.466 72.9278C148.405 72.9278 148.354 72.8604 148.354 72.7788C148.354 72.5841 147.716 71.9356 147.438 71.8471C147.318 71.809 147.22 71.7308 147.22 71.6722C147.22 71.6144 147.118 71.5668 146.994 71.5668C146.868 71.5668 146.766 71.5157 146.766 71.4531C146.766 71.3905 146.511 71.3395 146.2 71.3395C145.889 71.3395 145.634 71.2884 145.634 71.2265C145.634 71.1639 145.356 71.1129 145.017 71.1129C144.677 71.1129 144.369 71.1639 144.33 71.2265ZM153.056 71.2265C153.018 71.2884 152.786 71.3395 152.54 71.3395C152.294 71.3395 152.094 71.3905 152.094 71.4531C152.094 71.5157 151.989 71.5668 151.862 71.5668C151.646 71.5668 151.537 71.6301 151.134 71.9921C151.047 72.0697 150.944 72.1336 150.904 72.1336C150.81 72.1336 150.506 72.4351 150.506 72.527C150.506 72.5937 150.389 72.7502 150.081 73.0938C150.004 73.1803 149.94 73.3286 149.94 73.4232C149.94 73.5178 149.889 73.626 149.826 73.6648C149.765 73.7036 149.714 73.8376 149.714 73.9628C149.714 74.0887 149.632 74.2725 149.533 74.3718C149.304 74.6012 149.337 76.6774 149.571 76.7556C149.65 76.7815 149.714 76.9258 149.714 77.0768C149.714 77.2272 149.765 77.3511 149.826 77.3511C149.889 77.3511 149.94 77.4443 149.94 77.5586C149.94 77.8512 151.346 79.2789 151.634 79.2789C151.762 79.2789 151.866 79.33 151.866 79.3926C151.866 79.4545 151.981 79.5076 152.121 79.5096C152.262 79.5117 152.476 79.5879 152.597 79.6798C152.75 79.7961 153.11 79.8458 153.794 79.8458C154.477 79.8458 154.836 79.7961 154.99 79.6798C155.16 79.5505 155.598 79.5124 156.939 79.5096L158.666 79.5056V75.4212V71.3361L156.668 71.3456C155.392 71.3517 154.626 71.3109 154.549 71.234C154.396 71.0809 153.15 71.0748 153.056 71.2265ZM163.52 71.2306C163.495 71.3048 162.748 71.3572 161.499 71.3728L159.516 71.3966L159.487 75.4511L159.457 79.5056H160.932H162.406V77.2796V75.053L162.945 74.5038C163.553 73.8825 163.833 73.8226 164.372 74.1956C165.158 74.7379 165.126 74.6154 165.126 77.1762V79.5056H166.714H168.3V77.2374C168.3 75.8009 168.341 74.9693 168.414 74.9693C168.475 74.9693 168.526 74.8951 168.526 74.8046C168.526 74.3296 169.643 73.8594 170.089 74.1466C170.931 74.6889 170.906 74.5984 170.906 77.1755V79.5056H172.494H174.08V76.9605C174.08 75.3865 174.036 74.3888 173.966 74.3453C173.905 74.3065 173.849 74.1125 173.845 73.9132C173.841 73.7144 173.739 73.398 173.62 73.2109C173.5 73.0237 173.367 72.7944 173.324 72.7005C173.256 72.5501 172.831 72.1255 172.332 71.7083C172.239 71.6301 172.087 71.5668 171.995 71.5668C171.903 71.5668 171.795 71.5157 171.756 71.4531C171.718 71.3905 171.463 71.3395 171.19 71.3395C170.917 71.3395 170.662 71.2884 170.624 71.2265C170.585 71.1639 170.254 71.1129 169.886 71.1129C169.52 71.1129 169.189 71.1639 169.15 71.2265C169.111 71.2884 168.853 71.3395 168.577 71.3395C168.3 71.3395 168.074 71.3905 168.074 71.4531C168.074 71.5157 167.967 71.5668 167.836 71.5668C167.706 71.5668 167.476 71.6634 167.325 71.7825C167.034 72.0111 166.695 71.988 166.476 71.7246C166.404 71.6375 166.25 71.5668 166.133 71.5668C166.016 71.5668 165.92 71.5157 165.92 71.4531C165.92 71.3905 165.665 71.3395 165.354 71.3395C165.041 71.3395 164.786 71.2884 164.786 71.2265C164.786 71.0754 163.57 71.0795 163.52 71.2306ZM178.386 71.2265C178.386 71.2884 178.135 71.3395 177.827 71.3395C177.519 71.3395 177.235 71.3905 177.196 71.4531C177.158 71.5157 177.025 71.5668 176.902 71.5668C176.778 71.5668 176.54 71.694 176.371 71.8499C176.203 72.0064 176.019 72.1336 175.962 72.1336C175.815 72.1336 175.005 73.0319 174.925 73.2837C174.888 73.4001 174.81 73.4946 174.753 73.4946C174.694 73.4946 174.646 73.645 174.646 73.8281C174.646 74.0118 174.595 74.1935 174.534 74.2316C174.395 74.3174 174.381 76.5937 174.517 76.8706C174.801 77.447 175.044 77.8757 175.15 77.9901C175.216 78.0615 175.352 78.2146 175.452 78.3303C175.91 78.8611 176.996 79.5056 177.431 79.5056C177.587 79.5056 177.839 79.5872 177.991 79.6866C178.338 79.9145 180.547 79.8819 180.625 79.6478C180.651 79.5695 180.843 79.5056 181.053 79.5056C181.262 79.5056 181.465 79.4545 181.504 79.3926C181.542 79.33 181.672 79.2789 181.793 79.2789C181.914 79.2789 182.014 79.2279 182.014 79.1653C182.014 79.1034 182.09 79.0523 182.184 79.0523C182.277 79.0523 182.354 78.9993 182.354 78.9353C182.354 78.8707 182.441 78.7849 182.547 78.7441C183.42 78.4086 183.387 77.6804 182.47 77.0666C182.097 76.8176 181.791 76.5794 181.79 76.5372C181.788 76.4957 181.608 76.4025 181.391 76.3303C181.079 76.2276 181.025 76.1711 181.138 76.0663C181.395 75.8274 182.707 74.9693 182.815 74.9693C182.872 74.9693 182.92 74.9183 182.92 74.8557C182.92 74.7931 182.991 74.742 183.077 74.742C183.285 74.742 183.633 74.2092 183.485 74.118C183.424 74.0792 183.374 73.9574 183.374 73.8458C183.374 73.5457 183.042 72.9346 182.796 72.7808C182.677 72.7066 182.58 72.6039 182.58 72.5521C182.58 72.4358 182.286 72.1336 182.174 72.1336C182.128 72.1336 181.924 72.0064 181.72 71.8499C181.516 71.694 181.246 71.5668 181.121 71.5668C180.996 71.5668 180.862 71.5157 180.824 71.4531C180.785 71.3905 180.501 71.3395 180.193 71.3395C179.885 71.3395 179.634 71.2884 179.634 71.2265C179.634 71.1639 179.353 71.1129 179.01 71.1129C178.667 71.1129 178.386 71.1639 178.386 71.2265ZM196.35 71.2265C196.311 71.2884 196.129 71.3395 195.945 71.3395C195.486 71.3395 194.366 72.0486 194.366 72.3385C194.366 72.3977 194.29 72.51 194.196 72.5875C194.103 72.6651 194.026 72.8468 194.026 72.9918C194.026 73.136 193.975 73.2857 193.914 73.3245C193.77 73.413 193.765 74.1146 193.907 74.3752C193.965 74.4834 194.039 74.7005 194.072 74.857C194.186 75.4109 195.218 76.3303 195.726 76.3303C195.837 76.3303 196.073 76.4065 196.252 76.4998C196.431 76.593 196.689 76.6692 196.825 76.6699C196.961 76.6699 197.105 76.7216 197.144 76.7835C197.185 76.8516 197.05 76.8972 196.81 76.8972C196.588 76.8972 196.406 76.8461 196.406 76.7835C196.406 76.7216 196.264 76.6706 196.09 76.6706C195.745 76.6706 195.162 76.9019 195.161 77.0387C195.161 77.0857 195.089 77.1238 195.002 77.1238C194.915 77.1238 194.815 77.2007 194.779 77.2939C194.743 77.3878 194.636 77.464 194.54 77.464C194.445 77.464 194.366 77.5151 194.366 77.5777C194.366 77.6403 194.312 77.6913 194.245 77.6913C194.026 77.6913 193.8 78.0091 193.8 78.3154C193.8 78.6488 194.35 79.2789 194.641 79.2789C194.74 79.2789 194.82 79.33 194.82 79.3926C194.82 79.4545 194.967 79.5056 195.146 79.5056C195.325 79.5056 195.536 79.5825 195.614 79.6757C195.721 79.8057 196.016 79.8458 196.866 79.8458C197.702 79.8458 198.019 79.8043 198.147 79.6757C198.24 79.5825 198.423 79.5056 198.553 79.5056C198.99 79.5056 200.146 78.5637 200.146 78.2085C200.146 78.118 200.197 78.0132 200.26 77.9744C200.45 77.8567 200.399 75.8492 200.195 75.4395C200.011 75.0721 199.379 74.5154 199.144 74.5154C199.072 74.5154 199.014 74.4644 199.014 74.4018C199.014 74.3398 198.835 74.2888 198.616 74.2888C198.34 74.2888 198.22 74.2371 198.22 74.1187C198.22 74.0248 198.274 73.9485 198.342 73.9485C198.408 73.9485 198.534 73.8846 198.62 73.8063C198.996 73.4701 199.124 73.381 199.235 73.381C199.3 73.381 199.354 73.33 199.354 73.268C199.354 73.2054 199.428 73.1544 199.519 73.1544C199.662 73.1544 199.92 72.8346 199.92 72.6583C199.92 72.3276 198.567 71.3395 198.115 71.3395C197.931 71.3395 197.749 71.2884 197.71 71.2265C197.671 71.1639 197.365 71.1129 197.03 71.1129C196.695 71.1129 196.389 71.1639 196.35 71.2265ZM211.14 71.2265C211.14 71.2884 210.885 71.3395 210.574 71.3395C210.261 71.3395 210.006 71.3905 210.006 71.4531C210.006 71.5157 209.902 71.5668 209.775 71.5668C209.559 71.5668 209.451 71.6301 209.048 71.9921C208.961 72.0697 208.85 72.1336 208.802 72.1336C208.649 72.1336 207.626 73.2864 207.626 73.4593C207.626 73.5498 207.55 73.7008 207.456 73.7941C207.363 73.888 207.286 74.0785 207.286 74.2173C207.286 74.3562 207.231 74.5256 207.164 74.593C206.914 74.8427 207.172 76.9802 207.473 77.1578C207.558 77.2082 207.626 77.3484 207.626 77.4702C207.626 77.5913 207.677 77.6913 207.74 77.6913C207.803 77.6913 207.854 77.7594 207.854 77.8424C207.854 78.1309 209.201 79.2789 209.54 79.2789C209.672 79.2789 209.78 79.33 209.78 79.3926C209.78 79.4545 209.936 79.5056 210.128 79.5056C210.319 79.5056 210.552 79.5825 210.646 79.6757C210.884 79.9132 212.704 79.9159 213.017 79.6798C213.138 79.5879 213.402 79.5117 213.605 79.5096C213.808 79.5076 213.974 79.4545 213.974 79.3926C213.974 79.33 214.076 79.2789 214.2 79.2789C214.324 79.2789 214.426 79.2279 214.426 79.1653C214.426 79.1034 214.503 79.0523 214.596 79.0523C214.69 79.0523 214.766 78.9993 214.766 78.9353C214.766 78.8707 214.856 78.7842 214.965 78.7434C215.262 78.6311 215.786 78.0738 215.786 77.8696C215.786 77.7716 215.836 77.6913 215.897 77.6913C216.045 77.6913 216.354 77.0809 216.354 76.7897C216.354 76.6617 216.405 76.5569 216.466 76.5569C216.534 76.5569 216.58 76.1241 216.58 75.4865C216.58 74.8944 216.529 74.3841 216.466 74.3453C216.405 74.3065 216.354 74.1507 216.354 73.9982C216.354 73.8458 216.306 73.7213 216.247 73.7213C216.19 73.7213 216.107 73.6097 216.063 73.4729C216.02 73.3361 215.838 73.068 215.659 72.8774C215.48 72.6869 215.334 72.4923 215.334 72.4453C215.334 72.399 215.268 72.3602 215.188 72.3602C215.108 72.3602 214.97 72.2582 214.88 72.1336C214.79 72.0091 214.658 71.907 214.586 71.907C214.513 71.907 214.391 71.8301 214.314 71.7369C214.236 71.643 214.051 71.5668 213.903 71.5668C213.755 71.5668 213.634 71.5157 213.634 71.4531C213.634 71.3905 213.381 71.3395 213.073 71.3395C212.765 71.3395 212.482 71.2884 212.444 71.2265C212.405 71.1639 212.096 71.1129 211.757 71.1129C211.417 71.1129 211.14 71.1639 211.14 71.2265ZM230.5 71.232C230.474 71.3068 229.773 71.3592 228.591 71.3735L226.724 71.3966L226.694 75.4511L226.664 79.5056H228.139H229.614L229.617 77.4361C229.62 75.7954 229.655 75.3204 229.787 75.1456C229.879 75.0251 229.954 74.8332 229.954 74.7202C229.954 74.608 229.992 74.5154 230.039 74.5154C230.087 74.5154 230.268 74.3834 230.442 74.2221C230.701 73.9819 230.855 73.9329 231.291 73.9526C232.292 73.9996 232.22 74.0969 232.22 72.6923C232.22 71.7553 232.179 71.396 232.058 71.2748C231.867 71.0836 230.561 71.0475 230.5 71.232ZM241.06 71.2265C241.06 71.2884 240.915 71.3395 240.738 71.3395C240.304 71.3395 239.771 71.6185 239.429 72.0261C239.274 72.2099 239.093 72.3602 239.027 72.3602C238.961 72.3602 238.906 72.4371 238.906 72.5304C238.906 72.6243 238.855 72.7005 238.794 72.7005C238.726 72.7005 238.68 73.1544 238.68 73.8349C238.68 74.5154 238.726 74.9693 238.794 74.9693C238.855 74.9693 238.906 75.0455 238.906 75.1394C238.906 75.3429 239.685 76.103 239.894 76.103C239.974 76.103 240.04 76.1541 240.04 76.2167C240.04 76.2793 240.218 76.3303 240.436 76.3303C240.655 76.3303 240.834 76.378 240.834 76.4365C240.834 76.495 241.063 76.5773 241.344 76.6195C241.624 76.6617 241.854 76.7413 241.854 76.7965C241.854 76.9353 241.316 76.9237 241.23 76.7835C241.146 76.6488 240.266 76.6297 240.266 76.7624C240.266 76.8135 240.088 76.94 239.87 77.0442C239.652 77.1483 239.474 77.2858 239.474 77.349C239.474 77.4123 239.372 77.464 239.246 77.464C239.122 77.464 239.02 77.5151 239.02 77.5777C239.02 77.6403 238.966 77.6913 238.898 77.6913C238.675 77.6913 238.454 78.0118 238.454 78.3351C238.456 78.7754 239.388 79.5056 239.947 79.5056C240.07 79.5056 240.246 79.5825 240.339 79.6757C240.466 79.8029 240.778 79.8458 241.57 79.8458C242.361 79.8458 242.674 79.8029 242.801 79.6757C242.894 79.5825 243.127 79.5056 243.318 79.5056C243.51 79.5056 243.666 79.4545 243.666 79.3926C243.666 79.33 243.73 79.2783 243.809 79.2769C244.217 79.2721 245.026 78.2208 245.026 77.6954C245.026 77.5055 245.077 77.3511 245.14 77.3511C245.203 77.3511 245.254 77.0959 245.254 76.7835C245.254 76.4719 245.203 76.2167 245.14 76.2167C245.077 76.2167 245.025 76.0506 245.023 75.8478C245.019 75.4593 244.806 75.0823 244.589 75.0823C244.518 75.0823 244.46 75.0278 244.46 74.9611C244.46 74.7611 244.153 74.5154 243.902 74.5154C243.772 74.5154 243.666 74.4644 243.666 74.4018C243.666 74.3398 243.488 74.2888 243.27 74.2888C242.993 74.2888 242.874 74.2371 242.874 74.1187C242.874 74.0248 242.95 73.9485 243.044 73.9485C243.137 73.9485 243.214 73.8975 243.214 73.8349C243.214 73.7723 243.292 73.7213 243.387 73.7213C243.482 73.7213 243.586 73.6539 243.618 73.5709C243.65 73.4878 243.853 73.3504 244.068 73.266C244.981 72.9074 243.982 71.3395 242.841 71.3395C242.616 71.3395 242.402 71.2884 242.364 71.2265C242.325 71.1639 242.016 71.1129 241.677 71.1129C241.337 71.1129 241.06 71.1639 241.06 71.2265ZM252.79 71.2265C252.751 71.2884 252.442 71.3395 252.103 71.3395C251.764 71.3395 251.486 71.3905 251.486 71.4531C251.486 71.5157 251.407 71.5668 251.309 71.5668C251.1 71.5668 250.407 72.0567 250.035 72.4684C249.439 73.1272 249.334 73.2796 249.334 73.4831C249.334 73.6008 249.257 73.7267 249.164 73.7628C249.052 73.8056 248.994 73.9826 248.994 74.2786C248.994 74.5263 248.943 74.7604 248.88 74.7992C248.817 74.8373 248.766 75.1694 248.766 75.5362C248.766 75.903 248.817 76.235 248.88 76.2732C248.943 76.3119 248.994 76.5154 248.994 76.7257C248.994 76.936 249.057 77.1755 249.135 77.2578C249.213 77.3402 249.351 77.5607 249.442 77.7478C249.654 78.1854 250.749 79.2789 250.974 79.2789C251.069 79.2789 251.146 79.33 251.146 79.3926C251.146 79.4545 251.293 79.5056 251.473 79.5056C251.652 79.5056 251.862 79.5825 251.94 79.6757C252.061 79.822 252.019 79.8458 251.639 79.8458C251.327 79.8458 251.148 79.9125 251.034 80.0731C250.944 80.1976 250.808 80.2997 250.733 80.2997C250.657 80.2997 250.527 80.3637 250.443 80.4413C250.359 80.5195 250.138 80.6692 249.953 80.7733C249.577 80.9863 249.455 81.4327 249.695 81.7199C250.07 82.1704 250.537 82.5889 250.806 82.7169C250.9 82.7611 251.129 82.8952 251.316 83.0149C251.503 83.134 251.845 83.2354 252.075 83.2402C252.305 83.2449 252.525 83.2994 252.564 83.362C252.602 83.4246 252.984 83.4756 253.414 83.4756C253.843 83.4756 254.225 83.4246 254.264 83.362C254.302 83.2994 254.56 83.2483 254.837 83.2483C255.114 83.2483 255.34 83.1973 255.34 83.1354C255.34 83.0728 255.439 83.0217 255.561 83.0217C255.683 83.0217 255.823 82.9578 255.872 82.8795C255.923 82.8019 256.117 82.6611 256.304 82.5678C256.714 82.3623 256.926 82.1725 256.926 82.0091C256.926 81.9425 256.991 81.8873 257.069 81.8873C257.147 81.8873 257.284 81.722 257.374 81.5192C257.463 81.3164 257.603 81.083 257.685 81.0006C257.766 80.9183 257.833 80.755 257.833 80.6386C257.833 80.5222 257.885 80.395 257.946 80.3562C258.019 80.3113 258.06 78.6726 258.06 75.8131V71.3395H256.61C255.716 71.3395 255.111 71.3871 255.035 71.4633C254.947 71.5518 254.891 71.5518 254.836 71.4633C254.794 71.3953 254.536 71.3395 254.264 71.3395C253.99 71.3395 253.735 71.2884 253.696 71.2265C253.658 71.1639 253.454 71.1129 253.244 71.1129C253.033 71.1129 252.829 71.1639 252.79 71.2265ZM263.016 71.2367C262.897 71.3061 262.006 71.3504 260.834 71.3456L258.854 71.3368V75.4212V79.5056H260.326H261.8V77.4144C261.8 76.1425 261.844 75.2953 261.914 75.2524C261.975 75.2143 262.026 75.102 262.026 75.004C262.026 74.8073 262.536 74.3242 262.849 74.2235C262.957 74.1888 263.046 74.1125 263.046 74.054C263.046 73.7839 263.781 73.9656 264.253 74.3528L264.746 74.7577V76.9952C264.746 79.7104 264.606 79.5056 266.47 79.5056H267.92V76.9053C267.92 74.7447 267.891 74.2759 267.75 74.1343C267.657 74.0411 267.58 73.858 267.58 73.7281C267.58 73.2292 266.092 71.5668 265.645 71.5668C265.525 71.5668 265.426 71.5157 265.426 71.4531C265.426 71.3905 265.197 71.3395 264.916 71.3395C264.636 71.3395 264.406 71.2884 264.406 71.2265C264.406 71.0775 263.275 71.0863 263.016 71.2367ZM117.942 71.415C117.817 71.5409 117.854 76.4222 117.98 76.5004C118.043 76.5386 118.094 76.7461 118.094 76.9605C118.094 77.1755 118.145 77.3511 118.206 77.3511C118.269 77.3511 118.32 77.4783 118.32 77.6342C118.32 77.8111 118.384 77.9179 118.49 77.9179C118.583 77.9179 118.66 77.9826 118.66 78.0622C118.66 78.1929 118.777 78.3296 119.445 78.9788C119.736 79.2613 120.223 79.5056 120.495 79.5056C120.616 79.5056 120.792 79.5825 120.886 79.6757C121.011 79.8016 121.319 79.8458 122.06 79.8458C122.801 79.8458 123.109 79.8016 123.234 79.6757C123.371 79.5389 123.757 79.5056 125.225 79.5056H127.046V75.4225V71.3395H125.529C123.7 71.3395 123.874 71.0795 123.874 73.8315C123.874 76.1561 123.811 76.4453 123.248 76.7379C122.794 76.9734 121.925 76.9441 121.656 76.6842C121.027 76.0744 121.04 76.1343 121.04 73.8431C121.04 72.6637 121.009 71.6178 120.971 71.5191C120.9 71.3327 118.12 71.2374 117.942 71.415ZM190.626 75.4225V79.5056H192.044H193.46V75.4225V71.3395H192.044H190.626V75.4225ZM216.92 74.2248C216.92 76.0261 216.963 77.1367 217.034 77.1809C217.095 77.2191 217.146 77.3497 217.146 77.4708C217.146 77.592 217.197 77.6913 217.26 77.6913C217.323 77.6913 217.374 77.7573 217.374 77.8383C217.374 78.0874 218.586 79.2789 218.84 79.2789C218.968 79.2789 219.074 79.33 219.074 79.3926C219.074 79.4545 219.188 79.5076 219.329 79.5096C219.469 79.5117 219.682 79.5879 219.803 79.6798C219.958 79.7961 220.317 79.8458 221 79.8458C221.683 79.8458 222.042 79.7961 222.197 79.6798C222.367 79.5505 222.805 79.5124 224.145 79.5096L225.874 79.5056V75.4225V71.3395H224.471C222.715 71.3395 222.847 71.1353 222.794 73.9397C222.762 75.6287 222.712 76.2691 222.612 76.3031C222.535 76.3283 222.474 76.4215 222.474 76.51C222.474 76.5978 222.374 76.6706 222.253 76.6706C222.132 76.6706 222.002 76.7216 221.964 76.7835C221.781 77.0789 220.323 76.8019 220.321 76.4719C220.321 76.3936 220.269 76.3303 220.206 76.3303C220.145 76.3303 220.094 76.2316 220.094 76.1112C220.094 75.9907 220.017 75.8159 219.924 75.7226C219.784 75.5838 219.754 75.1673 219.754 73.4463V71.3395H218.336H216.92V74.2248ZM245.594 75.4191V79.5056H247.068H248.543L248.513 75.4511L248.484 71.3966L247.039 71.3647L245.594 71.3327V75.4191ZM154.675 74.1466C155.141 74.4467 155.494 74.8244 155.494 75.0244C155.494 75.1224 155.57 75.2327 155.664 75.2681C155.842 75.3368 155.902 75.6498 155.737 75.6498C155.684 75.6498 155.546 75.8791 155.43 76.1602C155.292 76.497 155.151 76.6706 155.017 76.6706C154.905 76.6706 154.814 76.7216 154.814 76.7835C154.814 76.8461 154.516 76.8972 154.148 76.8972C153.504 76.8972 152.886 76.5569 152.886 76.201C152.886 76.1473 152.81 76.103 152.716 76.103C152.411 76.103 152.494 75.151 152.832 74.7862C153.57 73.9887 154.129 73.7947 154.675 74.1466ZM179.294 74.0009C179.294 74.1146 178.788 74.5154 178.643 74.5154C178.559 74.5154 178.352 74.6433 178.184 74.7992C177.864 75.0966 177.594 75.1694 177.594 74.9577C177.594 74.7835 178.263 74.1752 178.455 74.1752C178.542 74.1752 178.614 74.1241 178.614 74.0615C178.614 73.9996 178.767 73.9485 178.954 73.9485C179.141 73.9485 179.294 73.9717 179.294 74.0009ZM212.16 74.0391C212.16 74.0887 212.33 74.1908 212.538 74.2663C212.745 74.3412 212.983 74.5304 213.067 74.6862C213.15 74.842 213.261 74.9693 213.313 74.9693C213.515 74.9693 213.408 75.9451 213.18 76.1908C213.056 76.3242 212.954 76.4875 212.954 76.5522C212.954 76.6175 212.854 76.6706 212.733 76.6706C212.612 76.6706 212.482 76.7216 212.444 76.7835C212.235 77.1204 211.175 76.9047 210.7 76.4304C210.241 75.9703 209.998 74.9693 210.346 74.9693C210.409 74.9693 210.46 74.8992 210.46 74.8135C210.46 74.7277 210.638 74.5365 210.856 74.3882C211.073 74.2398 211.252 74.0799 211.253 74.0336C211.253 73.9867 211.458 73.9485 211.706 73.9485C211.956 73.9485 212.16 73.9894 212.16 74.0391ZM254.326 74.2936C254.938 74.7781 255.405 75.8764 255 75.8764C254.937 75.8764 254.886 75.9785 254.886 76.103C254.886 76.2282 254.835 76.3303 254.774 76.3303C254.711 76.3303 254.66 76.4065 254.66 76.5004C254.66 76.595 254.559 76.6706 254.434 76.6706C254.308 76.6706 254.206 76.7216 254.206 76.7835C254.206 76.9462 253.116 76.9237 252.826 76.7556C252.447 76.5351 252.166 76.2337 252.166 76.0465C252.166 75.9526 252.115 75.8764 252.054 75.8764C251.676 75.8764 251.96 75.0503 252.524 74.5093C253.248 73.8152 253.66 73.7655 254.326 74.2936ZM254.886 79.6342C254.886 79.7907 254.34 80.2766 254.065 80.365C253.956 80.3997 253.866 80.476 253.866 80.5345C253.866 80.7073 253.113 80.6543 252.96 80.4698C252.882 80.3759 252.748 80.2997 252.663 80.2997C252.577 80.2997 252.506 80.2487 252.506 80.1861C252.506 80.1241 252.43 80.0731 252.336 80.0731C252.243 80.0731 252.166 80.0221 252.166 79.9595C252.166 79.8921 252.6 79.8458 253.239 79.8458C254.037 79.8458 254.349 79.8036 254.457 79.6804C254.632 79.4817 254.886 79.4545 254.886 79.6342Z" fill="white"/>
</svg>
