<svg width="30" height="30" viewBox="0 0 30 30" fill="none" xmlns="http://www.w3.org/2000/svg">
<path d="M6.25 6.75C5.83579 6.75 5.5 7.08579 5.5 7.5C5.5 7.91421 5.83579 8.25 6.25 8.25V6.75ZM23.75 8.25C24.1642 8.25 24.5 7.91421 24.5 7.5C24.5 7.08579 24.1642 6.75 23.75 6.75V8.25ZM6.25 11.75C5.83579 11.75 5.5 12.0858 5.5 12.5C5.5 12.9142 5.83579 13.25 6.25 13.25V11.75ZM18.75 13.25C19.1642 13.25 19.5 12.9142 19.5 12.5C19.5 12.0858 19.1642 11.75 18.75 11.75V13.25ZM6.25 16.75C5.83579 16.75 5.5 17.0858 5.5 17.5C5.5 17.9142 5.83579 18.25 6.25 18.25V16.75ZM23.75 18.25C24.1642 18.25 24.5 17.9142 24.5 17.5C24.5 17.0858 24.1642 16.75 23.75 16.75V18.25ZM6.25 21.75C5.83579 21.75 5.5 22.0858 5.5 22.5C5.5 22.9142 5.83579 23.25 6.25 23.25V21.75ZM18.75 23.25C19.1642 23.25 19.5 22.9142 19.5 22.5C19.5 22.0858 19.1642 21.75 18.75 21.75V23.25ZM6.25 8.25H23.75V6.75H6.25V8.25ZM6.25 13.25H18.75V11.75H6.25V13.25ZM6.25 18.25H23.75V16.75H6.25V18.25ZM6.25 23.25H18.75V21.75H6.25V23.25Z" fill="#393E46"/>
</svg>
