<svg width="23" height="22" viewBox="0 0 23 22" fill="none" xmlns="http://www.w3.org/2000/svg">
<g clip-path="url(#clip0_1086_4159)">
<path d="M1.41667 3.66675V9.16675H6.91667" stroke="#2E1A73" stroke-width="2" stroke-linecap="round" stroke-linejoin="round"/>
<path d="M3.7175 13.75C4.31186 15.437 5.43839 16.8852 6.92735 17.8763C8.41631 18.8674 10.187 19.3477 11.9727 19.2449C13.7584 19.1421 15.4624 18.4618 16.8278 17.3064C18.1932 16.1511 19.1462 14.5832 19.543 12.8392C19.9399 11.0951 19.7592 9.26929 19.0282 7.63683C18.2972 6.00438 17.0555 4.65372 15.4901 3.78836C13.9247 2.923 12.1205 2.58982 10.3493 2.83902C8.57808 3.08822 6.93584 3.9063 5.67 5.16999L1.41667 9.16666" stroke="#2E1A73" stroke-width="2" stroke-linecap="round" stroke-linejoin="round"/>
</g>
<defs>
<clipPath id="clip0_1086_4159">
<rect width="22" height="22" fill="white" transform="translate(0.5)"/>
</clipPath>
</defs>
</svg>
