<svg width="25" height="24" viewBox="0 0 25 24" fill="none" xmlns="http://www.w3.org/2000/svg">
<path d="M2.5 19C2.5 19.5523 2.94772 20 3.5 20C4.05228 20 4.5 19.5523 4.5 19H2.5ZM14.5 19C14.5 19.5523 14.9477 20 15.5 20C16.0523 20 16.5 19.5523 16.5 19H14.5ZM15.5 10C14.9477 10 14.5 10.4477 14.5 11C14.5 11.5523 14.9477 12 15.5 12V10ZM15.5 4C14.9477 4 14.5 4.44772 14.5 5C14.5 5.55228 14.9477 6 15.5 6V4ZM20.5 19C20.5 19.5523 20.9477 20 21.5 20C22.0523 20 22.5 19.5523 22.5 19H20.5ZM17 13C16.4477 13 16 13.4477 16 14C16 14.5523 16.4477 15 17 15V13ZM4.5 19V18H2.5V19H4.5ZM7.5 15H11.5V13H7.5V15ZM14.5 18V19H16.5V18H14.5ZM11.5 8C11.5 9.10457 10.6046 10 9.5 10V12C11.7091 12 13.5 10.2091 13.5 8H11.5ZM9.5 10C8.39543 10 7.5 9.10457 7.5 8H5.5C5.5 10.2091 7.29086 12 9.5 12V10ZM7.5 8C7.5 6.89543 8.39543 6 9.5 6V4C7.29086 4 5.5 5.79086 5.5 8H7.5ZM9.5 6C10.6046 6 11.5 6.89543 11.5 8H13.5C13.5 5.79086 11.7091 4 9.5 4V6ZM17.5 8C17.5 9.10457 16.6046 10 15.5 10V12C17.7091 12 19.5 10.2091 19.5 8H17.5ZM15.5 6C16.6046 6 17.5 6.89543 17.5 8H19.5C19.5 5.79086 17.7091 4 15.5 4V6ZM20.5 18V19H22.5V18H20.5ZM17 15H17.5V13H17V15ZM22.5 18C22.5 15.2386 20.2614 13 17.5 13V15C19.1569 15 20.5 16.3431 20.5 18H22.5ZM11.5 15C13.1569 15 14.5 16.3431 14.5 18H16.5C16.5 15.2386 14.2614 13 11.5 13V15ZM4.5 18C4.5 16.3431 5.84315 15 7.5 15V13C4.73858 13 2.5 15.2386 2.5 18H4.5Z" fill="#E9204F"/>
</svg>
