<svg width="25" height="24" viewBox="0 0 25 24" fill="none" xmlns="http://www.w3.org/2000/svg">
<path d="M11.5489 4.92705C11.8483 4.00574 13.1517 4.00574 13.4511 4.92705L14.7451 8.90983C14.879 9.32185 15.263 9.60081 15.6962 9.60081H19.8839C20.8527 9.60081 21.2554 10.8404 20.4717 11.4098L17.0838 13.8713C16.7333 14.126 16.5866 14.5773 16.7205 14.9894L18.0146 18.9721C18.3139 19.8934 17.2595 20.6596 16.4757 20.0902L13.0878 17.6287C12.7373 17.374 12.2627 17.374 11.9122 17.6287L8.52426 20.0902C7.74054 20.6596 6.68607 19.8934 6.98542 18.9721L8.2795 14.9894C8.41338 14.5773 8.26672 14.126 7.91623 13.8713L4.52827 11.4098C3.74456 10.8404 4.14734 9.60081 5.11606 9.60081H9.3038C9.73703 9.60081 10.121 9.32185 10.2549 8.90983L11.5489 4.92705Z" stroke="#7B61FF" stroke-width="2" stroke-linecap="round" stroke-linejoin="round"/>
</svg>
