<svg width="35" height="36" viewBox="0 0 35 36" fill="none" xmlns="http://www.w3.org/2000/svg">
<rect y="0.5" width="35" height="35" rx="4" fill="#FFECF0"/>
<path d="M21 11H22.75C23.2141 11 23.6592 11.1844 23.9874 11.5126C24.3156 11.8408 24.5 12.2859 24.5 12.75V25C24.5 25.4641 24.3156 25.9092 23.9874 26.2374C23.6592 26.5656 23.2141 26.75 22.75 26.75H12.25C11.7859 26.75 11.3408 26.5656 11.0126 26.2374C10.6844 25.9092 10.5 25.4641 10.5 25V12.75C10.5 12.2859 10.6844 11.8408 11.0126 11.5126C11.3408 11.1844 11.7859 11 12.25 11H14" stroke="#E9204F" stroke-width="2" stroke-linecap="round" stroke-linejoin="round"/>
<path d="M20.125 9.25H14.875C14.3918 9.25 14 9.64175 14 10.125V11.875C14 12.3582 14.3918 12.75 14.875 12.75H20.125C20.6082 12.75 21 12.3582 21 11.875V10.125C21 9.64175 20.6082 9.25 20.125 9.25Z" stroke="#E9204F" stroke-width="2" stroke-linecap="round" stroke-linejoin="round"/>
</svg>
