<svg xmlns="http://www.w3.org/2000/svg" width="16" height="16" fill="none"><path fill-rule="evenodd" clip-rule="evenodd" d="M3.349 8c0-.52.088-1.018.245-1.485L.84 4.456A7.856 7.856 0 000 8c0 1.274.302 2.475.838 3.542l2.754-2.063A4.64 4.64 0 013.349 8z" fill="#FBBC05"/><path fill-rule="evenodd" clip-rule="evenodd" d="M8.186 3.273A4.8 4.8 0 0111.2 4.327L13.581 2a8.257 8.257 0 00-5.395-2C4.951 0 2.171 1.81.839 4.456l2.755 2.059C4.23 4.629 6.04 3.273 8.186 3.273z" fill="#EA4335"/><path fill-rule="evenodd" clip-rule="evenodd" d="M8.186 12.727c-2.147 0-3.957-1.356-4.592-3.242L.84 11.544C2.171 14.19 4.951 16 8.186 16c1.997 0 3.903-.694 5.334-1.994l-2.615-1.978c-.738.455-1.668.7-2.719.7z" fill="#34A853"/><path fill-rule="evenodd" clip-rule="evenodd" d="M16 8c0-.473-.075-.982-.186-1.455H8.186v3.091h4.39a3.603 3.603 0 01-1.671 2.392l2.615 1.978C15.023 12.641 16 10.607 16 8z" fill="#4285F4"/></svg>