<svg width="18" height="18" viewBox="0 0 18 18" fill="none" xmlns="http://www.w3.org/2000/svg">
<path d="M12.1256 6.05521C12.6196 5.80822 12.8198 5.20755 12.5729 4.71357C12.3259 4.21959 11.7252 4.01937 11.2312 4.26636L12.1256 6.05521ZM11.2312 13.7336C11.7252 13.9806 12.3259 13.7804 12.5729 13.2864C12.8198 12.7924 12.6196 12.1918 12.1256 11.9448L11.2312 13.7336ZM4 10.5C3.17157 10.5 2.5 9.82843 2.5 9H0.5C0.5 10.933 2.067 12.5 4 12.5V10.5ZM2.5 9C2.5 8.17157 3.17157 7.5 4 7.5V5.5C2.067 5.5 0.5 7.067 0.5 9H2.5ZM6.68377 8.77615L12.1256 6.05521L11.2312 4.26636L5.78934 6.98729L6.68377 8.77615ZM4 7.5C4.58579 7.5 5.09499 7.83562 5.34248 8.32963L7.13064 7.43381C6.55724 6.28924 5.37169 5.5 4 5.5V7.5ZM5.34248 8.32963C5.44297 8.53023 5.5 8.75702 5.5 9H7.5C7.5 8.43903 7.36728 7.90619 7.13064 7.43381L5.34248 8.32963ZM5.78934 11.0127L11.2312 13.7336L12.1256 11.9448L6.68377 9.22385L5.78934 11.0127ZM5.5 9C5.5 9.24298 5.44297 9.46977 5.34248 9.67037L7.13064 10.5662C7.36728 10.0938 7.5 9.56097 7.5 9H5.5ZM5.34248 9.67037C5.09499 10.1644 4.58579 10.5 4 10.5V12.5C5.37169 12.5 6.55724 11.7108 7.13064 10.5662L5.34248 9.67037ZM15.5 4C15.5 4.82843 14.8284 5.5 14 5.5V7.5C15.933 7.5 17.5 5.933 17.5 4H15.5ZM14 5.5C13.1716 5.5 12.5 4.82843 12.5 4H10.5C10.5 5.933 12.067 7.5 14 7.5V5.5ZM12.5 4C12.5 3.17157 13.1716 2.5 14 2.5V0.5C12.067 0.5 10.5 2.067 10.5 4H12.5ZM14 2.5C14.8284 2.5 15.5 3.17157 15.5 4H17.5C17.5 2.067 15.933 0.5 14 0.5V2.5ZM15.5 14C15.5 14.8284 14.8284 15.5 14 15.5V17.5C15.933 17.5 17.5 15.933 17.5 14H15.5ZM14 15.5C13.1716 15.5 12.5 14.8284 12.5 14H10.5C10.5 15.933 12.067 17.5 14 17.5V15.5ZM12.5 14C12.5 13.1716 13.1716 12.5 14 12.5V10.5C12.067 10.5 10.5 12.067 10.5 14H12.5ZM14 12.5C14.8284 12.5 15.5 13.1716 15.5 14H17.5C17.5 12.067 15.933 10.5 14 10.5V12.5Z" fill="#E9204F"/>
</svg>
