<svg width="42" height="41" viewBox="0 0 42 41" fill="none" xmlns="http://www.w3.org/2000/svg">
<path d="M20.0489 2.09372C20.3482 1.17241 21.6516 1.17241 21.951 2.09372L25.9205 14.3107C26.0544 14.7227 26.4383 15.0017 26.8716 15.0017H39.7173C40.686 15.0017 41.0888 16.2413 40.3051 16.8107L29.9127 24.3612C29.5622 24.6159 29.4155 25.0672 29.5494 25.4793L33.5189 37.6963C33.8183 38.6176 32.7638 39.3837 31.9801 38.8143L21.5877 31.2638C21.2372 31.0091 20.7626 31.0091 20.4121 31.2638L10.0197 38.8143C9.23603 39.3837 8.18154 38.6176 8.4809 37.6963L12.4504 25.4793C12.5843 25.0672 12.4377 24.6159 12.0872 24.3612L1.69477 16.8107C0.91106 16.2413 1.31383 15.0017 2.28256 15.0017H15.1283C15.5615 15.0017 15.9454 14.7227 16.0793 14.3107L20.0489 2.09372Z" stroke="#7B61FF" stroke-width="2" stroke-linecap="round" stroke-linejoin="round"/>
</svg>
