<svg width="22" height="20" viewBox="0 0 22 20" fill="none" xmlns="http://www.w3.org/2000/svg">
<path d="M1.78334 8.50532L2.22418 7.89856L1.78334 8.50532ZM6.71013 12.0849L6.2693 12.6916L6.71013 12.0849ZM5.77932 18.9947L6.22016 19.6014L5.77932 18.9947ZM5.0099 18.4357L4.29661 18.2039L5.0099 18.4357ZM11.2939 15.4152L10.8531 16.0219L11.2939 15.4152ZM10.7061 15.4152L10.2653 14.8084L10.7061 15.4152ZM16.9901 18.4357L16.2768 18.6674L16.9901 18.4357ZM16.2207 18.9947L16.6615 18.3879L16.2207 18.9947ZM15.2899 12.0848L14.849 11.4781L15.2899 12.0848ZM15.1083 12.6439L14.395 12.8756L15.1083 12.6439ZM20.2167 8.50532L19.7758 7.89856L20.2167 8.50532ZM10.5245 1.46352L9.81119 1.23176L10.5245 1.46352ZM10.7622 1.69529L12.6441 7.48709L14.0707 7.02356L12.1888 1.23176L10.7622 1.69529ZM13.8329 8.35081H19.9228V6.85081H13.8329V8.35081ZM19.7758 7.89856L14.849 11.4781L15.7307 12.6916L20.6575 9.11208L19.7758 7.89856ZM14.395 12.8756L16.2768 18.6674L17.7034 18.2039L15.8215 12.4121L14.395 12.8756ZM16.6615 18.3879L11.7347 14.8084L10.8531 16.0219L15.7799 19.6014L16.6615 18.3879ZM10.2653 14.8084L5.33848 18.3879L6.22016 19.6014L11.147 16.0219L10.2653 14.8084ZM5.72319 18.6674L7.60506 12.8756L6.17848 12.4121L4.29661 18.2039L5.72319 18.6674ZM7.15097 11.4781L2.22418 7.89856L1.3425 9.11208L6.2693 12.6916L7.15097 11.4781ZM2.07723 8.35081H8.16709V6.85081H2.07723V8.35081ZM9.35591 7.48708L11.2378 1.69529L9.81119 1.23176L7.92932 7.02356L9.35591 7.48708ZM8.16709 8.35081C8.70862 8.35081 9.18856 8.00211 9.35591 7.48708L7.92932 7.02356C7.96279 6.92055 8.05878 6.85081 8.16709 6.85081V8.35081ZM2.22418 7.89856C2.42011 8.04091 2.31941 8.35081 2.07723 8.35081V6.85081C0.866333 6.85081 0.362854 8.40033 1.3425 9.11208L2.22418 7.89856ZM7.60506 12.8756C7.77241 12.3606 7.58908 11.7964 7.15097 11.4781L6.2693 12.6916C6.18167 12.628 6.14501 12.5151 6.17848 12.4121L7.60506 12.8756ZM5.33848 18.3879C5.53441 18.2456 5.79803 18.4371 5.72319 18.6674L4.29661 18.2039C3.92242 19.3555 5.24052 20.3132 6.22016 19.6014L5.33848 18.3879ZM11.7347 14.8084C11.2966 14.4901 10.7034 14.4901 10.2653 14.8084L11.147 16.0219C11.0593 16.0856 10.9407 16.0856 10.8531 16.0219L11.7347 14.8084ZM16.2768 18.6674C16.202 18.4371 16.4656 18.2456 16.6615 18.3879L15.7799 19.6014C16.7595 20.3132 18.0776 19.3555 17.7034 18.2039L16.2768 18.6674ZM14.849 11.4781C14.4109 11.7964 14.2276 12.3606 14.395 12.8756L15.8215 12.4121C15.855 12.5151 15.8183 12.628 15.7307 12.6916L14.849 11.4781ZM19.9228 8.35081C19.6806 8.35081 19.5799 8.04091 19.7758 7.89856L20.6575 9.11208C21.6372 8.40033 21.1337 6.85081 19.9228 6.85081V8.35081ZM12.6441 7.48709C12.8115 8.00211 13.2914 8.35081 13.8329 8.35081V6.85081C13.9412 6.85081 14.0372 6.92055 14.0707 7.02356L12.6441 7.48709ZM12.1888 1.23176C11.8146 0.0801276 10.1854 0.0801208 9.81119 1.23176L11.2378 1.69529C11.1629 1.92562 10.8371 1.92561 10.7622 1.69529L12.1888 1.23176Z" fill="#E9204F"/>
</svg>
