<svg width="16" height="16" viewBox="0 0 16 16" fill="none" xmlns="http://www.w3.org/2000/svg">
<path d="M7.52446 1.96353C7.67414 1.50287 8.32584 1.50287 8.47552 1.96353L9.73998 5.85512C9.80691 6.06113 9.99889 6.20061 10.2155 6.20061H14.3074C14.7917 6.20061 14.9931 6.82042 14.6013 7.10512L11.2909 9.51025C11.1156 9.63758 11.0423 9.86326 11.1092 10.0693L12.3737 13.9609C12.5234 14.4215 11.9961 14.8046 11.6043 14.5199L8.29389 12.1147C8.11864 11.9874 7.88134 11.9874 7.7061 12.1147L4.39572 14.5199C4.00386 14.8046 3.47662 14.4215 3.62629 13.9609L4.89075 10.0693C4.95769 9.86326 4.88436 9.63758 4.70911 9.51025L1.39873 7.10512C1.00687 6.82042 1.20826 6.20061 1.69262 6.20061H5.78448C6.00109 6.20061 6.19307 6.06113 6.26001 5.85512L7.52446 1.96353Z" fill="#E9204F"/>
<path d="M6.26001 5.85512L7.21107 6.16413L6.26001 5.85512ZM1.39873 7.10512L0.810942 7.91414L1.39873 7.10512ZM4.89075 10.0693L5.8418 10.3783L4.89075 10.0693ZM4.70911 9.51025L4.12133 10.3193L4.70911 9.51025ZM3.62629 13.9609L2.67524 13.6518L3.62629 13.9609ZM8.29389 12.1147L7.7061 12.9238L8.29389 12.1147ZM7.7061 12.1147L8.29389 12.9238L7.7061 12.1147ZM12.3737 13.9609L11.4226 14.2699L12.3737 13.9609ZM11.6043 14.5199L11.0165 15.3289L11.6043 14.5199ZM11.2909 9.51025L11.8787 10.3193L11.2909 9.51025ZM11.1092 10.0693L12.0603 9.76025L11.1092 10.0693ZM9.73998 5.85512L8.78892 6.16413L9.73998 5.85512ZM8.47552 1.96353L7.52446 2.27254L8.47552 1.96353ZM7.52446 1.96353L6.57341 1.65451L7.52446 1.96353ZM7.52446 2.27254L8.78892 6.16413L10.691 5.5461L9.42658 1.65451L7.52446 2.27254ZM10.2155 7.20061H14.3074V5.20061H10.2155V7.20061ZM14.0135 6.2961L10.7031 8.70124L11.8787 10.3193L15.189 7.91413L14.0135 6.2961ZM10.1582 10.3783L11.4226 14.2699L13.3247 13.6518L12.0603 9.76025L10.1582 10.3783ZM12.1921 13.7109L8.88167 11.3057L7.7061 12.9238L11.0165 15.3289L12.1921 13.7109ZM7.11831 11.3057L3.80793 13.7109L4.9835 15.3289L8.29389 12.9238L7.11831 11.3057ZM4.57735 14.2699L5.8418 10.3783L3.93969 9.76025L2.67524 13.6518L4.57735 14.2699ZM5.2969 8.70124L1.98651 6.2961L0.810942 7.91414L4.12133 10.3193L5.2969 8.70124ZM1.69262 7.20061H5.78448V5.20061H1.69262V7.20061ZM7.21107 6.16413L8.47552 2.27254L6.57341 1.65451L5.30895 5.5461L7.21107 6.16413ZM5.78448 7.20061C6.43432 7.20061 7.01025 6.78217 7.21107 6.16413L5.30895 5.5461C5.37589 5.34009 5.56787 5.20061 5.78448 5.20061V7.20061ZM1.98651 6.2961C2.37837 6.5808 2.17698 7.20061 1.69262 7.20061V5.20061C0.239532 5.20061 -0.364626 7.06003 0.810942 7.91414L1.98651 6.2961ZM5.8418 10.3783C6.04262 9.76026 5.82263 9.0832 5.2969 8.70124L4.12133 10.3193C3.94608 10.1919 3.87275 9.96627 3.93969 9.76025L5.8418 10.3783ZM3.80793 13.7109C4.19978 13.4262 4.72703 13.8092 4.57735 14.2699L2.67524 13.6518C2.22621 15.0338 3.80793 16.183 4.9835 15.3289L3.80793 13.7109ZM8.88167 11.3057C8.35594 10.9238 7.64405 10.9238 7.11831 11.3057L8.29389 12.9238C8.11864 13.0511 7.88134 13.0511 7.7061 12.9238L8.88167 11.3057ZM11.4226 14.2699C11.273 13.8092 11.8002 13.4262 12.1921 13.7109L11.0165 15.3289C12.1921 16.183 13.7738 15.0338 13.3247 13.6518L11.4226 14.2699ZM10.7031 8.70124C10.1774 9.0832 9.95737 9.76025 10.1582 10.3783L12.0603 9.76025C12.1272 9.96627 12.0539 10.1919 11.8787 10.3193L10.7031 8.70124ZM14.3074 7.20061C13.823 7.20061 13.6216 6.5808 14.0135 6.2961L15.189 7.91413C16.3646 7.06003 15.7605 5.20061 14.3074 5.20061V7.20061ZM8.78892 6.16413C8.98973 6.78217 9.56567 7.20061 10.2155 7.20061V5.20061C10.4321 5.20061 10.6241 5.34009 10.691 5.5461L8.78892 6.16413ZM9.42658 1.65451C8.97755 0.272539 7.02243 0.272547 6.57341 1.65451L8.47552 2.27254C8.32585 2.7332 7.67414 2.7332 7.52446 2.27254L9.42658 1.65451Z" fill="#E9204F"/>
</svg>
