<svg width="163" height="38" viewBox="0 0 163 38" fill="none" xmlns="http://www.w3.org/2000/svg">
<g clip-path="url(#clip0_1413_1169)">
<path fill-rule="evenodd" clip-rule="evenodd" d="M26.9114 9.00021C24.6354 9.01054 22.6927 6.90402 22.6927 4.45673C22.6927 2.00945 24.6122 -0.0392404 26.9325 -0.0764143C29.3204 -0.115653 31.3939 2.06935 31.3221 4.57032C31.2589 6.91641 29.198 8.98989 26.9114 9.00021Z" fill="#E9204F"/>
<path fill-rule="evenodd" clip-rule="evenodd" d="M18.4233 11.6499L15.8541 20.0595L11.0848 36.2404V8.77305H2.70214C1.90252 8.33705 1.23858 7.69697 0.780973 6.92092C0.323362 6.14486 0.0891951 5.26187 0.103392 4.36587C0.149799 1.56957 2.603 0.171412 2.70214 0.119781L21.8574 0.159021C20.7141 3.99344 19.5694 7.82373 18.4233 11.6499Z" fill="#070204"/>
<path fill-rule="evenodd" clip-rule="evenodd" d="M20.615 23.6054C20.615 20.0808 21.5937 17.427 23.5512 15.644C25.5087 13.861 28.0801 12.9723 31.2652 12.9778H31.5669V18.6241H31.3158C29.8885 18.6241 28.8275 19.0248 28.1328 19.8261C27.4381 20.6274 27.0865 21.8872 27.0781 23.6054V35.3152H20.615V23.6054Z" fill="#070204"/>
<path fill-rule="evenodd" clip-rule="evenodd" d="M55.8457 13.0667V24.7682C55.8457 28.3851 54.8508 31.1043 52.861 32.9258C50.8711 34.7473 48.2168 35.6622 44.8981 35.6705C41.5793 35.6705 38.9257 34.7576 36.9373 32.932C34.9488 31.1063 33.9539 28.3857 33.9525 24.7702V13.0667H40.422V24.7682C40.422 26.5732 40.7785 27.899 41.4914 28.7458C42.2044 29.5925 43.3399 30.0152 44.8981 30.0138C46.4611 30.0138 47.5938 29.6008 48.3089 28.7458C49.024 27.8908 49.372 26.5732 49.372 24.7682V13.0667H55.8457Z" fill="#070204"/>
<path fill-rule="evenodd" clip-rule="evenodd" d="M63.1105 34.7948C61.5987 34.2884 60.2508 33.3991 59.2039 32.2174C58.2202 31.0673 57.6989 29.6052 57.7379 28.1056H63.9078C63.9078 28.816 64.3487 29.3942 65.224 29.8403C66.0994 30.2864 67.2216 30.5074 68.5822 30.5074C69.8773 30.5074 70.8814 30.3071 71.5944 29.9064C72.3073 29.5037 72.6638 28.9936 72.6659 28.3678C72.668 27.7421 72.2672 27.2588 71.472 26.9924C70.6768 26.726 69.3985 26.4596 67.6393 26.1911C65.9941 25.96 64.3658 25.6255 62.7645 25.1895C61.4996 24.8374 60.3445 24.1814 59.4043 23.2812C58.4572 22.3725 57.9889 21.0921 57.9889 19.4337C57.9875 18.1575 58.4744 16.927 59.3537 15.9848C60.2663 14.9632 61.5024 14.164 63.0619 13.5871C64.7343 12.9849 66.5052 12.6881 68.2869 12.7114C71.2695 12.7114 73.7094 13.3558 75.6064 14.6445C77.5034 15.9332 78.4498 17.7196 78.4456 20.0037H72.2715C72.2715 19.3841 71.8651 18.8658 71.0522 18.4486C70.1654 18.019 69.1854 17.8064 68.1962 17.829C67.2725 17.7989 66.3561 17.9979 65.532 18.4073C64.819 18.7955 64.4647 19.2829 64.4647 19.8777C64.4647 20.4105 64.8444 20.8091 65.6058 21.0776C66.3673 21.3461 67.5781 21.596 69.234 21.8397C70.8964 22.0742 72.5427 22.408 74.1636 22.8392C75.4623 23.1972 76.6554 23.8527 77.644 24.7516C78.6397 25.6562 79.1368 26.9091 79.1354 28.5103C79.1691 30.884 78.1995 32.6738 76.2265 33.8799C74.2536 35.086 71.6569 35.6883 68.4366 35.687C66.6217 35.6959 64.8191 35.394 63.1105 34.7948Z" fill="#070204"/>
<path fill-rule="evenodd" clip-rule="evenodd" d="M89.4818 6.77805C87.4864 8.68631 85.377 10.4707 83.0145 11.9411V13.0604H79.3252V18.7088H83.0103V24.8012C83.0103 28.3905 83.9946 31.0595 85.9634 32.808C87.9321 34.5566 90.5935 35.4302 93.9474 35.4288V29.7928C92.3569 29.7928 91.2136 29.4066 90.5175 28.6342C89.8214 27.8619 89.4699 26.5876 89.4629 24.8115V18.715H93.939V13.0666H89.4818V6.77805Z" fill="#070204"/>
<path fill-rule="evenodd" clip-rule="evenodd" d="M131.077 15.4705C133.138 17.3072 134.169 20.0202 134.169 23.6096V35.3152H127.695V23.6054C127.695 21.8266 127.313 20.5076 126.55 19.6485C125.786 18.7893 124.591 18.3612 122.964 18.3639C121.372 18.3639 120.187 18.7942 119.41 19.6547C118.632 20.5152 118.239 21.8321 118.231 23.6054V35.3152H111.774V23.6054C111.774 21.8266 111.392 20.5076 110.628 19.6485C109.865 18.7873 108.667 18.3598 107.042 18.3639C105.418 18.368 104.266 18.7935 103.486 19.6547C102.705 20.5159 102.317 21.8293 102.317 23.6054V35.3152H95.85V23.6054C95.85 20.0257 96.8787 17.3127 98.936 15.4664C100.993 13.6201 103.697 12.7004 107.047 12.7073C108.6 12.6894 110.143 12.9534 111.599 13.4859C112.911 13.9632 114.083 14.7506 115.009 15.7782C115.936 14.7512 117.107 13.9638 118.418 13.4859C119.874 12.9538 121.417 12.6898 122.97 12.7073C126.319 12.7114 129.021 13.6325 131.077 15.4705Z" fill="#E9204F"/>
<path fill-rule="evenodd" clip-rule="evenodd" d="M143.267 21.8314C143.771 20.791 144.566 19.9117 145.56 19.2953C146.557 18.6758 147.749 18.3618 149.146 18.3618C150.383 18.3556 151.597 18.6859 152.653 19.316C153.68 19.9046 154.503 20.7807 155.016 21.8314H143.267ZM161.928 23.6901C161.861 21.439 161.189 19.4819 159.914 17.8187C158.651 16.1701 156.982 14.8619 155.062 14.0166C153.145 13.1501 151.057 12.7026 148.945 12.7052C146.71 12.6801 144.507 13.2222 142.55 14.2789C140.669 15.2742 139.088 16.7355 137.966 18.5167C136.868 20.2292 136.291 22.2117 136.299 24.2333C136.285 26.269 136.883 28.264 138.016 29.9704C139.168 31.7317 140.772 33.1654 142.668 34.1277C144.378 35.0191 146.266 35.5336 148.201 35.6353C148.24 35.5368 148.292 35.4432 148.355 35.3565C149.783 33.3739 151.318 31.4326 152.392 29.2393C152.09 29.3999 151.776 29.538 151.453 29.6524C150.643 29.9118 149.793 30.0306 148.941 30.0035C147.481 30.0035 146.245 29.6841 145.233 29.0452C144.261 28.4575 143.559 27.5253 143.273 26.443H161.734C161.898 25.5367 161.963 24.616 161.928 23.6963V23.6901Z" fill="#E9204F"/>
</g>
<defs>
<clipPath id="clip0_1413_1169">
<rect width="162" height="38" fill="white" transform="translate(0.0126953)"/>
</clipPath>
</defs>
</svg>
