<svg width="20" height="16" viewBox="0 0 20 16" fill="none" xmlns="http://www.w3.org/2000/svg">
<path d="M15.9841 2.26726C16.1777 2.48985 16.4838 2.57829 16.7663 2.49323C17.0474 2.40855 17.3243 2.31144 17.5961 2.20227C17.3936 2.49619 17.163 2.77162 16.9067 3.02441C16.7285 3.20019 16.6497 3.45333 16.6967 3.69923C16.7315 3.88126 16.7493 4.06612 16.75 4.25145C16.7496 8.77993 14.5982 11.9544 11.6268 13.5359C9.36054 14.7422 6.57341 15.0448 3.81437 14.2636C4.97532 13.9659 6.08376 13.4689 7.0879 12.7873C7.31322 12.6343 7.43793 12.3713 7.4137 12.1C7.38948 11.8288 7.22013 11.592 6.97128 11.4814C5.21621 10.7014 4.1396 9.69978 3.48519 8.6665C2.82775 7.62845 2.56764 6.51249 2.52007 5.46602C2.47508 4.47635 2.62119 3.56277 2.79128 2.86901C3.55192 3.66831 4.44676 4.33362 5.43865 4.83288C6.85769 5.54712 8.43134 5.89934 10.0195 5.85816C10.426 5.84762 10.75 5.51505 10.75 5.10841V4.27508H10.7501L10.7499 4.26503C10.7417 3.65393 10.9214 3.05507 11.2647 2.54942C11.6079 2.04377 12.0982 1.65575 12.6692 1.43782C13.2402 1.21989 13.8643 1.18258 14.4572 1.33092C15.05 1.47927 15.583 1.80611 15.9841 2.26726Z" stroke="white" stroke-width="1.5" stroke-linecap="round" stroke-linejoin="round"/>
</svg>
