<svg width="26" height="17" viewBox="0 0 26 17" fill="none" xmlns="http://www.w3.org/2000/svg">
<path d="M23.4667 2.19801H16V0.034668H23.4667V2.19801ZM25.3077 13.0147C24.8363 14.4177 23.1435 16.2598 19.8667 16.2598C16.5877 16.2598 13.9317 14.3895 13.9317 10.1213C13.9317 5.89192 16.4117 3.71776 19.7621 3.71776C23.0496 3.71776 25.0571 5.6453 25.4955 8.50524C25.5787 9.05257 25.6117 9.79027 25.5968 10.82H17.0347C17.1733 14.2933 20.7499 14.4025 21.9285 13.0147H25.3077ZM17.1093 8.68805H22.4053C22.2933 7.0147 21.1936 6.28782 19.7632 6.28782C18.1995 6.28782 17.3344 7.11854 17.1093 8.68805ZM6.89707 16.2468H0V0.057383H7.41653C13.2576 0.144998 13.3685 5.94601 10.3179 7.52741C14.0096 8.89032 14.1333 16.2468 6.89707 16.2468ZM3.2 6.5247H7.02293C9.69813 6.5247 10.1227 3.27969 6.69013 3.27969H3.2V6.5247ZM6.81707 9.76972H3.2V13.032H6.76373C10.0224 13.032 9.82293 9.76972 6.81707 9.76972Z" fill="white"/>
</svg>
