<svg width="40" height="32" viewBox="0 0 40 32" fill="none" xmlns="http://www.w3.org/2000/svg">
<path d="M0.25 30.5833C0.25 31.1356 0.697715 31.5833 1.25 31.5833C1.80228 31.5833 2.25 31.1356 2.25 30.5833H0.25ZM25.25 30.5833C25.25 31.1356 25.6977 31.5833 26.25 31.5833C26.8023 31.5833 27.25 31.1356 27.25 30.5833H25.25ZM26.25 12.9167C25.6977 12.9167 25.25 13.3644 25.25 13.9167C25.25 14.469 25.6977 14.9167 26.25 14.9167V12.9167ZM26.25 0.416672C25.6977 0.416672 25.25 0.864387 25.25 1.41667C25.25 1.96896 25.6977 2.41667 26.25 2.41667V0.416672ZM37.75 30.5833C37.75 31.1356 38.1977 31.5833 38.75 31.5833C39.3023 31.5833 39.75 31.1356 39.75 30.5833H37.75ZM29.375 19.1667C28.8227 19.1667 28.375 19.6144 28.375 20.1667C28.375 20.719 28.8227 21.1667 29.375 21.1667V19.1667ZM2.25 30.5833V28.5H0.25V30.5833H2.25ZM9.58333 21.1667H17.9167V19.1667H9.58333V21.1667ZM25.25 28.5V30.5833H27.25V28.5H25.25ZM19 7.66667C19 10.5662 16.6495 12.9167 13.75 12.9167V14.9167C17.7541 14.9167 21 11.6707 21 7.66667H19ZM13.75 12.9167C10.8505 12.9167 8.5 10.5662 8.5 7.66667H6.5C6.5 11.6707 9.74594 14.9167 13.75 14.9167V12.9167ZM8.5 7.66667C8.5 4.76718 10.8505 2.41667 13.75 2.41667V0.416672C9.74594 0.416672 6.5 3.66261 6.5 7.66667H8.5ZM13.75 2.41667C16.6495 2.41667 19 4.76718 19 7.66667H21C21 3.66261 17.7541 0.416672 13.75 0.416672V2.41667ZM31.5 7.66667C31.5 10.5662 29.1495 12.9167 26.25 12.9167V14.9167C30.2541 14.9167 33.5 11.6707 33.5 7.66667H31.5ZM26.25 2.41667C29.1495 2.41667 31.5 4.76718 31.5 7.66667H33.5C33.5 3.66261 30.2541 0.416672 26.25 0.416672V2.41667ZM37.75 28.5V30.5833H39.75V28.5H37.75ZM29.375 21.1667H30.4167V19.1667H29.375V21.1667ZM39.75 28.5C39.75 23.3454 35.5713 19.1667 30.4167 19.1667V21.1667C34.4668 21.1667 37.75 24.4499 37.75 28.5H39.75ZM17.9167 21.1667C21.9668 21.1667 25.25 24.4499 25.25 28.5H27.25C27.25 23.3454 23.0713 19.1667 17.9167 19.1667V21.1667ZM2.25 28.5C2.25 24.4499 5.53325 21.1667 9.58333 21.1667V19.1667C4.42868 19.1667 0.25 23.3454 0.25 28.5H2.25Z" fill="#B4D51E"/>
</svg>
