<svg width="20" height="21" viewBox="0 0 20 21" fill="none" xmlns="http://www.w3.org/2000/svg">
<path fill-rule="evenodd" clip-rule="evenodd" d="M7.429 7.01693H11.143V8.87188C11.678 7.80503 13.05 6.84648 15.111 6.84648C19.062 6.84648 20 8.97014 20 12.8665V20.0828H16V13.7539C16 11.535 15.465 10.2836 14.103 10.2836C12.214 10.2836 11.429 11.6322 11.429 13.7529V20.0828H7.429V7.01693ZM0.57 19.9123H4.57V6.84648H0.57V19.9123ZM5.143 2.58612C5.14315 2.92229 5.07666 3.25513 4.94739 3.56531C4.81812 3.87549 4.62865 4.15682 4.39 4.39293C3.9064 4.87484 3.25181 5.14459 2.57 5.14293C1.88939 5.14248 1.23631 4.87341 0.752 4.39394C0.514211 4.15702 0.325386 3.87538 0.196344 3.56516C0.0673015 3.25494 0.000579132 2.92224 0 2.58612C0 1.90731 0.27 1.25757 0.753 0.778294C1.23689 0.298172 1.89024 0.0289969 2.571 0.0292971C3.253 0.0292971 3.907 0.299016 4.39 0.778294C4.872 1.25757 5.143 1.90731 5.143 2.58612Z" fill="white"/>
</svg>
