<svg width="20" height="16" viewBox="0 0 20 16" fill="none" xmlns="http://www.w3.org/2000/svg">
<path d="M19.8715 3.35798C19.8715 1.59552 18.5784 0.177715 16.9805 0.177715C14.8162 0.0762751 12.6089 0.0371094 10.3531 0.0371094H9.64989C7.39961 0.0371094 5.18839 0.0762752 3.02406 0.178106C1.43011 0.178106 0.136974 1.60374 0.136974 3.36621C0.039305 4.76012 -0.00210647 6.15443 0.000237572 7.54873C-0.00366917 8.94304 0.0406073 10.3386 0.133067 11.7356C0.133067 13.498 1.4262 14.9276 3.02015 14.9276C5.29387 15.0333 7.6262 15.0803 9.99759 15.0764C12.3729 15.0842 14.6987 15.0346 16.975 14.9276C18.5729 14.9276 19.866 13.498 19.866 11.7356C19.9598 10.3373 20.0028 8.94304 19.9989 7.54482C20.0077 6.15051 19.9653 4.7549 19.8715 3.35798ZM8.0872 11.3909V3.69481L13.752 7.5409L8.0872 11.3909Z" fill="white"/>
</svg>
