<svg width="20" height="18" viewBox="0 0 20 18" fill="none" xmlns="http://www.w3.org/2000/svg">
<path d="M20 2.05657C19.2645 2.39825 18.4744 2.62911 17.6438 2.73346C18.5008 2.19582 19.142 1.34964 19.4477 0.352812C18.6425 0.854234 17.7612 1.20718 16.8422 1.39631C16.2242 0.704521 15.4057 0.245994 14.5136 0.0919146C13.6216 -0.0621644 12.706 0.096825 11.909 0.544199C11.1119 0.991573 10.4781 1.7023 10.1058 2.56604C9.73358 3.42978 9.64374 4.3982 9.85026 5.32095C8.2187 5.23507 6.62259 4.79048 5.16553 4.01603C3.70847 3.24159 2.42301 2.1546 1.39258 0.825617C1.04025 1.46279 0.837664 2.20155 0.837664 2.98833C0.837271 3.69661 1.00364 4.39404 1.32201 5.01874C1.64038 5.64344 2.10091 6.1761 2.66273 6.56945C2.01117 6.54772 1.37397 6.36314 0.804193 6.03108V6.08649C0.804127 7.07988 1.13189 8.0427 1.73186 8.81157C2.33184 9.58045 3.16707 10.108 4.09583 10.3048C3.4914 10.4763 2.85769 10.5015 2.24258 10.3787C2.50462 11.2334 3.01506 11.9809 3.70243 12.5164C4.3898 13.0519 5.21969 13.3486 6.07593 13.3651C4.62242 14.5613 2.82735 15.2102 0.979477 15.2074C0.652146 15.2075 0.325091 15.1874 0 15.1473C1.87569 16.4117 4.05914 17.0827 6.28909 17.0801C13.8378 17.0801 17.9644 10.5255 17.9644 4.84076C17.9644 4.65607 17.96 4.46953 17.9521 4.28485C18.7548 3.67627 19.4476 2.92267 19.9982 2.05934L20 2.05657Z" fill="white"/>
</svg>
